<svg id="Capa_2" data-name="Capa 2" xmlns="http://www.w3.org/2000/svg"
    xmlns:xlink="http://www.w3.org/1999/xlink" viewBox="0 0 1920 1080">
    <defs>
        <style>
            .cls-1,.cls-4{fill:none;}.cls-2{fill:#f39;}.cls-3{fill:#d21666;}.cls-4{stroke:#d21666;stroke-linecap:round;stroke-linejoin:round;stroke-width:3px;}.cls-5{clip-path:url(#clip-path);}.cls-6{fill:#d21464;}.cls-7{clip-path:url(#clip-path-2);}.cls-8{clip-path:url(#clip-path-3);}.cls-9{clip-path:url(#clip-path-4);}.cls-10{clip-path:url(#clip-path-5);}.cls-11{clip-path:url(#clip-path-6);}</style>
        <clipPath id="clip-path">
            <path id="mascara" class="cls-1"
                d="M202.16,116.54C88.16,257.73,113.89,413.6,195,519.73c68.27,89.33,181.22,140.41,229,147.92C582.69,692.58,678.36,633,735.09,563.57c64.32-78.73,87.59-183,67.07-282.54C778.32,165.31,732.17,100.52,663,62.35c-158.77-87.6-280,2.39-308.13,54.19-28.63,52.78-30.76,96.17-22.23,129.79,12.26,48.33,50,85.88,97.62,100.63,133.18,41.24,175.11-70.58,175.11-70.58s31-90.66-23.86-133.6c-55.86-43.72-114.51,0-114.51,0s90.66-4.77,107.36,54.87c6.26,22.37,1.45,41.72-7,57.16-16.88,30.84-50.25,48.7-85.39,48.08-26-.46-57.6-9-80.54-41.21C368.81,216,376.47,152.34,418.42,115c30.72-27.33,80.87-47.22,160.69-24.74C748.5,138,755.66,314.55,755.66,314.55s2.82,13,3.25,33.93c3.15,153-129.91,272.84-282.14,257.19-104.4-10.73-274.87-54.73-310.4-248.17C144.9,240.6,202.16,116.54,202.16,116.54Z" />
        </clipPath>
        <clipPath id="clip-path-2">
            <path id="mascara-2" data-name="mascara" class="cls-1"
                d="M618.94,725s-16.66-49.3-99.29,44.08c-2.27-30.07-16.82-60.53-78.81-57.62-89.38,4.21-117.76,102-117.76,102S285.31,924.82,380.84,929c34.42,1.52,63.08-18.42,83.92-36C462,904.7,459.6,914.15,458,920.43c-1.2,4.78,1.68,8.59,6.46,8.59h18.58c4.82,0,9.77-3.87,11.09-8.69,4.67-17.08,14.93-56,20-85.88C558,755.57,618.94,725,618.94,725ZM396.44,891.31c-32.64,0-50.49-32.08-39.89-71.66S402.21,748,434.84,748s50.49,32.09,39.88,71.66S429.07,891.31,396.44,891.31Z" />
        </clipPath>
        <clipPath id="clip-path-3">
            <path id="mascara-3" data-name="mascara" class="cls-1"
                d="M823.57,830.18l-1.12,3.5q-6.76,25.23,5.16,40.51Q840,890.41,868.75,890.4q26.16,0,52.82-15.65c3.34-2,6.13-3,8.33-3q6.81,0,8.49,6.81l2.21,10.32a18,18,0,0,1-.46,7.92q-1.14,4.23-6.12,8.74a57.65,57.65,0,0,1-12,8.2,97.28,97.28,0,0,1-15.82,6.44,178.56,178.56,0,0,1-17.71,4.61,180.62,180.62,0,0,1-36.35,3.68,90.73,90.73,0,0,1-35.23-7A62.66,62.66,0,0,1,790,901.08q-21.63-28.55-8.6-77.16,22.85-85.26,88.45-106.07a133.93,133.93,0,0,1,40.31-6.45q19.79,0,32.56,4.24t20.68,12.52q16.68,17.51,8.29,48.8-8.25,30.76-37.63,47-25.73,14.19-61.62,14.18Q850.35,838.1,823.57,830.18Zm105-53.77q7-26.34-28.3-26.33-33.71,0-53.76,24.67a76.6,76.6,0,0,0-12,21.36q13.71,7.92,38.2,7.92C904.41,804,923.64,794.82,928.58,776.41Z" />
        </clipPath>
        <clipPath id="clip-path-4">
            <path id="mascara-4" data-name="mascara" class="cls-1"
                d="M1802.92,918.55c-28.1-47.89-57.05-99.74-51.69-105.12,44.18-44.3,68.13-74.48,68.13-74.48,33.3-2.5,43.15-33.41,33.44-46.78s-30.25-5.85-41.9,3.34-76.69,83.54-76.69,83.54-45.6-104.14-80.37-133.38-66.46-17-66.46-17-29.74,5-25,30.91S1608.1,673,1608.1,673c51.86,30.91,94.25,138.6,94.25,138.6s-54.5,56-139.68,116.14c-49,34.57-115.26,55.6-162.79,67.23s-94.44,14.08-137.4,6c-95.59-18-100.15-70.92-98.73-92.83,7.42-114.5-51.66-129.9-51.66-129.9a293.51,293.51,0,0,0,56.06-19c28.67-15,46.12-33.38,56.62-51.29,29.77-50.79,10.61-104.09-40.81-109.9l-1.29-.14c-43.44-4.25-100.71,30.21-100.71,30.21l-3.41-20.13c-.94-5.56-6.65-8.17-12.88-5.91-9.46,3.44-23.13,8.33-33.7,11.77-18,5.84-15.42,15.87-15.42,15.87,38.21,86.5-27.93,228.39-50.9,270.15-4.31,7.83-2.81,16.13,3.59,19.64,11.25,6.16,28.68,13.57,40.15,8.26,18.12-8.4,40.52-115.29,40.52-115.29,72.36-17.55,62.5,111.16,62.5,111.16s-3.42,131.24,215.73,127.06c144.4-2.75,290.83-112.53,385.78-201,2.08-1.94,13.71,75.61,29.1,79C1804.18,941.94,1805,922.08,1802.92,918.55ZM1063.81,753.62l15.82-86.69s87.22-53,109.85-20.16c20.15,29.24-10.06,70.57-34.32,83.25C1139.6,738.15,1113.54,751.93,1063.81,753.62Z" />
        </clipPath>
        <clipPath id="clip-path-5">
            <path id="mascara-5" data-name="mascara" class="cls-2"
                d="M1242.68,830.18l-1.12,3.5q-6.75,25.23,5.17,40.51,12.4,16.21,41.14,16.21,26.14,0,52.81-15.65c3.35-2,6.13-3,8.34-3q6.81,0,8.49,6.81l2.21,10.32a17.89,17.89,0,0,1-.47,7.92q-1.12,4.23-6.11,8.74a57.65,57.65,0,0,1-12.05,8.2,97.28,97.28,0,0,1-15.82,6.44,178.56,178.56,0,0,1-17.71,4.61,180.62,180.62,0,0,1-36.35,3.68,90.7,90.7,0,0,1-35.23-7,62.66,62.66,0,0,1-26.84-20.44q-21.63-28.55-8.61-77.16,22.85-85.26,88.46-106.07a133.88,133.88,0,0,1,40.31-6.45q19.79,0,32.56,4.24t20.68,12.52q16.67,17.51,8.28,48.8-8.23,30.76-37.62,47-25.73,14.19-61.63,14.18Q1269.47,838.1,1242.68,830.18Zm105-53.77q7-26.34-28.3-26.33-33.7,0-53.76,24.67a76.6,76.6,0,0,0-12,21.36q13.71,7.92,38.2,7.92C1323.52,804,1342.76,794.82,1347.7,776.41Z" />
        </clipPath>
        <clipPath id="clip-path-6">
            <path id="mascara-6" data-name="mascara" class="cls-1"
                d="M1441.72,878.05q-3.51,13.08,5.7,13.07a27.5,27.5,0,0,0,8-1.65q9.31-3.13,11.16-3.13,4.23,0,5.19,5.34l2.21,13.07a13.17,13.17,0,0,1-.28,5.16q-1.12,4.23-9.76,10.31-17.1,11.6-39.75,11.6-41.27,0-26.5-55.06L1468,614.16a17.15,17.15,0,0,1,5.22-8.47q3.88-3.5,7.94-3.5h24.67a6.3,6.3,0,0,1,6.06,3.5c1.22,2.33,1.38,5.15.5,8.47Z" />
        </clipPath>
    </defs>
    <g id="Paperelix">
        <g id="tool">
            <path id="cuerpo" class="cls-3"
                d="M435.77,382.7S388.18,377.37,367,422l-199.85,484a18.71,18.71,0,0,0,33.78,16L448.89,460.82C470.05,416.15,435.77,382.7,435.77,382.7Z" />
            <line id="aguja" class="cls-4" x1="435.77" y1="382.7" x2="566.36" y2="106.48" />
        </g>
        <g id="curva">
            <g class="cls-5">
                <path id="base" class="cls-2"
                    d="M201.34,116c-114,141.2-88.27,297.06-7.16,403.19,68.27,89.34,181.22,140.41,229,147.92,158.66,24.93,254.33-34.65,311.06-104.08,64.32-78.73,89.7-183.42,67.07-282.54-40.54-177.61-84-169.67-146.71-209.82C501.94-27.12,382.12,64.23,354,116c-28.63,52.78-30.76,96.17-22.23,129.79,12.26,48.33,50,85.89,97.62,100.63,133.18,41.24,175.11-70.58,175.11-70.58s31-90.66-23.86-133.6c-55.86-43.72-114.51,0-114.51,0s90.66-4.77,107.36,54.87c6.26,22.37,1.45,41.72-7,57.16-16.88,30.84-50.25,48.7-85.39,48.08-26-.46-57.6-9-80.54-41.21-32.59-45.72-24.93-109.34,17-146.65,30.72-27.33,80.87-47.22,160.69-24.74C747.68,137.5,754.84,314.05,754.84,314.05s2.82,13,3.25,33.92C761.24,501,628.18,620.81,476,605.16,371.55,594.43,201.08,550.43,165.55,357,144.08,240.09,201.34,116,201.34,116Z" />
                <path id="sombra_03" class="cls-6"
                    d="M491.87,302s107.89,16.84,119.82-138.24L552,104.1,423.21,144.66Z" />
                <path id="sombra_02" class="cls-6"
                    d="M383.71,224.7s-31.79-63.41,27.12-165.37,319-56.63,319-56.63l33.41,152.69s37.41,129.53-13.51,262.79L663,174.48,567.55,88.59l-136,38.17Z" />
                <path id="sombra_01" class="cls-6"
                    d="M202.92,458.49S116.64,377.27,78.47,219.81s167-174.16,167-174.16Z" />
            </g>
        </g>
        <g id="a">
            <g class="cls-7">
                <path id="base-2" data-name="base" class="cls-2"
                    d="M618.94,725s-16.66-49.3-99.29,44.08c-2.27-30.07-16.82-60.53-78.81-57.62-89.38,4.21-117.76,102-117.76,102S285.31,924.82,380.84,929c34.42,1.52,63.08-18.42,83.92-36-5.28,22-8.92,36-8.92,36h35.89s15.72-55.13,22.45-94.57C558,755.57,618.94,725,618.94,725ZM396.44,891.31c-32.64,0-50.49-32.08-39.89-71.66S402.21,748,434.84,748s50.49,32.09,39.88,71.66S429.07,891.31,396.44,891.31Z" />
                <path id="sombra_02-2" data-name="sombra_02" class="cls-6"
                    d="M514.18,834.45s-27.1,41-49.42,58.56l-9.29,36h37.72S513.64,864.62,514.18,834.45Z" />
                <path id="sombra_01-2" data-name="sombra_01" class="cls-6"
                    d="M519.63,769.37s-24.7,29.82-54.59,74c0,0-28.9,54.93-77.75,47,0,0-77.26-5.11-66-65.72C346.66,687.65,523.52,675.08,519.63,769.37Z" />
            </g>
        </g>
        <path id="p" class="cls-6"
            d="M586,894.45q-3.09,18.4-10.49,46l-20.38,76.06q-3.65,13.62-14.52,13.63H517.75q-11.61,0-7.75-14.37l54.62-203.86q13.86-51.74,14.71-75.5a31.34,31.34,0,0,1,1.22-6.63,16.53,16.53,0,0,1,15.16-11.23H607q10.13,0,12,8.84,2.2,10.32.4,26.7,18.9-22.47,43.95-32.78a98.45,98.45,0,0,1,38-7.37q20.16,0,33.91,7.83a50.3,50.3,0,0,1,20.58,21.46q13.56,27.06,1.37,72.55-12.74,47.52-44.9,80.29-34,34.81-74,34.81Q596.65,930.91,586,894.45Zm15.13-65.38q-7.11,26.52,5.44,45.67,11.91,18,33.1,18,26.7,0,46.55-26Q702,846.2,710.47,814.71q6.81-25.43-.61-43.1-8-19.14-29.68-19.15-24.48,0-47.23,20.26-22.08,19.89-29.14,46.22Z" />
        <g id="e">
            <g class="cls-8">
                <path id="base-3" data-name="base" class="cls-6"
                    d="M823.57,830.18l-1.12,3.5q-6.76,25.23,5.16,40.51Q840,890.41,868.75,890.4q26.16,0,52.82-15.65c3.34-2,6.13-3,8.33-3q6.81,0,8.49,6.81l2.21,10.32a18,18,0,0,1-.46,7.92q-1.14,4.23-6.12,8.74a57.65,57.65,0,0,1-12,8.2,97.28,97.28,0,0,1-15.82,6.44,178.56,178.56,0,0,1-17.71,4.61,180.62,180.62,0,0,1-36.35,3.68,90.73,90.73,0,0,1-35.23-7A62.66,62.66,0,0,1,790,901.08q-21.63-28.55-8.6-77.16,22.85-85.26,88.45-106.07a133.93,133.93,0,0,1,40.31-6.45q19.79,0,32.56,4.24t20.68,12.52q16.68,17.51,8.29,48.8-8.25,30.76-37.63,47-25.73,14.19-61.62,14.18Q850.35,838.1,823.57,830.18Zm105-53.77q7-26.34-28.3-26.33-33.71,0-53.76,24.67a76.6,76.6,0,0,0-12,21.36q13.71,7.92,38.2,7.92Q921.18,804,928.58,776.41Z" />
                <g id="luz_02">
                    <path class="cls-2"
                        d="M911.74,876.76s-15.92,16.15-58.84,16.44c-45.82.32-76.28-39.82-76.28-39.82s-8.32,39.44,20.72,60.67c46.34,33.9,125.85,10.25,140.55-11.52,7.81-11.58,1.2-25.48-.92-28.82C931.86,865.68,911.74,876.76,911.74,876.76Z" />
                </g>
                <g id="luz_01">
                    <path class="cls-2"
                        d="M911.91,796.38s39.26-19.33,16.63-84.79c0,0,40.92.61,45.87,40.34s-32.35,69-32.35,69S903.54,859,823.57,830.18c0,0-29.71-23.93-25-51.73C798.6,778.45,848.75,817.8,911.91,796.38Z" />
                </g>
            </g>
        </g>
        <g id="rx">
            <g class="cls-9">
                <path id="base-4" data-name="base" class="cls-2"
                    d="M1802.92,918.55c-28.1-47.89-57.05-99.74-51.69-105.12,44.18-44.3,68.13-74.48,68.13-74.48,33.3-2.5,43.15-33.41,33.44-46.78s-30.25-5.85-41.9,3.34-76.69,83.54-76.69,83.54-45.6-104.14-80.37-133.38-66.46-17-66.46-17-29.74,5-25,30.91S1608.1,673,1608.1,673c51.86,30.91,94.25,138.6,94.25,138.6s-54.5,56-139.68,116.14c-48.3,34.11-113.5,55-160.89,66.76-47.82,11.84-95.27,14.63-138.6,6.61-96.27-17.83-100.86-71-99.43-93,7.42-114.5-51.66-129.9-51.66-129.9a293.51,293.51,0,0,0,56.06-19c87.45-45.77,70.49-122.84,70.49-122.84s-12.54-34.25-56-38.49-95,25.13-95,25.13l3.58-13.37c1.08-13.37-14.41-11.69-14.41-11.69s-26.91,10-44.88,15.87-15.42,15.87-15.42,15.87c38.21,86.5-27.93,228.39-50.9,270.15-4.31,7.83-2.81,16.13,3.59,19.64,11.25,6.16,28.68,13.57,40.15,8.26,18.12-8.4,40.52-115.29,40.52-115.29,72.36-17.55,62.5,111.16,62.5,111.16s-3.42,131.24,215.73,127.06c144.4-2.75,290.83-112.53,385.78-201,2.08-1.94,13.71,75.61,29.1,79C1804.18,941.94,1805,922.08,1802.92,918.55ZM1063.81,753.62l15.82-86.69s87.22-53,109.85-20.16c20.15,29.24-10.06,70.57-34.32,83.25C1139.6,738.15,1113.54,751.93,1063.81,753.62Z" />
                <path id="sombra_02-3" data-name="sombra_02" class="cls-6"
                    d="M1702.35,811.56s-159.2,178.26-370,185.72-151.08-147.13-151.08-147.13-59.73,151.73,50.09,191.41c117.75,42.54,245.44-27,245.44-27S1607,938.08,1702.35,811.56Z" />
                <path id="sombra_01-3" data-name="sombra_01" class="cls-6"
                    d="M1079.63,666.93s6.92-46.84-2.78-69,28.09,0,28.09,0,85-32.63,105.87-9.86-18.24,106.72-30.17,119.55S1079.63,666.93,1079.63,666.93Z" />
            </g>
        </g>
        <g id="e-2" data-name="e">
            <path id="mascara-7" data-name="mascara" class="cls-2"
                d="M1242.68,830.18l-1.12,3.5q-6.75,25.23,5.17,40.51,12.4,16.21,41.14,16.21,26.14,0,52.81-15.65c3.35-2,6.13-3,8.34-3q6.81,0,8.49,6.81l2.21,10.32a17.89,17.89,0,0,1-.47,7.92q-1.12,4.23-6.11,8.74a57.65,57.65,0,0,1-12.05,8.2,97.28,97.28,0,0,1-15.82,6.44,178.56,178.56,0,0,1-17.71,4.61,180.62,180.62,0,0,1-36.35,3.68,90.7,90.7,0,0,1-35.23-7,62.66,62.66,0,0,1-26.84-20.44q-21.63-28.55-8.61-77.16,22.85-85.26,88.46-106.07a133.88,133.88,0,0,1,40.31-6.45q19.79,0,32.56,4.24t20.68,12.52q16.67,17.51,8.28,48.8-8.23,30.76-37.62,47-25.73,14.19-61.63,14.18Q1269.47,838.1,1242.68,830.18Zm105-53.77q7-26.34-28.3-26.33-33.7,0-53.76,24.67a76.6,76.6,0,0,0-12,21.36q13.71,7.92,38.2,7.92C1323.52,804,1342.76,794.82,1347.7,776.41Z" />
            <g class="cls-10">
                <path id="base-5" data-name="base" class="cls-6"
                    d="M1242.68,830.18l-1.12,3.5q-6.75,25.23,5.17,40.51,12.4,16.21,41.14,16.21,26.14,0,52.81-15.65c3.35-2,6.13-3,8.34-3q6.81,0,8.49,6.81l2.21,10.32a17.89,17.89,0,0,1-.47,7.92q-1.12,4.23-6.11,8.74a57.65,57.65,0,0,1-12.05,8.2,97.28,97.28,0,0,1-15.82,6.44,178.56,178.56,0,0,1-17.71,4.61,180.62,180.62,0,0,1-36.35,3.68,90.7,90.7,0,0,1-35.23-7,62.66,62.66,0,0,1-26.84-20.44q-21.63-28.55-8.61-77.16,22.85-85.26,88.46-106.07a133.88,133.88,0,0,1,40.31-6.45q19.79,0,32.56,4.24t20.68,12.52q16.67,17.51,8.28,48.8-8.23,30.76-37.62,47-25.73,14.19-61.63,14.18Q1269.47,838.1,1242.68,830.18Zm105-53.77q7-26.34-28.3-26.33-33.7,0-53.76,24.67a76.6,76.6,0,0,0-12,21.36q13.71,7.92,38.2,7.92Q1340.3,804,1347.7,776.41Z" />
                <g id="luz_02-2" data-name="luz_02">
                    <path class="cls-2"
                        d="M1330.86,876.76s-15.92,16.15-58.84,16.44c-45.82.32-76.29-39.82-76.29-39.82s-8.31,39.44,20.72,60.67C1262.8,948,1342.31,924.3,1357,902.53c7.81-11.58,1.2-25.48-.92-28.82C1351,865.68,1330.86,876.76,1330.86,876.76Z" />
                </g>
                <g id="luz_01-2" data-name="luz_01">
                    <path class="cls-2"
                        d="M1331,796.38s39.26-19.33,16.63-84.79c0,0,40.92.61,45.87,40.34s-32.35,69-32.35,69-38.52,38.05-118.5,9.27c0,0-29.7-23.93-25-51.73C1217.71,778.45,1267.87,817.8,1331,796.38Z" />
                </g>
            </g>
        </g>
        <g id="l">
            <g class="cls-11">
                <path id="base-6" data-name="base" class="cls-2"
                    d="M1441.72,878.05q-3.51,13.08,5.7,13.07a27.5,27.5,0,0,0,8-1.65q9.31-3.13,11.16-3.13,4.23,0,5.19,5.34l2.21,13.07a13.17,13.17,0,0,1-.28,5.16q-1.12,4.23-9.76,10.31-17.1,11.6-39.75,11.6-41.27,0-26.5-55.06L1468,614.16a17.15,17.15,0,0,1,5.22-8.47q3.88-3.5,7.94-3.5h24.67a6.3,6.3,0,0,1,6.06,3.5c1.22,2.33,1.38,5.15.5,8.47Z" />
                <path id="sombra" class="cls-6"
                    d="M1441,881.2s-13.89,44.07,10.29,45.71l36.16-10.29,7.48-58.31Z" />
            </g>
        </g>
        <path id="i" class="cls-2"
            d="M1559,878.05c-2.33,8.72-11.13,46.47-26.8,50.64-5.61,1.49-20.55,2.23-23-2.07-4.75-8.84.4-30,5.73-49.86l38.49-143.64a17.54,17.54,0,0,1,5.26-8.66q3.88-3.5,7.94-3.49h24.67a6.29,6.29,0,0,1,6.06,3.49q1.83,3.51.45,8.66Z" />
    </g>
</svg>