<svg id="Capa_2" data-name="Capa 2" xmlns="http://www.w3.org/2000/svg"
    xmlns:xlink="http://www.w3.org/1999/xlink" viewBox="0 0 1920 1080">
    <defs>
        <style>
            .cls-1,.cls-3{fill:none;}.cls-2{fill:#00b6e0;}.cls-3{stroke:#00b6e0;stroke-linecap:round;stroke-linejoin:round;stroke-width:3px;}.cls-4{clip-path:url(#clip-path);}.cls-5{fill:#0decff;}.cls-6{clip-path:url(#clip-path-2);}.cls-7{clip-path:url(#clip-path-3);}.cls-8{clip-path:url(#clip-path-4);}.cls-9{clip-path:url(#clip-path-5);}.cls-10{clip-path:url(#clip-path-6);}</style>
        <clipPath id="clip-path">
            <path id="mascara" class="cls-1"
                d="M192.37,118.36c-114,141.2-88.27,297.06-7.15,403.19,68.27,89.33,181.22,140.41,229,147.92C572.9,694.4,668.58,634.82,725.31,565.39c64.32-78.73,87.59-183,67.07-282.54-23.84-115.72-70-180.51-139.18-218.68-158.77-87.6-280,2.39-308.14,54.19-28.63,52.78-30.75,96.17-22.22,129.79,12.25,48.33,50,85.89,97.61,100.63C553.64,390,595.57,278.2,595.57,278.2s31-90.66-23.86-133.6c-55.86-43.72-114.52,0-114.52,0s90.66-4.77,107.36,54.87c6.27,22.37,1.46,41.72-7,57.16-16.88,30.84-50.25,48.7-85.4,48.08-26-.46-57.6-9-80.54-41.21-32.59-45.72-24.93-109.34,17-146.65,30.73-27.33,80.88-47.22,160.69-24.74,169.39,47.72,176.55,224.27,176.55,224.27s2.83,12.95,3.26,33.92c3.15,153-129.92,272.84-282.14,257.19-104.41-10.73-274.87-54.73-310.4-248.17C135.11,242.42,192.37,118.36,192.37,118.36Z" />
        </clipPath>
        <clipPath id="clip-path-2">
            <path id="mascara-2" data-name="mascara" class="cls-1"
                d="M609.16,726.85s-16.67-49.3-99.3,44.08c-2.27-30.07-16.81-60.53-78.81-57.61-89.37,4.2-117.75,102-117.75,102s-37.78,111.36,57.75,115.57c34.42,1.51,63.09-18.43,83.93-36-2.81,11.69-5.16,21.14-6.74,27.42-1.2,4.78,1.67,8.6,6.45,8.6h18.59c4.82,0,9.77-3.88,11.08-8.7,4.67-17.08,14.94-56,20-85.88C548.22,757.39,609.16,726.85,609.16,726.85ZM386.65,893.13c-32.63,0-50.49-32.08-39.88-71.66s45.65-71.65,78.28-71.65,50.49,32.08,39.89,71.65S419.28,893.13,386.65,893.13Z" />
        </clipPath>
        <clipPath id="clip-path-3">
            <path id="mascara-3" data-name="mascara" class="cls-1"
                d="M813.78,832l-1.12,3.5q-6.76,25.23,5.17,40.52,12.4,16.2,41.14,16.2,26.14,0,52.81-15.65c3.35-2,6.13-3,8.34-3q6.81,0,8.49,6.82l2.21,10.31a18,18,0,0,1-.47,7.92c-.75,2.82-2.8,5.74-6.12,8.74a57.57,57.57,0,0,1-12,8.2,97.65,97.65,0,0,1-15.82,6.44,175.84,175.84,0,0,1-17.71,4.61,180.62,180.62,0,0,1-36.35,3.68,90.7,90.7,0,0,1-35.23-7,62.58,62.58,0,0,1-26.84-20.44q-21.63-28.54-8.61-77.16,22.85-85.26,88.46-106.07a133.88,133.88,0,0,1,40.31-6.45q19.79,0,32.56,4.24T953.64,730q16.67,17.5,8.28,48.8-8.24,30.76-37.62,47-25.72,14.19-61.63,14.18Q840.58,839.92,813.78,832Zm105-53.77q7.07-26.33-28.3-26.33-33.69,0-53.75,24.67a76.76,76.76,0,0,0-12,21.36q13.72,7.92,38.21,7.92C894.62,805.85,913.86,796.65,918.79,778.23Z" />
        </clipPath>
        <clipPath id="clip-path-4">
            <path id="mascara-4" data-name="mascara" class="cls-1"
                d="M1793.13,920.37c-28.1-47.89-57.05-99.74-51.68-105.12,44.18-44.3,68.12-74.48,68.12-74.48,33.3-2.5,43.15-33.41,33.44-46.78s-30.25-5.85-41.9,3.34-76.68,83.54-76.68,83.54-45.61-104.14-80.38-133.38-66.45-17-66.45-17-29.75,5-25,30.91,45.7,13.37,45.7,13.37c51.87,30.91,94.26,138.6,94.26,138.6s-54.51,56-139.68,116.14c-49,34.57-115.26,55.6-162.79,67.23s-94.45,14.08-137.4,6c-95.59-18-100.16-70.92-98.74-92.83,7.42-114.5-51.65-129.9-51.65-129.9a294.2,294.2,0,0,0,56.06-19c28.67-15,46.12-33.39,56.62-51.3,29.77-50.79,10.61-104.09-40.81-109.9l-1.3-.14c-43.43-4.24-100.71,30.21-100.71,30.21l-3.4-20.13c-1-5.56-6.65-8.17-12.89-5.91-9.46,3.44-23.12,8.33-33.69,11.77-18,5.85-15.42,15.87-15.42,15.87,38.21,86.5-27.94,228.4-50.91,270.15-4.31,7.83-2.8,16.13,3.6,19.64,11.25,6.16,28.67,13.57,40.14,8.26,18.12-8.4,40.53-115.29,40.53-115.29,72.36-17.54,62.49,111.16,62.49,111.16s-3.41,131.24,215.74,127.06c144.4-2.75,290.83-112.53,385.77-201,2.08-1.94,13.71,75.61,29.1,79C1794.39,943.77,1795.2,923.9,1793.13,920.37ZM1054,755.45l15.82-86.69s87.21-53,109.85-20.17c20.15,29.24-10.06,70.57-34.32,83.25C1129.82,740,1103.76,753.75,1054,755.45Z" />
        </clipPath>
        <clipPath id="clip-path-5">
            <path id="mascara-5" data-name="mascara" class="cls-1"
                d="M1232.9,832l-1.12,3.5q-6.77,25.23,5.16,40.52,12.42,16.2,41.15,16.2,26.15,0,52.81-15.65c3.35-2,6.13-3,8.34-3q6.81,0,8.49,6.82l2.2,10.31a17.87,17.87,0,0,1-.46,7.92q-1.14,4.23-6.12,8.74a57.39,57.39,0,0,1-12,8.2,97.53,97.53,0,0,1-15.81,6.44,176,176,0,0,1-17.72,4.61,180.52,180.52,0,0,1-36.34,3.68,90.7,90.7,0,0,1-35.23-7,62.52,62.52,0,0,1-26.84-20.44q-21.64-28.54-8.61-77.16,22.85-85.26,88.46-106.07a133.82,133.82,0,0,1,40.3-6.45q19.8,0,32.57,4.24T1372.75,730q16.68,17.5,8.29,48.8-8.24,30.76-37.63,47-25.71,14.19-61.62,14.18Q1259.7,839.92,1232.9,832Zm105-53.77q7.06-26.33-28.3-26.33-33.7,0-53.75,24.67a76.51,76.51,0,0,0-12,21.36q13.71,7.92,38.21,7.92C1313.74,805.85,1333,796.65,1337.91,778.23Z" />
        </clipPath>
        <clipPath id="clip-path-6">
            <path id="mascara-6" data-name="mascara" class="cls-1"
                d="M1431.93,879.87q-3.5,13.08,5.71,13.07a27.5,27.5,0,0,0,8-1.65q9.3-3.13,11.15-3.13,4.24,0,5.2,5.34l2.21,13.07a13.17,13.17,0,0,1-.28,5.16q-1.14,4.23-9.76,10.31-17.1,11.6-39.76,11.6-41.25,0-26.49-55.06L1458.26,616a17.15,17.15,0,0,1,5.22-8.47c2.58-2.33,5.23-3.5,7.93-3.5h24.68a6.32,6.32,0,0,1,6.06,3.5q1.83,3.5.49,8.47Z" />
        </clipPath>
    </defs>
    <g id="Paperelix">
        <g id="tool">
            <path id="cuerpo" class="cls-2"
                d="M426,384.52s-47.6-5.33-68.76,39.34l-199.84,484a18.71,18.71,0,0,0,33.77,16l248-461.26C460.26,418,426,384.52,426,384.52Z" />
            <line id="aguja" class="cls-3" x1="425.99" y1="384.52" x2="556.58" y2="108.31" />
        </g>
        <g id="curva">
            <g class="cls-4">
                <path id="base" class="cls-5"
                    d="M191.55,117.85c-114,141.2-88.27,297.06-7.15,403.19,68.27,89.34,181.22,140.41,229,147.92,158.65,24.93,254.33-34.65,311.06-104.08,64.32-78.73,89.7-183.42,67.07-282.54C751,104.73,707.53,112.68,644.85,72.52,492.16-25.3,372.34,66.05,344.24,117.85,315.61,170.63,313.49,214,322,247.64c12.25,48.33,50,85.89,97.61,100.63,133.19,41.24,175.12-70.58,175.12-70.58s31-90.65-23.86-133.6c-55.86-43.72-114.52,0-114.52,0S547,139.32,563.73,199c6.27,22.37,1.46,41.72-7,57.16-16.88,30.84-50.25,48.7-85.4,48.08-26-.46-57.6-9-80.54-41.21-32.59-45.72-24.93-109.34,17-146.65C438.54,89,488.69,69.12,568.5,91.6c169.39,47.72,176.55,224.27,176.55,224.27s2.83,13,3.26,33.92c3.15,153-129.92,272.84-282.14,257.19-104.41-10.73-274.87-54.73-310.4-248.17C134.29,241.91,191.55,117.85,191.55,117.85Z" />
                <path id="sombra_03" class="cls-2"
                    d="M482.09,303.8S590,320.64,601.91,165.56l-59.65-59.64L413.43,146.48Z" />
                <path id="sombra_02" class="cls-2"
                    d="M373.93,226.52S342.14,163.11,401,61.15,720,4.52,720,4.52l33.4,152.69S790.81,286.75,739.9,420L653.2,176.3,557.77,90.41l-136,38.17Z" />
                <path id="sombra_01" class="cls-2"
                    d="M193.14,460.31S106.86,379.09,68.69,221.63s167-174.16,167-174.16Z" />
            </g>
        </g>
        <path id="p" class="cls-2"
            d="M576.19,896.27q-3.09,18.4-10.49,46l-20.38,76.06Q541.66,1032,530.8,1032H508q-11.61,0-7.76-14.37l54.63-203.86q13.86-51.74,14.7-75.5a32.16,32.16,0,0,1,1.23-6.63,16.53,16.53,0,0,1,15.16-11.23h11.23q10.13,0,12,8.84,2.21,10.32.39,26.7,18.91-22.47,44-32.78a98.37,98.37,0,0,1,38-7.36q20.16,0,33.9,7.82A50.33,50.33,0,0,1,746,745.08q13.54,27.06,1.36,72.55-12.72,47.52-44.9,80.29-34,34.82-74,34.81Q586.86,932.73,576.19,896.27Zm15.12-65.38q-7.09,26.52,5.44,45.67,11.93,18,33.1,18.05,26.7,0,46.55-26,15.84-20.62,24.28-52.11,6.81-25.41-.61-43.09-7.94-19.16-29.67-19.16-24.49,0-47.23,20.26Q601.08,794.43,594,820.76Z" />
        <g id="a">
            <g class="cls-6">
                <path id="base-2" data-name="base" class="cls-5"
                    d="M609.16,726.85s-16.67-49.3-99.3,44.08c-2.27-30.07-16.81-60.53-78.81-57.61-89.37,4.2-117.75,102-117.75,102s-37.78,111.36,57.75,115.57c34.42,1.51,63.09-18.43,83.93-36-5.28,22-8.93,36-8.93,36H482s15.71-55.14,22.45-94.58C548.22,757.39,609.16,726.85,609.16,726.85ZM386.65,893.13c-32.63,0-50.49-32.08-39.88-71.66s45.65-71.65,78.28-71.65,50.49,32.08,39.89,71.65S419.28,893.13,386.65,893.13Z" />
                <path id="sombra_02-2" data-name="sombra_02" class="cls-2"
                    d="M504.4,836.27s-27.1,41-49.42,58.56l-9.29,36H483.4S503.86,866.44,504.4,836.27Z" />
                <path id="sombra_01-2" data-name="sombra_01" class="cls-2"
                    d="M509.36,771.32s-24.7,29.82-54.58,74c0,0-28.53,51.07-77.75,47,0,0-77.27-5.12-66-65.72C336.4,689.61,513.26,677,509.36,771.32Z" />
            </g>
        </g>
        <g id="e">
            <g class="cls-7">
                <path id="base-3" data-name="base" class="cls-2"
                    d="M813.78,832l-1.12,3.5q-6.76,25.23,5.17,40.52,12.4,16.2,41.14,16.2,26.14,0,52.81-15.65c3.35-2,6.13-3,8.34-3q6.81,0,8.49,6.82l2.21,10.31a18,18,0,0,1-.47,7.92c-.75,2.82-2.8,5.74-6.12,8.74a57.57,57.57,0,0,1-12,8.2,97.65,97.65,0,0,1-15.82,6.44,175.84,175.84,0,0,1-17.71,4.61,180.62,180.62,0,0,1-36.35,3.68,90.7,90.7,0,0,1-35.23-7,62.58,62.58,0,0,1-26.84-20.44q-21.63-28.54-8.61-77.16,22.85-85.26,88.46-106.07a133.88,133.88,0,0,1,40.31-6.45q19.79,0,32.56,4.24T953.64,730q16.67,17.5,8.28,48.8-8.24,30.76-37.62,47-25.72,14.19-61.63,14.18Q840.58,839.92,813.78,832Zm105-53.77q7.07-26.33-28.3-26.33-33.69,0-53.75,24.67a76.76,76.76,0,0,0-12,21.36q13.72,7.92,38.21,7.92Q911.4,805.85,918.79,778.23Z" />
                <g id="luz_02">
                    <path class="cls-5"
                        d="M902,878.58S886,894.73,843.12,895c-45.82.32-76.29-39.82-76.29-39.82s-8.31,39.44,20.72,60.67c46.35,33.9,125.86,10.25,140.56-11.52,7.81-11.58,1.2-25.48-.93-28.82C922.07,867.5,902,878.58,902,878.58Z" />
                </g>
                <g id="luz_01">
                    <path class="cls-5"
                        d="M902.13,798.2s39.26-19.33,16.63-84.79c0,0,40.92.61,45.87,40.34s-32.35,69-32.35,69-38.52,38-118.5,9.27c0,0-29.7-23.93-25-51.73C788.81,780.27,839,819.62,902.13,798.2Z" />
                </g>
            </g>
        </g>
        <g id="rx">
            <g class="cls-8">
                <path id="base-4" data-name="base" class="cls-5"
                    d="M1793.13,920.37c-28.1-47.89-57.05-99.74-51.68-105.12,44.18-44.3,68.12-74.48,68.12-74.48,33.3-2.5,43.15-33.41,33.44-46.78s-30.25-5.85-41.9,3.34-76.68,83.54-76.68,83.54-45.61-104.14-80.38-133.38-66.45-17-66.45-17-29.75,5-25,30.91,45.7,13.37,45.7,13.37c51.87,30.91,94.26,138.6,94.26,138.6s-54.51,56-139.68,116.14c-48.31,34.11-113.51,55-160.89,66.77-47.82,11.83-95.27,14.63-138.61,6.6-96.26-17.83-100.85-71-99.43-93,7.42-114.5-51.65-129.9-51.65-129.9a294.2,294.2,0,0,0,56.06-19c87.44-45.78,70.49-122.85,70.49-122.85s-12.55-34.25-56-38.49-95,25.13-95,25.13l3.58-13.37c1.07-13.37-14.41-11.69-14.41-11.69s-26.91,10-44.88,15.87-15.42,15.87-15.42,15.87c38.21,86.5-27.94,228.4-50.91,270.15-4.31,7.83-2.8,16.13,3.6,19.64,11.25,6.16,28.67,13.57,40.14,8.26,18.12-8.4,40.53-115.29,40.53-115.29,72.36-17.54,62.49,111.16,62.49,111.16s-3.41,131.24,215.74,127.06c144.4-2.75,290.83-112.53,385.77-201,2.08-1.94,13.71,75.61,29.1,79C1794.39,943.77,1795.2,923.9,1793.13,920.37ZM1054,755.45l15.82-86.69s87.21-53,109.85-20.17c20.15,29.24-10.06,70.57-34.32,83.25C1129.82,740,1103.76,753.75,1054,755.45Z" />
                <path id="sombra_02-3" data-name="sombra_02" class="cls-2"
                    d="M1692.57,813.38s-159.2,178.26-370,185.72S1171.48,852,1171.48,852s-59.73,151.73,50.09,191.41c117.75,42.54,245.44-27,245.44-27S1597.24,939.9,1692.57,813.38Z" />
                <path id="sombra_01-3" data-name="sombra_01" class="cls-2"
                    d="M1069.85,668.76s6.92-46.85-2.78-69,28.09,0,28.09,0,85-32.63,105.87-9.86-18.25,106.72-30.17,119.55S1069.85,668.76,1069.85,668.76Z" />
            </g>
        </g>
        <g id="e-2" data-name="e">
            <g class="cls-9">
                <path id="base-5" data-name="base" class="cls-2"
                    d="M1232.9,832l-1.12,3.5q-6.77,25.23,5.16,40.52,12.42,16.2,41.15,16.2,26.15,0,52.81-15.65c3.35-2,6.13-3,8.34-3q6.81,0,8.49,6.82l2.2,10.31a17.87,17.87,0,0,1-.46,7.92q-1.14,4.23-6.12,8.74a57.39,57.39,0,0,1-12,8.2,97.53,97.53,0,0,1-15.81,6.44,176,176,0,0,1-17.72,4.61,180.52,180.52,0,0,1-36.34,3.68,90.7,90.7,0,0,1-35.23-7,62.52,62.52,0,0,1-26.84-20.44q-21.64-28.54-8.61-77.16,22.85-85.26,88.46-106.07a133.82,133.82,0,0,1,40.3-6.45q19.8,0,32.57,4.24T1372.75,730q16.68,17.5,8.29,48.8-8.24,30.76-37.63,47-25.71,14.19-61.62,14.18Q1259.7,839.92,1232.9,832Zm105-53.77q7.06-26.33-28.3-26.33-33.7,0-53.75,24.67a76.51,76.51,0,0,0-12,21.36q13.71,7.92,38.21,7.92Q1330.52,805.85,1337.91,778.23Z" />
                <g id="luz_02-2" data-name="luz_02">
                    <path class="cls-5"
                        d="M1321.08,878.58s-15.92,16.15-58.84,16.44c-45.82.32-76.29-39.82-76.29-39.82s-8.31,39.44,20.72,60.67c46.34,33.9,125.86,10.25,140.56-11.52,7.81-11.58,1.2-25.48-.93-28.82C1341.19,867.5,1321.08,878.58,1321.08,878.58Z" />
                </g>
                <g id="luz_01-2" data-name="luz_01">
                    <path class="cls-5"
                        d="M1321.24,798.2s39.27-19.33,16.63-84.79c0,0,40.93.61,45.88,40.34s-32.36,69-32.36,69-38.51,38-118.49,9.27c0,0-29.71-23.93-25-51.73C1207.93,780.27,1258.08,819.62,1321.24,798.2Z" />
                </g>
            </g>
        </g>
        <g id="l">
            <g class="cls-10">
                <path id="base-6" data-name="base" class="cls-5"
                    d="M1431.93,879.87q-3.5,13.08,5.71,13.07a27.5,27.5,0,0,0,8-1.65q9.3-3.13,11.15-3.13,4.24,0,5.2,5.34l2.21,13.07a13.17,13.17,0,0,1-.28,5.16q-1.14,4.23-9.76,10.31-17.1,11.6-39.76,11.6-41.25,0-26.49-55.06L1458.26,616a17.15,17.15,0,0,1,5.22-8.47c2.58-2.33,5.23-3.5,7.93-3.5h24.68a6.32,6.32,0,0,1,6.06,3.5q1.83,3.5.49,8.47Z" />
                <path id="sombra" class="cls-2"
                    d="M1431.24,883s-13.89,44.07,10.29,45.71l36.15-10.29,7.49-58.31Z" />
            </g>
        </g>
        <path id="i" class="cls-5"
            d="M1549.24,879.87c-2.34,8.72-11.13,46.47-26.8,50.64-5.61,1.49-20.56,2.23-23-2.07-4.75-8.84.41-30,5.73-49.86l38.49-143.64a17.49,17.49,0,0,1,5.27-8.65c2.58-2.33,5.23-3.5,7.93-3.5h24.68a6.32,6.32,0,0,1,6.06,3.5c1.22,2.33,1.36,5.22.44,8.65Z" />
    </g>
</svg>