<svg id="Capa_2" data-name="Capa 2"
    xmlns="http://www.w3.org/2000/svg"
    xmlns:xlink="http://www.w3.org/1999/xlink" viewBox="0 0 1920 1080">
    <defs>
        <style>.cls-1{fill:none;}.cls-1,.cls-10,.cls-2,.cls-3,.cls-5,.cls-8{stroke:#000;stroke-miterlimit:10;stroke-width:5px;}.cls-2,.cls-6{fill:#fff;}.cls-3{fill:#f39;}.cls-4{clip-path:url(#clip-path);}.cls-5{fill:#0c0c0c;}.cls-7{clip-path:url(#clip-path-2);}.cls-8{fill:#f56f1c;}.cls-9{clip-path:url(#clip-path-3);}.cls-10{fill:#30cef2;}.cls-11{clip-path:url(#clip-path-4);}.cls-12{clip-path:url(#clip-path-5);}.cls-13{clip-path:url(#clip-path-6);}</style>
        <clipPath id="clip-path">
            <path id="mascara" class="cls-1" d="M171.36,118.36c-114,141.2-88.27,297.06-7.16,403.19,68.27,89.33,181.22,140.41,229,147.92,158.66,24.93,254.33-34.65,311.06-104.08,64.32-78.73,87.59-183,67.07-282.54-23.84-115.72-70-180.51-139.18-218.68-158.77-87.6-280,2.39-308.14,54.19-28.62,52.78-30.75,96.17-22.22,129.79,12.26,48.33,50,85.89,97.61,100.63C532.62,390,574.55,278.2,574.55,278.2s31-90.66-23.86-133.6c-55.86-43.72-114.51,0-114.51,0s90.65-4.77,107.36,54.87c6.26,22.37,1.45,41.72-7,57.16-16.88,30.84-50.25,48.7-85.4,48.08-26-.46-57.6-9-80.54-41.21-32.59-45.72-24.92-109.34,17-146.65,30.72-27.33,80.87-47.22,160.69-24.74C717.7,139.83,724.85,316.38,724.85,316.38s2.83,12.95,3.26,33.92c3.15,153-129.92,272.84-282.14,257.19-104.4-10.73-274.87-54.73-310.4-248.17C114.1,242.42,171.36,118.36,171.36,118.36Z"/>
        </clipPath>
        <clipPath id="clip-path-2">
            <path id="mascara-2" data-name="mascara" class="cls-2" d="M588.14,726.85s-16.67-49.3-99.29,44.08C486.58,740.86,472,710.4,410,713.32c-89.37,4.2-117.75,102-117.75,102S254.5,926.64,350,930.85c34.42,1.51,63.09-18.43,83.93-36-2.81,11.69-5.16,21.14-6.74,27.42-1.2,4.78,1.67,8.6,6.45,8.6h18.59c4.82,0,9.77-3.88,11.09-8.7,4.67-17.08,14.93-56,20-85.88C527.2,757.39,588.14,726.85,588.14,726.85ZM365.63,893.13c-32.63,0-50.49-32.08-39.88-71.66S371.4,749.82,404,749.82s50.49,32.08,39.88,71.65S398.27,893.13,365.63,893.13Z"/>
        </clipPath>
        <clipPath id="clip-path-3">
            <path id="mascara-3" data-name="mascara" class="cls-2" d="M792.76,832l-1.12,3.5q-6.75,25.23,5.17,40.52,12.41,16.2,41.14,16.2,26.14,0,52.81-15.65c3.35-2,6.13-3,8.34-3q6.81,0,8.49,6.82l2.21,10.31a17.88,17.88,0,0,1-.47,7.92q-1.12,4.23-6.11,8.74a57.65,57.65,0,0,1-12.05,8.2,97.28,97.28,0,0,1-15.82,6.44,175.84,175.84,0,0,1-17.71,4.61,180.62,180.62,0,0,1-36.35,3.68,90.7,90.7,0,0,1-35.23-7,62.58,62.58,0,0,1-26.84-20.44q-21.63-28.54-8.61-77.16,22.85-85.26,88.46-106.07a133.88,133.88,0,0,1,40.31-6.45q19.79,0,32.56,4.24T932.62,730q16.67,17.5,8.28,48.8-8.24,30.76-37.62,47-25.72,14.19-61.63,14.18Q819.56,839.92,792.76,832Zm105-53.77q7.05-26.33-28.3-26.33-33.71,0-53.76,24.67a76.74,76.74,0,0,0-12,21.36q13.71,7.92,38.2,7.92C873.6,805.85,892.84,796.65,897.78,778.23Z"/>
        </clipPath>
        <clipPath id="clip-path-4">
            <path id="mascara-4" data-name="mascara" class="cls-2" d="M1772.12,920.37c-28.1-47.89-57-99.74-51.69-105.12,44.18-44.3,68.12-74.48,68.12-74.48,33.31-2.5,43.16-33.41,33.44-46.78s-30.25-5.85-41.9,3.34-76.68,83.54-76.68,83.54S1657.8,676.73,1623,647.49s-66.46-17-66.46-17-29.74,5-25,30.91,45.71,13.37,45.71,13.37c51.86,30.91,94.25,138.6,94.25,138.6s-54.51,56-139.68,116.14c-49,34.57-115.26,55.6-162.79,67.23s-94.45,14.08-137.4,6c-95.59-18-100.16-70.92-98.74-92.83,7.43-114.5-51.65-129.9-51.65-129.9a294.2,294.2,0,0,0,56.06-19c28.67-15,46.12-33.39,56.62-51.3,29.77-50.79,10.61-104.09-40.81-109.9l-1.3-.14c-43.43-4.24-100.7,30.21-100.7,30.21l-3.41-20.13c-.94-5.56-6.65-8.17-12.88-5.91-9.46,3.44-23.13,8.33-33.7,11.77-18,5.85-15.42,15.87-15.42,15.87,38.21,86.5-27.94,228.4-50.9,270.15-4.31,7.83-2.81,16.13,3.59,19.64,11.25,6.16,28.68,13.57,40.14,8.26,18.13-8.4,40.53-115.29,40.53-115.29,72.36-17.54,62.5,111.16,62.5,111.16s-3.42,131.24,215.73,127.06c144.4-2.75,290.83-112.53,385.78-201,2.07-1.94,13.7,75.61,29.09,79C1773.37,943.77,1774.18,923.9,1772.12,920.37ZM1033,755.45l15.82-86.69s87.22-53,109.85-20.17c20.15,29.24-10.06,70.57-34.32,83.25C1108.8,740,1082.74,753.75,1033,755.45Z"/>
        </clipPath>
        <clipPath id="clip-path-5">
            <path id="mascara-5" data-name="mascara" class="cls-2" d="M1211.88,832l-1.12,3.5q-6.77,25.23,5.17,40.52,12.4,16.2,41.14,16.2,26.15,0,52.81-15.65c3.35-2,6.13-3,8.34-3q6.81,0,8.49,6.82l2.21,10.31a18,18,0,0,1-.47,7.92c-.75,2.82-2.8,5.74-6.12,8.74a57.57,57.57,0,0,1-12,8.2,97.65,97.65,0,0,1-15.82,6.44,175.84,175.84,0,0,1-17.71,4.61,180.62,180.62,0,0,1-36.35,3.68,90.7,90.7,0,0,1-35.23-7,62.58,62.58,0,0,1-26.84-20.44q-21.63-28.54-8.61-77.16,22.85-85.26,88.46-106.07a133.88,133.88,0,0,1,40.31-6.45q19.79,0,32.56,4.24T1351.74,730q16.66,17.5,8.28,48.8-8.24,30.76-37.62,47-25.73,14.19-61.63,14.18Q1238.68,839.92,1211.88,832Zm105-53.77q7.06-26.33-28.3-26.33-33.69,0-53.75,24.67a76.76,76.76,0,0,0-12,21.36q13.73,7.92,38.21,7.92C1292.72,805.85,1312,796.65,1316.89,778.23Z"/>
        </clipPath>
        <clipPath id="clip-path-6">
            <path id="mascara-6" data-name="mascara" class="cls-1" d="M1410.91,879.87q-3.5,13.08,5.71,13.07a27.5,27.5,0,0,0,8-1.65q9.32-3.13,11.15-3.13,4.24,0,5.2,5.34l2.21,13.07a13.17,13.17,0,0,1-.28,5.16q-1.14,4.23-9.76,10.31-17.1,11.6-39.76,11.6-41.25,0-26.49-55.06L1437.24,616a17.15,17.15,0,0,1,5.22-8.47q3.88-3.5,7.93-3.5h24.68a6.32,6.32,0,0,1,6.06,3.5q1.83,3.5.49,8.47Z"/>
        </clipPath>
    </defs>
    <g id="Paperelix">
        <g id="tool">
            <path id="cuerpo" class="cls-3" d="M405,384.52s-47.6-5.33-68.76,39.34l-199.84,484a18.71,18.71,0,0,0,33.77,16l248-461.26C439.25,418,405,384.52,405,384.52Z"/>
            <line id="aguja" class="cls-2" x1="404.97" y1="384.52" x2="535.56" y2="108.31"/>
        </g>
        <g id="curva">
            <g class="cls-4">
                <path id="base" class="cls-3" d="M170.54,117.85c-114,141.2-88.27,297.06-7.16,403.19,68.27,89.34,181.22,140.41,229,147.92,158.66,24.93,254.33-34.65,311.06-104.08,64.32-78.73,89.7-183.42,67.07-282.54C730,104.73,686.51,112.68,623.83,72.52,471.14-25.3,351.32,66.05,323.22,117.85,294.6,170.63,292.47,214,301,247.64c12.26,48.33,50,85.89,97.61,100.63,133.19,41.24,175.12-70.58,175.12-70.58s31-90.65-23.86-133.6c-55.86-43.72-114.51,0-114.51,0S526,139.32,542.71,199c6.27,22.37,1.46,41.72-7,57.16-16.88,30.84-50.25,48.7-85.4,48.08-26-.46-57.6-9-80.54-41.21-32.59-45.72-24.93-109.34,17-146.65C417.52,89,467.67,69.12,547.49,91.6,716.88,139.32,724,315.87,724,315.87s2.83,13,3.26,33.92c3.15,153-129.92,272.84-282.14,257.19-104.4-10.73-274.87-54.73-310.4-248.17C113.28,241.91,170.54,117.85,170.54,117.85Z"/>
                <path id="sombra_03" class="cls-5" d="M461.07,303.8S569,320.64,580.89,165.56l-59.65-59.64L392.41,146.48Z"/>
                <path id="sombra_02" class="cls-5" d="M352.91,226.52S321.12,163.11,380,61.15,699,4.52,699,4.52l33.4,152.69S769.8,286.75,718.88,420l-86.7-243.7L536.75,90.41l-136,38.17Z"/>
                <path id="sombra_01" class="cls-5" d="M172.12,460.31S85.84,379.09,47.67,221.63s167-174.16,167-174.16Z"/>
                <line class="cls-1" x1="535.56" y1="108.31" x2="470.26" y2="246.41"/>
            </g>
            <path id="mascara-7" data-name="mascara" class="cls-1" d="M171.36,118.36c-114,141.2-88.27,297.06-7.16,403.19,68.27,89.33,181.22,140.41,229,147.92,158.66,24.93,254.33-34.65,311.06-104.08,64.32-78.73,87.59-183,67.07-282.54-23.84-115.72-70-180.51-139.18-218.68-158.77-87.6-280,2.39-308.14,54.19-28.62,52.78-30.75,96.17-22.22,129.79,12.26,48.33,50,85.89,97.61,100.63C532.62,390,574.55,278.2,574.55,278.2s31-90.66-23.86-133.6c-55.86-43.72-114.51,0-114.51,0s90.65-4.77,107.36,54.87c6.26,22.37,1.45,41.72-7,57.16-16.88,30.84-50.25,48.7-85.4,48.08-26-.46-57.6-9-80.54-41.21-32.59-45.72-24.92-109.34,17-146.65,30.72-27.33,80.87-47.22,160.69-24.74C717.7,139.83,724.85,316.38,724.85,316.38s2.83,12.95,3.26,33.92c3.15,153-129.92,272.84-282.14,257.19-104.4-10.73-274.87-54.73-310.4-248.17C114.1,242.42,171.36,118.36,171.36,118.36Z"/>
        </g>
        <path id="p" class="cls-5" d="M555.17,896.27q-3.09,18.4-10.49,46l-20.38,76.06Q520.64,1032,509.78,1032H487q-11.61,0-7.76-14.37l54.63-203.86q13.86-51.74,14.7-75.5a32.16,32.16,0,0,1,1.23-6.63,16.53,16.53,0,0,1,15.16-11.23h11.24q10.13,0,12,8.84,2.21,10.32.4,26.7,18.9-22.47,44-32.78a98.44,98.44,0,0,1,38-7.36q20.16,0,33.9,7.82A50.27,50.27,0,0,1,725,745.08q13.54,27.06,1.37,72.55-12.74,47.52-44.9,80.29-34,34.82-74,34.81Q565.84,932.73,555.17,896.27Zm15.13-65.38q-7.11,26.52,5.44,45.67,11.91,18,33.1,18.05,26.7,0,46.55-26,15.83-20.62,24.27-52.11,6.81-25.41-.6-43.09-7.95-19.16-29.68-19.16-24.5,0-47.23,20.26Q580.07,794.43,573,820.76Z"/>
        <g id="a">
            <path id="mascara-8" data-name="mascara" class="cls-6" d="M588.14,726.85s-16.67-49.3-99.29,44.08C486.58,740.86,472,710.4,410,713.32c-89.37,4.2-117.75,102-117.75,102S254.5,926.64,350,930.85c34.42,1.51,63.09-18.43,83.93-36-2.81,11.69-5.16,21.14-6.74,27.42-1.2,4.78,1.67,8.6,6.45,8.6h18.59c4.82,0,9.77-3.88,11.09-8.7,4.67-17.08,14.93-56,20-85.88C527.2,757.39,588.14,726.85,588.14,726.85ZM365.63,893.13c-32.63,0-50.49-32.08-39.88-71.66S371.4,749.82,404,749.82s50.49,32.08,39.88,71.65S398.27,893.13,365.63,893.13Z"/>
            <g class="cls-7">
                <path id="base-2" data-name="base" class="cls-8" d="M588.14,726.85s-16.67-49.3-99.29,44.08C486.58,740.86,472,710.4,410,713.32c-89.37,4.2-117.75,102-117.75,102S254.5,926.64,350,930.85c34.42,1.51,63.09-18.43,83.93-36-5.28,22-8.92,36-8.92,36h35.89s15.72-55.14,22.45-94.58C527.2,757.39,588.14,726.85,588.14,726.85ZM365.63,893.13c-32.63,0-50.49-32.08-39.88-71.66S371.4,749.82,404,749.82s50.49,32.08,39.88,71.65S398.27,893.13,365.63,893.13Z"/>
                <path id="sombra_02-2" data-name="sombra_02" class="cls-5" d="M483.38,836.27s-27.1,41-49.42,58.56l-9.29,36h37.72S482.84,866.44,483.38,836.27Z"/>
                <path id="sombra_01-2" data-name="sombra_01" class="cls-5" d="M488.82,771.19s-24.7,29.82-54.58,74c0,0-28.91,54.93-77.75,47,0,0-77.27-5.11-66-65.72C315.86,689.47,492.72,676.9,488.82,771.19Z"/>
            </g>
            <path id="mascara-9" data-name="mascara" class="cls-1" d="M588.14,726.85s-16.67-49.3-99.29,44.08C486.58,740.86,472,710.4,410,713.32c-89.37,4.2-117.75,102-117.75,102S254.5,926.64,350,930.85c34.42,1.51,63.09-18.43,83.93-36-2.81,11.69-5.16,21.14-6.74,27.42-1.2,4.78,1.67,8.6,6.45,8.6h18.59c4.82,0,9.77-3.88,11.09-8.7,4.67-17.08,14.93-56,20-85.88C527.2,757.39,588.14,726.85,588.14,726.85ZM365.63,893.13c-32.63,0-50.49-32.08-39.88-71.66S371.4,749.82,404,749.82s50.49,32.08,39.88,71.65S398.27,893.13,365.63,893.13Z"/>
        </g>
        <g id="e">
            <path id="mascara-10" data-name="mascara" class="cls-6" d="M792.76,832l-1.12,3.5q-6.75,25.23,5.17,40.52,12.41,16.2,41.14,16.2,26.14,0,52.81-15.65c3.35-2,6.13-3,8.34-3q6.81,0,8.49,6.82l2.21,10.31a17.88,17.88,0,0,1-.47,7.92q-1.12,4.23-6.11,8.74a57.65,57.65,0,0,1-12.05,8.2,97.28,97.28,0,0,1-15.82,6.44,175.84,175.84,0,0,1-17.71,4.61,180.62,180.62,0,0,1-36.35,3.68,90.7,90.7,0,0,1-35.23-7,62.58,62.58,0,0,1-26.84-20.44q-21.63-28.54-8.61-77.16,22.85-85.26,88.46-106.07a133.88,133.88,0,0,1,40.31-6.45q19.79,0,32.56,4.24T932.62,730q16.67,17.5,8.28,48.8-8.24,30.76-37.62,47-25.72,14.19-61.63,14.18Q819.56,839.92,792.76,832Zm105-53.77q7.05-26.33-28.3-26.33-33.71,0-53.76,24.67a76.74,76.74,0,0,0-12,21.36q13.71,7.92,38.2,7.92C873.6,805.85,892.84,796.65,897.78,778.23Z"/>
            <g class="cls-9">
                <path id="base-3" data-name="base" class="cls-5" d="M792.76,832l-1.12,3.5q-6.75,25.23,5.17,40.52,12.41,16.2,41.14,16.2,26.14,0,52.81-15.65c3.35-2,6.13-3,8.34-3q6.81,0,8.49,6.82l2.21,10.31a17.88,17.88,0,0,1-.47,7.92q-1.12,4.23-6.11,8.74a57.65,57.65,0,0,1-12.05,8.2,97.28,97.28,0,0,1-15.82,6.44,175.84,175.84,0,0,1-17.71,4.61,180.62,180.62,0,0,1-36.35,3.68,90.7,90.7,0,0,1-35.23-7,62.58,62.58,0,0,1-26.84-20.44q-21.63-28.54-8.61-77.16,22.85-85.26,88.46-106.07a133.88,133.88,0,0,1,40.31-6.45q19.79,0,32.56,4.24T932.62,730q16.67,17.5,8.28,48.8-8.24,30.76-37.62,47-25.72,14.19-61.63,14.18Q819.56,839.92,792.76,832Zm105-53.77q7.05-26.33-28.3-26.33-33.71,0-53.76,24.67a76.74,76.74,0,0,0-12,21.36q13.71,7.92,38.2,7.92Q890.38,805.85,897.78,778.23Z"/>
                <path id="luz_02" class="cls-10" d="M880.94,878.58S865,894.73,822.1,895c-45.82.32-76.29-39.82-76.29-39.82s-8.31,39.44,20.72,60.67c46.35,33.9,125.86,10.25,140.56-11.52,7.81-11.58,1.2-25.48-.92-28.82C901.06,867.5,880.94,878.58,880.94,878.58Z"/>
                <path id="luz_01" class="cls-10" d="M881.11,798.2s39.26-19.33,16.63-84.79c0,0,40.92.61,45.87,40.34s-32.35,69-32.35,69-38.52,38-118.5,9.27c0,0-29.7-23.93-25-51.73C767.79,780.27,818,819.62,881.11,798.2Z"/>
            </g>
            <path id="mascara-11" data-name="mascara" class="cls-1" d="M792.76,832l-1.12,3.5q-6.75,25.23,5.17,40.52,12.41,16.2,41.14,16.2,26.14,0,52.81-15.65c3.35-2,6.13-3,8.34-3q6.81,0,8.49,6.82l2.21,10.31a17.88,17.88,0,0,1-.47,7.92q-1.12,4.23-6.11,8.74a57.65,57.65,0,0,1-12.05,8.2,97.28,97.28,0,0,1-15.82,6.44,175.84,175.84,0,0,1-17.71,4.61,180.62,180.62,0,0,1-36.35,3.68,90.7,90.7,0,0,1-35.23-7,62.58,62.58,0,0,1-26.84-20.44q-21.63-28.54-8.61-77.16,22.85-85.26,88.46-106.07a133.88,133.88,0,0,1,40.31-6.45q19.79,0,32.56,4.24T932.62,730q16.67,17.5,8.28,48.8-8.24,30.76-37.62,47-25.72,14.19-61.63,14.18Q819.56,839.92,792.76,832Zm105-53.77q7.05-26.33-28.3-26.33-33.71,0-53.76,24.67a76.74,76.74,0,0,0-12,21.36q13.71,7.92,38.2,7.92C873.6,805.85,892.84,796.65,897.78,778.23Z"/>
        </g>
        <g id="rx">
            <path id="mascara-12" data-name="mascara" class="cls-6" d="M1772.12,920.37c-28.1-47.89-57-99.74-51.69-105.12,44.18-44.3,68.12-74.48,68.12-74.48,33.31-2.5,43.16-33.41,33.44-46.78s-30.25-5.85-41.9,3.34-76.68,83.54-76.68,83.54S1657.8,676.73,1623,647.49s-66.46-17-66.46-17-29.74,5-25,30.91,45.71,13.37,45.71,13.37c51.86,30.91,94.25,138.6,94.25,138.6s-54.51,56-139.68,116.14c-49,34.57-115.26,55.6-162.79,67.23s-94.45,14.08-137.4,6c-95.59-18-100.16-70.92-98.74-92.83,7.43-114.5-51.65-129.9-51.65-129.9a294.2,294.2,0,0,0,56.06-19c28.67-15,46.12-33.39,56.62-51.3,29.77-50.79,10.61-104.09-40.81-109.9l-1.3-.14c-43.43-4.24-100.7,30.21-100.7,30.21l-3.41-20.13c-.94-5.56-6.65-8.17-12.88-5.91-9.46,3.44-23.13,8.33-33.7,11.77-18,5.85-15.42,15.87-15.42,15.87,38.21,86.5-27.94,228.4-50.9,270.15-4.31,7.83-2.81,16.13,3.59,19.64,11.25,6.16,28.68,13.57,40.14,8.26,18.13-8.4,40.53-115.29,40.53-115.29,72.36-17.54,62.5,111.16,62.5,111.16s-3.42,131.24,215.73,127.06c144.4-2.75,290.83-112.53,385.78-201,2.07-1.94,13.7,75.61,29.09,79C1773.37,943.77,1774.18,923.9,1772.12,920.37ZM1033,755.45l15.82-86.69s87.22-53,109.85-20.17c20.15,29.24-10.06,70.57-34.32,83.25C1108.8,740,1082.74,753.75,1033,755.45Z"/>
            <g class="cls-11">
                <path id="base-4" data-name="base" class="cls-3" d="M1772.12,920.37c-28.1-47.89-57-99.74-51.69-105.12,44.18-44.3,68.12-74.48,68.12-74.48,33.31-2.5,43.16-33.41,33.44-46.78s-30.25-5.85-41.9,3.34-76.68,83.54-76.68,83.54S1657.8,676.73,1623,647.49s-66.46-17-66.46-17-29.74,5-25,30.91,45.71,13.37,45.71,13.37c51.86,30.91,94.25,138.6,94.25,138.6s-54.51,56-139.68,116.14c-48.31,34.11-113.5,55-160.89,66.77-47.82,11.83-95.27,14.63-138.61,6.6-96.26-17.83-100.85-71-99.43-93,7.43-114.5-51.65-129.9-51.65-129.9a294.2,294.2,0,0,0,56.06-19c87.45-45.78,70.49-122.85,70.49-122.85s-12.54-34.25-56-38.49-95,25.13-95,25.13l3.58-13.37c1.08-13.37-14.41-11.69-14.41-11.69s-26.91,10-44.88,15.87-15.42,15.87-15.42,15.87c38.21,86.5-27.94,228.4-50.9,270.15-4.31,7.83-2.81,16.13,3.59,19.64,11.25,6.16,28.68,13.57,40.14,8.26,18.13-8.4,40.53-115.29,40.53-115.29,72.36-17.54,62.5,111.16,62.5,111.16s-3.42,131.24,215.73,127.06c144.4-2.75,290.83-112.53,385.78-201,2.07-1.94,13.7,75.61,29.09,79C1773.37,943.77,1774.18,923.9,1772.12,920.37ZM1033,755.45l15.82-86.69s87.22-53,109.85-20.17c20.15,29.24-10.06,70.57-34.32,83.25C1108.8,740,1082.74,753.75,1033,755.45Z"/>
                <path id="sombra_02-3" data-name="sombra_02" class="cls-5" d="M1671.55,813.38s-159.2,178.26-370,185.72S1150.46,852,1150.46,852s-59.73,151.73,50.09,191.41c117.75,42.54,245.44-27,245.44-27S1576.22,939.9,1671.55,813.38Z"/>
                <path id="sombra_01-3" data-name="sombra_01" class="cls-5" d="M1048.83,668.76s6.92-46.85-2.78-69,28.09,0,28.09,0,85-32.63,105.87-9.86-18.24,106.72-30.17,119.55S1048.83,668.76,1048.83,668.76Z"/>
            </g>
            <path id="mascara-13" data-name="mascara" class="cls-1" d="M1772.12,920.37c-28.1-47.89-57-99.74-51.69-105.12,44.18-44.3,68.12-74.48,68.12-74.48,33.31-2.5,43.16-33.41,33.44-46.78s-30.25-5.85-41.9,3.34-76.68,83.54-76.68,83.54S1657.8,676.73,1623,647.49s-66.46-17-66.46-17-29.74,5-25,30.91,45.71,13.37,45.71,13.37c51.86,30.91,94.25,138.6,94.25,138.6s-54.51,56-139.68,116.14c-49,34.57-115.26,55.6-162.79,67.23s-94.45,14.08-137.4,6c-95.59-18-100.16-70.92-98.74-92.83,7.43-114.5-51.65-129.9-51.65-129.9a294.2,294.2,0,0,0,56.06-19c28.67-15,46.12-33.39,56.62-51.3,29.77-50.79,10.61-104.09-40.81-109.9l-1.3-.14c-43.43-4.24-100.7,30.21-100.7,30.21l-3.41-20.13c-.94-5.56-6.65-8.17-12.88-5.91-9.46,3.44-23.13,8.33-33.7,11.77-18,5.85-15.42,15.87-15.42,15.87,38.21,86.5-27.94,228.4-50.9,270.15-4.31,7.83-2.81,16.13,3.59,19.64,11.25,6.16,28.68,13.57,40.14,8.26,18.13-8.4,40.53-115.29,40.53-115.29,72.36-17.54,62.5,111.16,62.5,111.16s-3.42,131.24,215.73,127.06c144.4-2.75,290.83-112.53,385.78-201,2.07-1.94,13.7,75.61,29.09,79C1773.37,943.77,1774.18,923.9,1772.12,920.37ZM1033,755.45l15.82-86.69s87.22-53,109.85-20.17c20.15,29.24-10.06,70.57-34.32,83.25C1108.8,740,1082.74,753.75,1033,755.45Z"/>
        </g>
        <g id="e-2" data-name="e">
            <path id="mascara-14" data-name="mascara" class="cls-6" d="M1211.88,832l-1.12,3.5q-6.77,25.23,5.17,40.52,12.4,16.2,41.14,16.2,26.15,0,52.81-15.65c3.35-2,6.13-3,8.34-3q6.81,0,8.49,6.82l2.21,10.31a18,18,0,0,1-.47,7.92c-.75,2.82-2.8,5.74-6.12,8.74a57.57,57.57,0,0,1-12,8.2,97.65,97.65,0,0,1-15.82,6.44,175.84,175.84,0,0,1-17.71,4.61,180.62,180.62,0,0,1-36.35,3.68,90.7,90.7,0,0,1-35.23-7,62.58,62.58,0,0,1-26.84-20.44q-21.63-28.54-8.61-77.16,22.85-85.26,88.46-106.07a133.88,133.88,0,0,1,40.31-6.45q19.79,0,32.56,4.24T1351.74,730q16.66,17.5,8.28,48.8-8.24,30.76-37.62,47-25.73,14.19-61.63,14.18Q1238.68,839.92,1211.88,832Zm105-53.77q7.06-26.33-28.3-26.33-33.69,0-53.75,24.67a76.76,76.76,0,0,0-12,21.36q13.73,7.92,38.21,7.92C1292.72,805.85,1312,796.65,1316.89,778.23Z"/>
            <g class="cls-12">
                <path id="base-5" data-name="base" class="cls-5" d="M1211.88,832l-1.12,3.5q-6.77,25.23,5.17,40.52,12.4,16.2,41.14,16.2,26.15,0,52.81-15.65c3.35-2,6.13-3,8.34-3q6.81,0,8.49,6.82l2.21,10.31a18,18,0,0,1-.47,7.92c-.75,2.82-2.8,5.74-6.12,8.74a57.57,57.57,0,0,1-12,8.2,97.65,97.65,0,0,1-15.82,6.44,175.84,175.84,0,0,1-17.71,4.61,180.62,180.62,0,0,1-36.35,3.68,90.7,90.7,0,0,1-35.23-7,62.58,62.58,0,0,1-26.84-20.44q-21.63-28.54-8.61-77.16,22.85-85.26,88.46-106.07a133.88,133.88,0,0,1,40.31-6.45q19.79,0,32.56,4.24T1351.74,730q16.66,17.5,8.28,48.8-8.24,30.76-37.62,47-25.73,14.19-61.63,14.18Q1238.68,839.92,1211.88,832Zm105-53.77q7.06-26.33-28.3-26.33-33.69,0-53.75,24.67a76.76,76.76,0,0,0-12,21.36q13.73,7.92,38.21,7.92Q1309.49,805.85,1316.89,778.23Z"/>
                <path id="luz_02-2" data-name="luz_02" class="cls-8" d="M1300.06,878.58s-15.92,16.15-58.84,16.44c-45.82.32-76.29-39.82-76.29-39.82s-8.31,39.44,20.72,60.67c46.35,33.9,125.86,10.25,140.56-11.52,7.81-11.58,1.2-25.48-.93-28.82C1320.17,867.5,1300.06,878.58,1300.06,878.58Z"/>
                <path id="luz_01-2" data-name="luz_01" class="cls-8" d="M1300.23,798.2s39.26-19.33,16.63-84.79c0,0,40.92.61,45.87,40.34s-32.35,69-32.35,69-38.52,38-118.5,9.27c0,0-29.7-23.93-25-51.73C1186.91,780.27,1237.06,819.62,1300.23,798.2Z"/>
            </g>
            <path id="mascara-15" data-name="mascara" class="cls-1" d="M1211.88,832l-1.12,3.5q-6.77,25.23,5.17,40.52,12.4,16.2,41.14,16.2,26.15,0,52.81-15.65c3.35-2,6.13-3,8.34-3q6.81,0,8.49,6.82l2.21,10.31a18,18,0,0,1-.47,7.92c-.75,2.82-2.8,5.74-6.12,8.74a57.57,57.57,0,0,1-12,8.2,97.65,97.65,0,0,1-15.82,6.44,175.84,175.84,0,0,1-17.71,4.61,180.62,180.62,0,0,1-36.35,3.68,90.7,90.7,0,0,1-35.23-7,62.58,62.58,0,0,1-26.84-20.44q-21.63-28.54-8.61-77.16,22.85-85.26,88.46-106.07a133.88,133.88,0,0,1,40.31-6.45q19.79,0,32.56,4.24T1351.74,730q16.66,17.5,8.28,48.8-8.24,30.76-37.62,47-25.73,14.19-61.63,14.18Q1238.68,839.92,1211.88,832Zm105-53.77q7.06-26.33-28.3-26.33-33.69,0-53.75,24.67a76.76,76.76,0,0,0-12,21.36q13.73,7.92,38.21,7.92C1292.72,805.85,1312,796.65,1316.89,778.23Z"/>
        </g>
        <g id="l">
            <g class="cls-13">
                <path id="base-6" data-name="base" class="cls-10" d="M1410.91,879.87q-3.5,13.08,5.71,13.07a27.5,27.5,0,0,0,8-1.65q9.32-3.13,11.15-3.13,4.24,0,5.2,5.34l2.21,13.07a13.17,13.17,0,0,1-.28,5.16q-1.14,4.23-9.76,10.31-17.1,11.6-39.76,11.6-41.25,0-26.49-55.06L1437.24,616a17.15,17.15,0,0,1,5.22-8.47q3.88-3.5,7.93-3.5h24.68a6.32,6.32,0,0,1,6.06,3.5q1.83,3.5.49,8.47Z"/>
                <path id="sombra" class="cls-5" d="M1410.22,883s-13.89,44.07,10.29,45.71l36.16-10.29,7.48-58.31Z"/>
            </g>
            <path id="mascara-16" data-name="mascara" class="cls-1" d="M1410.91,879.87q-3.5,13.08,5.71,13.07a27.5,27.5,0,0,0,8-1.65q9.32-3.13,11.15-3.13,4.24,0,5.2,5.34l2.21,13.07a13.17,13.17,0,0,1-.28,5.16q-1.14,4.23-9.76,10.31-17.1,11.6-39.76,11.6-41.25,0-26.49-55.06L1437.24,616a17.15,17.15,0,0,1,5.22-8.47q3.88-3.5,7.93-3.5h24.68a6.32,6.32,0,0,1,6.06,3.5q1.83,3.5.49,8.47Z"/>
        </g>
        <path id="i" class="cls-5" d="M1528.22,879.87c-2.33,8.72-11.13,46.47-26.8,50.64-5.61,1.49-20.55,2.23-23-2.07-4.76-8.84.4-30,5.73-49.86l38.48-143.64a17.56,17.56,0,0,1,5.27-8.65c2.59-2.33,5.23-3.5,7.94-3.5h24.67a6.3,6.3,0,0,1,6.06,3.5c1.22,2.33,1.37,5.22.45,8.65Z"/>
    </g>
</svg>