<svg xmlns="http://www.w3.org/2000/svg" xmlns:xlink="http://www.w3.org/1999/xlink" viewBox="0 0 735.73 939.27"><defs><style>.cls-1,.cls-3{fill:none;}.cls-2{fill:#d21666;}.cls-3{stroke:#d21666;stroke-linecap:round;stroke-linejoin:round;stroke-width:3px;}.cls-4{clip-path:url(#clip-path);}.cls-5{fill:#f39;}.cls-6{fill:#d21464;}</style><clipPath id="clip-path" transform="translate(51.51 32.97)"><path id="mascara" class="cls-1" d="M76.91,90.91C-37.09,232.1-11.36,388,69.75,494.1,138,583.43,251,634.5,298.78,642,457.44,667,553.11,607.37,609.84,537.94c64.33-78.73,87.59-183,67.08-282.54-23.85-115.72-70-180.51-139.19-218.68C379-50.88,257.69,39.11,229.6,90.91,201,143.69,198.84,187.08,207.37,220.7c12.26,48.33,50,85.88,97.62,100.63,133.18,41.24,175.11-70.58,175.11-70.58s31-90.66-23.85-133.6c-55.87-43.72-114.52,0-114.52,0s90.66-4.77,107.36,54.87c6.26,22.37,1.45,41.72-7,57.16-16.88,30.84-50.24,48.7-85.39,48.08-26-.47-57.6-9-80.54-41.21-32.59-45.72-24.93-109.34,17-146.65C323.89,62.07,374,42.18,453.86,64.66c169.39,47.72,176.55,224.26,176.55,224.26s2.82,13,3.25,33.93c3.15,153-129.91,272.84-282.14,257.19-104.4-10.73-274.87-54.73-310.4-248.17C19.65,215,76.91,90.91,76.91,90.91Z"/></clipPath></defs><g id="Capa_2" data-name="Capa 2"><g id="Capa_2-2" data-name="Capa 2"><g id="Paperelix"><g id="tool"><path id="cuerpo" class="cls-2" d="M310.52,357.07s-47.59-5.33-68.75,39.34l-199.85,484a18.71,18.71,0,0,0,33.78,16L323.64,435.19C344.8,390.52,310.52,357.07,310.52,357.07Z" transform="translate(51.51 32.97)"/><line id="aguja" class="cls-3" x1="362.04" y1="390.04" x2="492.62" y2="113.82"/></g><g id="curva"><g class="cls-4"><path id="base" class="cls-5" d="M76.09,90.4c-114,141.2-88.27,297.06-7.16,403.19C137.21,582.92,250.16,634,298,641.51,456.62,666.44,552.29,606.86,609,537.43,673.35,458.7,698.72,354,676.1,254.89c-40.55-177.61-84-169.67-146.72-209.82C376.69-52.75,256.87,38.6,228.78,90.4c-28.63,52.78-30.76,96.17-22.23,129.79,12.26,48.33,50,85.89,97.62,100.63,133.18,41.24,175.11-70.58,175.11-70.58s31-90.66-23.85-133.6c-55.87-43.72-114.52,0-114.52,0s90.66-4.77,107.36,54.87c6.26,22.37,1.45,41.72-7,57.16-16.88,30.84-50.25,48.7-85.39,48.08-26-.46-57.6-9-80.54-41.21-32.59-45.72-24.93-109.34,17-146.65C323.07,61.56,373.22,41.67,453,64.15c169.39,47.72,176.55,224.27,176.55,224.27s2.82,12.95,3.25,33.92c3.15,153-129.91,272.84-282.14,257.19C246.3,568.8,75.83,524.8,40.3,331.36,18.83,214.46,76.09,90.4,76.09,90.4Z" transform="translate(51.51 32.97)"/><path id="sombra_03" class="cls-6" d="M366.63,276.35s107.88,16.84,119.81-138.24L426.8,78.47,298,119Z" transform="translate(51.51 32.97)"/><path id="sombra_02" class="cls-6" d="M258.47,199.07s-31.8-63.41,27.11-165.37,319-56.63,319-56.63l33.4,152.69s37.41,129.53-13.51,262.79l-86.7-243.7L442.3,63l-136,38.17Z" transform="translate(51.51 32.97)"/><path id="sombra_01" class="cls-6" d="M77.67,432.86S-8.61,351.64-46.78,194.18,120.22,20,120.22,20Z" transform="translate(51.51 32.97)"/></g></g></g></g></g></svg>