<svg xmlns="http://www.w3.org/2000/svg" xmlns:xlink="http://www.w3.org/1999/xlink" viewBox="0 0 740.73 944.27"><defs><style>.cls-1{fill:none;}.cls-1,.cls-2,.cls-3,.cls-5{stroke:#000;stroke-miterlimit:10;stroke-width:5px;}.cls-2{fill:#f39;}.cls-3{fill:#fff;}.cls-4{clip-path:url(#clip-path);}.cls-5{fill:#0c0c0c;}</style><clipPath id="clip-path" transform="translate(51.51 32.97)"><path id="mascara" class="cls-1" d="M79.41,93.41C-34.59,234.6-8.86,390.47,72.25,496.6c68.28,89.33,181.23,140.4,229,147.92,158.66,24.93,254.33-34.65,311.06-104.08,64.33-78.73,87.59-183,67.08-282.54-23.85-115.72-70-180.51-139.19-218.68-158.77-87.6-280,2.39-308.13,54.19-28.63,52.78-30.76,96.17-22.23,129.79,12.26,48.33,50,85.88,97.62,100.63,133.18,41.24,175.11-70.58,175.11-70.58s31-90.66-23.85-133.6c-55.87-43.72-114.52,0-114.52,0s90.66-4.77,107.36,54.87c6.26,22.37,1.45,41.72-7,57.16-16.88,30.84-50.24,48.7-85.39,48.08-26-.47-57.6-9-80.54-41.21-32.59-45.72-24.93-109.34,17-146.65,30.72-27.33,80.87-47.22,160.69-24.74,169.39,47.72,176.55,224.26,176.55,224.26s2.82,13,3.25,33.93c3.15,153-129.91,272.84-282.14,257.19-104.4-10.73-274.87-54.73-310.4-248.17C22.15,217.47,79.41,93.41,79.41,93.41Z"/></clipPath></defs><g id="Capa_2" data-name="Capa 2"><g id="Capa_2-2" data-name="Capa 2"><g id="Paperelix"><g id="tool"><path id="cuerpo" class="cls-2" d="M313,359.57s-47.59-5.33-68.75,39.34L44.42,883A18.71,18.71,0,0,0,78.2,899L326.14,437.69C347.3,393,313,359.57,313,359.57Z" transform="translate(51.51 32.97)"/><line id="aguja" class="cls-3" x1="364.54" y1="392.54" x2="495.12" y2="116.32"/></g><g id="curva"><g class="cls-4"><path id="base" class="cls-2" d="M78.59,92.9C-35.41,234.1-9.68,390,71.43,496.09c68.28,89.33,181.23,140.41,229,147.92,158.66,24.93,254.33-34.65,311.06-104.08,64.33-78.73,89.7-183.42,67.08-282.54-40.55-177.61-84-169.67-146.72-209.82C379.19-50.25,259.37,41.1,231.28,92.9c-28.63,52.78-30.76,96.17-22.23,129.79,12.26,48.33,50,85.89,97.62,100.63,133.18,41.24,175.11-70.58,175.11-70.58s31-90.66-23.85-133.6c-55.87-43.72-114.52,0-114.52,0s90.66-4.77,107.36,54.87c6.26,22.37,1.45,41.72-7,57.16-16.88,30.84-50.25,48.7-85.39,48.08-26-.46-57.6-9-80.54-41.21-32.59-45.72-24.93-109.34,17-146.65,30.72-27.33,80.87-47.22,160.69-24.74,169.39,47.72,176.55,224.27,176.55,224.27s2.82,12.95,3.25,33.92c3.15,153-129.91,272.84-282.14,257.19C248.8,571.3,78.33,527.3,42.8,333.86,21.33,217,78.59,92.9,78.59,92.9Z" transform="translate(51.51 32.97)"/><path id="sombra_03" class="cls-5" d="M369.13,278.85S477,295.69,488.94,140.61L429.3,81,300.46,121.53Z" transform="translate(51.51 32.97)"/><path id="sombra_02" class="cls-5" d="M261,201.57s-31.8-63.41,27.11-165.37S607-20.43,607-20.43l33.4,152.69s37.41,129.53-13.51,262.79l-86.7-243.7L444.8,65.46l-136,38.17Z" transform="translate(51.51 32.97)"/><path id="sombra_01" class="cls-5" d="M80.17,435.36S-6.11,354.14-44.28,196.68s167-174.16,167-174.16Z" transform="translate(51.51 32.97)"/><line class="cls-1" x1="495.12" y1="116.32" x2="429.83" y2="254.43"/></g><path id="mascara-2" data-name="mascara" class="cls-1" d="M79.41,93.41C-34.59,234.6-8.86,390.47,72.25,496.6c68.28,89.33,181.23,140.4,229,147.92,158.66,24.93,254.33-34.65,311.06-104.08,64.33-78.73,87.59-183,67.08-282.54-23.85-115.72-70-180.51-139.19-218.68-158.77-87.6-280,2.39-308.13,54.19-28.63,52.78-30.76,96.17-22.23,129.79,12.26,48.33,50,85.88,97.62,100.63,133.18,41.24,175.11-70.58,175.11-70.58s31-90.66-23.85-133.6c-55.87-43.72-114.52,0-114.52,0s90.66-4.77,107.36,54.87c6.26,22.37,1.45,41.72-7,57.16-16.88,30.84-50.24,48.7-85.39,48.08-26-.47-57.6-9-80.54-41.21-32.59-45.72-24.93-109.34,17-146.65,30.72-27.33,80.87-47.22,160.69-24.74,169.39,47.72,176.55,224.26,176.55,224.26s2.82,13,3.25,33.93c3.15,153-129.91,272.84-282.14,257.19-104.4-10.73-274.87-54.73-310.4-248.17C22.15,217.47,79.41,93.41,79.41,93.41Z" transform="translate(51.51 32.97)"/></g></g></g></g></svg>