<?xml version="1.0" encoding="utf-8"?>
<!-- Generator: Adobe Illustrator 24.1.2, SVG Export Plug-In . SVG Version: 6.00 Build 0)  -->
<svg version="1.1" id="Capa_1" xmlns="http://www.w3.org/2000/svg" xmlns:xlink="http://www.w3.org/1999/xlink" x="0px" y="0px"
	 viewBox="0 0 748.8 748.8" style="enable-background:new 0 0 748.8 748.8;" xml:space="preserve">
<style type="text/css">
	.st0{fill:#FF3399;stroke:#000000;stroke-width:5;stroke-miterlimit:10;}
	.st1{fill:none;stroke:#000000;stroke-width:5;stroke-linecap:round;stroke-linejoin:round;stroke-miterlimit:10;}
	.st2{clip-path:url(#SVGID_2_);}
	.st3{fill:#0C0C0C;stroke:#000000;stroke-width:5;stroke-miterlimit:10;}
	.st4{fill:none;stroke:#000000;stroke-width:5;stroke-miterlimit:10;}
</style>
<g id="Capa_2_1_">
	<g id="Capa_2-2">
		<g id="Paperelix">
			<g id="tool">
				<path id="cuerpo" class="st0" d="M360.4,314.7c0,0-29.5-3.3-42.7,24.4l-124,300.5c-2.5,5.9,0.3,12.7,6.3,15.2
					c5.5,2.3,11.9,0,14.7-5.3l153.9-286.4C381.7,335.5,360.4,314.7,360.4,314.7z"/>
				<line id="aguja" class="st1" x1="360.4" y1="314.7" x2="441.5" y2="143.2"/>
			</g>
			<g id="curva">
				<g>
					<g>
						<defs>
							<path id="SVGID_1_" d="M215.4,149.5c-70.8,87.6-54.8,184.4-4.4,250.3c42.4,55.5,112.5,87.2,142.2,91.8
								c98.5,15.5,157.9-21.5,193.1-64.6c39.9-48.9,54.4-113.6,41.6-175.4c-14.8-71.8-43.5-112.1-86.4-135.8
								c-98.6-54.4-173.8,1.5-191.3,33.6c-17.8,32.8-19.1,59.7-13.8,80.6c7.6,30,31,53.3,60.6,62.5c82.7,25.6,108.7-43.8,108.7-43.8
								s19.2-56.3-14.8-82.9c-34.7-27.1-71.1,0-71.1,0s56.3-3,66.6,34.1c3.9,13.9,0.9,25.9-4.3,35.5c-10.5,19.1-31.2,30.2-53,29.8
								c-16.1-0.3-35.8-5.6-50-25.6c-20.2-28.4-15.5-67.9,10.6-91c19.1-17,50.2-29.3,99.8-15.4C554.5,162.8,559,272.4,559,272.4
								s1.8,8.1,2,21.1c2,95-80.6,169.4-175.1,159.7c-64.8-6.7-170.6-34-192.7-154.1C179.9,226.5,215.4,149.5,215.4,149.5z"/>
						</defs>
						<clipPath id="SVGID_2_">
							<use xlink:href="#SVGID_1_"  style="overflow:visible;"/>
						</clipPath>
						<g class="st2">
							<path id="base" class="st0" d="M214.9,149.2c-70.8,87.7-54.8,184.4-4.4,250.3c42.4,55.5,112.5,87.2,142.2,91.8
								c98.5,15.5,157.9-21.5,193.1-64.6c39.9-48.9,55.7-113.9,41.6-175.4C562.2,141,535.3,146,496.3,121
								c-94.8-60.7-169.2-4-186.6,28.1c-17.8,32.8-19.1,59.7-13.8,80.6c7.6,30,31,53.3,60.6,62.5c82.7,25.6,108.7-43.8,108.7-43.8
								s19.2-56.3-14.8-82.9c-34.7-27.1-71.1,0-71.1,0s56.3-3,66.6,34.1c3.9,13.9,0.9,25.9-4.3,35.5c-10.5,19.1-31.2,30.2-53,29.8
								c-16.1-0.3-35.8-5.6-50-25.6c-20.2-28.4-15.5-67.9,10.6-91c19.1-17,50.2-29.3,99.8-15.4c105.2,29.6,109.6,139.2,109.6,139.2
								s1.8,8,2,21.1c2,95-80.6,169.4-175.1,159.7c-64.8-6.7-170.6-34-192.7-154.1C179.4,226.2,214.9,149.2,214.9,149.2z"/>
							<path id="sombra_03" class="st3" d="M395.3,264.6c0,0,67,10.5,74.4-85.8l-37-37l-80,25.2L395.3,264.6z"/>
							<path id="sombra_02" class="st3" d="M328.1,216.6c0,0-19.7-39.4,16.8-102.7s198-35.2,198-35.2l20.7,94.8
								c0,0,23.2,80.4-8.4,163.1l-53.7-151.2l-59.2-53.3l-84.5,23.7L328.1,216.6z"/>
							<path id="sombra_01" class="st3" d="M215.9,361.8c0,0-53.6-50.4-77.3-148.2s103.7-108.1,103.7-108.1L215.9,361.8z"/>
							<line class="st4" x1="441.5" y1="143.2" x2="401" y2="229"/>
						</g>
					</g>
				</g>
				<path id="mascara-2" class="st4" d="M215.4,149.5c-70.8,87.6-54.8,184.4-4.4,250.3c42.4,55.5,112.5,87.2,142.2,91.8
					c98.5,15.5,157.9-21.5,193.1-64.6c39.9-48.9,54.4-113.6,41.6-175.4c-14.8-71.8-43.5-112.1-86.4-135.8
					c-98.6-54.4-173.8,1.5-191.3,33.6c-17.8,32.8-19.1,59.7-13.8,80.6c7.6,30,31,53.3,60.6,62.5c82.7,25.6,108.7-43.8,108.7-43.8
					s19.2-56.3-14.8-82.9c-34.7-27.1-71.1,0-71.1,0s56.3-3,66.6,34.1c3.9,13.9,0.9,25.9-4.3,35.5c-10.5,19.1-31.2,30.2-53,29.8
					c-16.1-0.3-35.8-5.6-50-25.6c-20.2-28.4-15.5-67.9,10.6-91c19.1-17,50.2-29.3,99.8-15.4C554.5,162.8,559,272.4,559,272.4
					s1.8,8.1,2,21.1c2,95-80.6,169.4-175.1,159.7c-64.8-6.7-170.6-34-192.7-154.1C179.9,226.5,215.4,149.5,215.4,149.5z"/>
			</g>
		</g>
	</g>
</g>
</svg>
