<svg id="Capa_1" data-name="Capa 1" xmlns="http://www.w3.org/2000/svg" viewBox="0 0 818.38 833.36"><defs><style>.cls-1{fill:#b79549;}.cls-2{fill:#704a18;}.cls-3{fill:#a57741;}</style></defs><path class="cls-1" d="M621.18,293.6c13.07,42.55,36.24,80.79,58,119.27,10.84,19.15,21.39,38.5,30.18,58.69s17,43.48,12.26,65.72A50.48,50.48,0,0,1,708.2,562.6c-6.67,6.7-14.92,10.69-24.06,10.39l6,6a164.18,164.18,0,0,1,6.92-42,154.85,154.85,0,0,1,7.4-19.79,60.78,60.78,0,0,1,4.44-8.6,4.45,4.45,0,0,1,4.77-2.33c5.49.57,10.33,2.88,14.86,5.33a59.54,59.54,0,0,1,12.79,9.19A80.32,80.32,0,0,1,760,547.69c10.55,24.66,8.09,52.67-.32,77.57A164.44,164.44,0,0,1,752,644.08c-2.77,5.72-5.66,11.9-9.76,16.77a21.94,21.94,0,0,1-13.52,8c-6.27.89-12.26-.48-18.21-2.4-11.61-3.75-22.65-9.88-33.29-15.85-10.9-6.12-21.5-12.77-32-19.63-21-13.74-41.37-28.33-62.73-41.46-21-12.94-43.24-24.5-67-31.6A158,158,0,0,0,477.62,551c-13.87-.61-28.4,1.86-39.95,10-11.19,7.86-19.5,19.3-25.75,31.33a126.29,126.29,0,0,0-12.58,37.94,132.33,132.33,0,0,0-.22,41c2.13,14.05,7.43,27.09,12.05,40.44a131.34,131.34,0,0,1,5.61,20.79l5.79-7.6c-29.09-1.19-55.83-17.68-75-39.37-20.63-23.32-34.05-53.08-42.93-82.68-4-13.22-7-29.69,1.82-41a36.09,36.09,0,0,1,15-10.76,72.27,72.27,0,0,1,21.15-4.61c17.64-1.34,35.15,1.74,52.14,6.24a462.74,462.74,0,0,1,47.84,15.85C474,580.66,504.61,594.84,536.41,606c7.91,2.77,15.89,5.34,24,7.63q6.15,1.75,12.35,3.26c4.2,1,8.61,2.12,12.9.95,8.29-2.25,10.71-11.09,10.8-18.68.11-8.34-.5-16.76-1.13-25.07A438.43,438.43,0,0,0,575.59,472.9a435.21,435.21,0,0,0-18.75-48.22c-6.16-13.45-13.38-27.46-25.08-36.95a49.8,49.8,0,0,0-38.17-10.92c-13.85,1.8-26.55,8.21-37.1,17.25-24,20.52-31.3,53.44-34.87,83.36-.93,7.76-1.61,15.54-2.27,23.33l10.24-4.24a167.77,167.77,0,0,1-45.11-53.46,158.34,158.34,0,0,1-13.22-32.61c-3.14-11.36-4.95-24.18-.31-35.41,4.21-10.19,13.07-17,22.48-22.33,10.87-6.1,22.71-10.55,34.55-14.37,25.5-8.21,52-12.7,78.57-16.07q9.88-1.26,19.8-2.37c2.52-.28,5.51-.86,7.82.16-.66-.29.94.63.84.56-.94-.65.46.49.53.55,1.09,1-.27-.69.48.61a19.26,19.26,0,0,1,1.14,2.09c-.12-.27-.27-.84.08.28.19.6.4,1.19.57,1.8a37.48,37.48,0,0,1,.79,3.79c.1.57.15,1.06.25,2.25.17,1.85.26,3.7.38,5.55.44,7,.85,14,1.27,21,1.72,28.85,3.68,57.76,8.79,86.24,4.42,24.65,11.46,48.86,22.38,71.46A184.64,184.64,0,0,0,590.26,547a171.54,171.54,0,0,0,11.66,14c3.91,4.17,8.7,7.77,12.25,12.24,3.3,4.15,2.09,9-.4,13.78a109.53,109.53,0,0,1-9.45,14.4,147.11,147.11,0,0,1-23,24.08,142.38,142.38,0,0,1-57.68,29.14q-3.81.93-7.68,1.63c-2.79.5-5.13.85-7.58,1.13-4.69.54-7.23,4.64-5.18,9a97.45,97.45,0,0,0,55.55,50,89.56,89.56,0,0,0,21,4.52c3.23.32,6-3,6-6,0-3.51-2.76-5.68-6-6-13.68-1.35-27.4-7-39.06-15.36a86.14,86.14,0,0,1-27.17-33.21l-5.18,9a152,152,0,0,0,66.91-24.51A159.94,159.94,0,0,0,603,621.58c8.14-8.67,16.16-18.51,21.54-29.19,3.5-7,5.22-14.68,1.84-22-2.62-5.72-7.89-9.65-12.24-14a153.76,153.76,0,0,1-22.5-28.63c-13.05-21.17-21.6-44.74-27.22-68.9-6.69-28.69-9.22-58.11-11.11-87.45-.47-7.32-.89-14.65-1.33-22s-.59-14.46-1.59-21.6c-.77-5.48-2.44-11-6.34-15.14-5-5.23-11.84-5.46-18.53-4.7-28.36,3.25-56.84,6.86-84.51,14.08a278.47,278.47,0,0,0-39.93,13.65c-11.24,4.84-22.49,10.71-31.07,19.63-9.55,9.93-14.11,22.86-13.77,36.56.33,13.5,4.43,26.75,9.49,39.16a181.14,181.14,0,0,0,41.73,62.13A167,167,0,0,0,421.11,505c4.19,3.24,9.78,1.25,10.24-4.24,2.51-29.57,5.06-62.27,23.13-87.08a66.16,66.16,0,0,1,28.61-22,46.66,46.66,0,0,1,17.08-3.36c1.46,0,2.91.07,4.36.19.14,0,1.41.15.75.07l.44.06c.82.14,1.64.28,2.45.46a41.34,41.34,0,0,1,4.23,1.16,20.59,20.59,0,0,1,3.86,1.57c12.46,6.16,20.08,18.31,26.22,30.51a364.84,364.84,0,0,1,18.67,45.09,425.79,425.79,0,0,1,21.43,98.36q1.18,12.57,1.64,25.19a83.46,83.46,0,0,1,0,11.07c.08-.8,0,.24,0,.35-.08.42-.16.83-.27,1.25-.06.22-.52,1.66-.2.9-.15.36-1.22,1.81-.68,1.23-.14.15-.65.38-.27.29.57-.14-.54.16-.37.14-2.91.29-6.6-1-9.82-1.77q-6-1.53-11.91-3.27c-7.91-2.31-15.74-4.89-23.5-7.65-31.49-11.18-61.84-25.24-93-37.16a454.15,454.15,0,0,0-47.57-15.58c-17.23-4.48-35.25-7.6-53.11-6.38-15,1-30.64,4.77-42,15.21C289.12,561,287.21,577.73,290,593.47A147,147,0,0,0,296.31,616q4,11.52,8.78,22.71A216.09,216.09,0,0,0,327.91,680c17.88,24.86,42.74,45.65,72.78,53.65a101.07,101.07,0,0,0,21.88,3.29c4.22.17,6.4-3.95,5.78-7.59-2.5-14.69-8.72-28.28-13.2-42.4a116.38,116.38,0,0,1-5.51-39.86,118.19,118.19,0,0,1,8-38.42c4.58-11.83,11.35-23.58,20.48-32.49C447.68,566.8,460,563,473.16,563c12.78-.06,25.55,2.57,37.78,6.12,23.66,6.87,45.38,18.37,66.44,31.37,21.87,13.5,42.76,28.5,64.29,42.51,10.68,6.95,21.52,13.67,32.7,19.8,11.38,6.24,23.34,12.68,35.91,16.16,13.78,3.8,28.86,2.78,39.16-8.16,4.72-5,8.1-11.13,11.21-17.24a194.91,194.91,0,0,0,9.06-20.69c9.68-26.22,13.19-56.27,3.86-83.12-8.07-23.17-24.81-43.92-48.25-52.6-6.48-2.41-14.61-4.67-20.9-.6-5.88,3.81-8.67,10.85-11.37,17a173.75,173.75,0,0,0-12.72,42.9A183.78,183.78,0,0,0,678.14,579a6.1,6.1,0,0,0,6,6c20.37.68,37.46-14.78,45.16-32.61,9.7-22.43,5.35-47.74-2.71-70C710.84,439,684.8,400.07,663,359.59c-12-22.2-22.81-45-30.23-69.19-2.26-7.36-13.85-4.22-11.57,3.2Z" transform="translate(-138.28 -117.02)"/><path class="cls-2" d="M619.45,127.25c-54.56,31.94-121.09,21-181,17.76-53.17-2.85-113.4,1-155.75,37.15-45.91,39.23-46.28,103-65.78,155.78-10.66,28.83-30.37,52.3-47,77.74-8.81,13.51-16.43,27.73-21.52,43.07a178,178,0,0,0-8.44,48c-3.17,70.06,28.67,134.08,49.23,199.26,4.9,15.55,8.87,31.4,15.42,46.39,6.65,15.22,16.92,27.88,29.15,39,12.92,11.76,26.72,22.63,40.15,33.82l42.28,35.25C328.79,871,341.5,882,356.45,889.12c14.73,7,30.72,9.56,46.93,9.67,30.67.22,62.7-8.06,92.64,1.67,27.32,8.88,48.37,30.29,74.55,41.62a98.49,98.49,0,0,0,48,7.94c17.35-1.49,34.07-6.47,50.34-12.45,14.8-5.43,30.1-10.87,43.87-18.62A81.45,81.45,0,0,0,743,890c6.09-10,10.74-20.72,17-30.57,5.11-8,11.7-15.31,20.86-16.65,3.95-.58,8,0,12-.3a30.89,30.89,0,0,0,13-3.8c7-4,12.72-10.41,18.38-16q18.1-17.77,35-36.75c22.6-25.46,44-52.44,62.53-81a238.33,238.33,0,0,0,22.61-43.15,156.55,156.55,0,0,0,10.07-49.86c.81-17.89-.65-35.76-1.28-53.63-.65-18.48.43-36.82,1.83-55.24,2.3-30.33,3.22-60.53-3.54-90.42-6-26.68-18.42-52.85-39.29-71.11-21.85-19.1-52.9-27.16-69.51-52.1-16-24-20-53.71-35.13-78.21-29.3-47.53-87.79-67.7-141.23-69-16.38-.39-32.93,1.22-49.24-.89a75.49,75.49,0,0,1-23.08-6.64c-7.1-3.43-13.79-7.63-20.92-11-14-6.61-28.78-8.58-43.92-4.73-13.88,3.54-26.54,11-38.5,18.64-12.41,7.95-24.46,16.63-37.75,23.08-14.62,7.1-30.52,11.24-46.28,14.93-16.37,3.82-32.85,7.16-48.94,12.07A411.25,411.25,0,0,0,309.75,206c-30.64,13.72-59.73,30.6-88.46,47.89-12.73,7.65-27.11,14.86-36.84,26.41s-12.36,26.25-3.91,39.54c4,6.27,9.26,11.55,13.12,17.91a71.86,71.86,0,0,1,8,19.26c3.65,14.1,3.61,28.93,2.1,43.34-3.56,34.23-16.8,67-16.22,101.73.28,17.16,4.67,33.76,7.7,50.56,2.63,14.62,4.12,30.54-2.43,44.4-5.68,12-15.05,21.79-22.07,33-7.51,12-11.56,25.83-7.39,39.81,2.39,8,6.82,15.25,11.54,22.08,5,7.32,10.22,14.56,15.33,21.83,10.23,14.55,20.37,29.17,30.72,43.63,9,12.48,18.37,24.9,30,35C263.08,803,277.09,810,292.4,814.9s30.93,8,45.83,13.83c13,5.08,25.27,12.09,37,19.62,24.31,15.6,46.63,34.15,71.36,49.12,27.28,16.53,56.83,26.5,88.88,27.44,34.76,1,69.16-7.13,102-17.7,33.17-10.67,65.55-23.83,99.33-32.56,29.42-7.6,62.33-11.08,83.09-36,10.35-12.4,17.41-27.13,24.92-41.32,8-15.06,15.85-30.18,23.15-45.57s14.15-31.23,19.94-47.35S898,671.65,902,654.9c4-16.55,8.51-32.62,16.85-47.55,8.09-14.47,16.76-28.25,21.63-44.25,9.4-30.89,6.67-64.15-.64-95.17C932.16,435.37,919.37,404,906,373.46a926.09,926.09,0,0,0-46.29-91.64c-8.45-14.66-17.15-29.27-26.64-43.29-8.79-13-19-25.5-32.95-33.24-14.37-8-30.72-10.49-46.81-12.5-17-2.12-33.88-4.45-50.71-7.55a747.7,747.7,0,0,1-102.48-26.5c-16.68-5.6-33.18-11.71-50.77-13.7-17.13-1.93-33.73,1.93-49.59,8.2-32.94,13-65.08,28.66-97,44q-48.23,23.12-95.51,48.13c-31,16.38-61.86,33.13-92,51-13.76,8.18-27,17.71-35.48,31.57-8.21,13.39-11.65,29.24-12.39,44.78-1.54,32.6,8.64,64.38,16.44,95.62,3.8,15.22,7.24,30.64,8.24,46.33,1,16.26-1.07,31.78-5.48,47.43-8.91,31.6-22.06,63.12-10,95.87,5.65,15.41,14.63,29.26,23.41,43,8.43,13.2,17.42,26.44,29,37.11,23.27,21.41,54.92,27.41,81.3,43.62,22,13.54,39.6,33.08,57,51.89,17.7,19.11,35.86,38.58,58.47,52,28.34,16.8,60.57,19,92.79,17.52,36.26-1.65,72.49-4.8,108.54-9,32.8-3.84,66.29-7.83,96.46-22.14s52.32-40.25,73.9-65c23.77-27.27,46.95-55.12,69.13-83.7,9.88-12.74,19.52-25.86,26.21-40.61a119,119,0,0,0,10.29-49.94c0-17.79-3-35.4-5.28-53-2.26-17.08-4.06-34.22-5.76-51.36-6.69-67.79-11.37-137.62-35.89-201.86-19.48-51-52.45-98.79-98.5-129.15a175.47,175.47,0,0,0-75.77-28.08c-14-1.66-29.9-.82-39.75,10.63-4.08,4.75-6.7,10.27-9.28,15.91-2.16,4.74-4.31,10.34-8.41,13.75-4.92,4.1-12.43,3.28-18.43,3.21q-12.75-.13-25.46-1.09a386.11,386.11,0,0,1-50-7.06,401.28,401.28,0,0,1-48.38-13.31c-10.3-3.55-24-8.42-27.24-20.12l-5.24,9.23c11.46-2.51,27.35-4.27,37,2.82a14.08,14.08,0,0,1,3.49,4.21,13.17,13.17,0,0,1,0,10.29c-3,7.63-10.45,12.9-17.7,16.14-16.24,7.25-35.29,5.45-52.13,1.58-21-4.84-41.29-12.71-62.91-14.57-18.05-1.55-35.35,3.64-46.53,18.39C302,230.9,298.35,246.52,299.77,261a63.71,63.71,0,0,0,6.33,22.61c3.89,7.8,9.53,14.57,13.54,22.3,3.63,7,4.71,14.22.44,21.17-4.5,7.33-12.18,12.72-19.15,17.51a170.12,170.12,0,0,1-29.64,16.36c-4.6,1.95-9.32,3.66-14.08,5.18-2.69.86-5.4,1.66-8.13,2.38-1.83.48-5.23,1.91-7.16,1-2.74-1.31-3.11-6.78-3.47-9.38a81.1,81.1,0,0,1-.43-16.41,79.47,79.47,0,0,1,9-31.44l-8.47,3.45a80.68,80.68,0,0,1,25.06,13.9c6.89,5.72,14.32,12.89,17.55,21.45,5.82,15.48-9.59,23.36-21.67,29-7,3.26-14.29,6.13-20.94,10.11a69.79,69.79,0,0,0-20.48,19.07,68.65,68.65,0,0,0-11.79,52.86,70.11,70.11,0,0,0,35.85,48.05c4.62,2.41,9.24.14,11-4.49,6.48-16.79,8.48-36.75,3.51-54.24-2.41-8.51-7.5-15.92-15.45-20.1-7.3-3.84-15.81-5.28-24-5.12-33.88.68-60.73,27-71.68,57.42-5.8,16.14-7.66,33.71-7.25,50.77.35,14.33,2.39,28.72,7.36,42.21,4.62,12.52,11.44,24.92,21.84,33.57a52.42,52.42,0,0,0,17.9,10c7.56,2.38,15.34,2.11,23.16,2.15,7.48,0,14.41,1.34,18.54,8.12,3.52,5.79,4.56,12.82,4.74,19.49.54,19.35-4.6,39.44-10.67,57.66l13.71-1.79a156.2,156.2,0,0,1-27.38-72.2,160.27,160.27,0,0,1-.88-19.59c.08-4.72.12-9.85,2.06-14.26,5-11.35,18.26.92,23,6.14,30.38,33.2,47.63,75.81,71.74,113.31,13.8,21.47,29.95,41.17,50.54,56.45,3.2,2.37,8.48.57,10.26-2.69,17.82-32.54,1.79-75-30.29-91.65-17.22-8.94-37-11-56-7.72-9.06,1.58-18.74,4.46-26.67,9.23-10.18,6.12-13.36,16.51-10.79,27.78,4.25,18.64,16.94,36.57,31.32,48.81s32,19.09,47.34,29.74c6.82,4.72,13.43,10.69,17.21,18.2,1.6,3.17,2.95,7.43,1.63,11-1,2.67-3.9,4.88-6.26,4.31.71.17-1.32-.74-.29-.07-.14-.09-1.46-1.79-.78-.81a5.89,5.89,0,0,1-.9-2.67,17.72,17.72,0,0,1,1.43-8.35c2.38-5.43,8.74-9.77,14.6-12.06,15.41-6,33.87-2.52,48.28,4.64,18.15,9,33.21,23,49.47,34.91,16.06,11.72,33.65,20.69,53.67,22.71,18.46,1.87,37.5-4.14,49.29-19a66.42,66.42,0,0,0,13.38-52.15c-3-17.63-15.27-32.31-33.46-34.92-36.94-5.28-74.3,26.38-75.68,63.44a65.55,65.55,0,0,0,18.27,47.17c13.63,14.08,33.26,19.47,52.44,17.36,20.79-2.28,40-10.78,59.76-16.95,4.63-1.45,9.3-2.78,14-3.83,4.47-1,9.93-2.25,14.19.11,5.51,3.05,7.36,10.68,6.69,16.52-1.11,9.84-8.06,18.57-13.69,26.29l11.78-1.52a72.71,72.71,0,0,1-18.88-35.24c-1.09-5-2.18-11.67,2.13-15.5,3.39-3,8.45-4,12.83-4.42,6.23-.67,12.53-.45,18.77-.74,7.63-.36,15.22-1.13,22.78-2.18A237.9,237.9,0,0,0,696,834.88a245.55,245.55,0,0,0,46.76-21.66c7.36-4.41,2.48-15.7-5.78-13.71-18.6,4.47-34.12,18.47-41.69,35.9-6.12,14.11-12.11,52.26,13.08,51.08,10-.47,20.43-7.35,28.69-12.53a165.59,165.59,0,0,0,23.52-17.9,169.26,169.26,0,0,0,36.17-47.2,164.81,164.81,0,0,0,18.15-64.77c.28-4.17-3.66-7.34-7.5-7.5a108.15,108.15,0,0,0-50,10.07c-13.82,6.4-29.64,17.07-32.9,33.09-3.2,15.79,8.62,27.48,23.56,29s29.66-5,43.47-9.76l62.67-21.5c3-1,5.66-3.82,5.51-7.24a202.32,202.32,0,0,1,33.61-120.88h-13c8.9,14.71-5.39,34.84-21.58,37-17.82,2.42-30.94-16.8-32-32.73-1.39-21,15.1-37.13,34.25-42.78a58.74,58.74,0,0,1,15-2.46c6.06-.17,12,1.14,18,1.1,15.45-.12,22.76-11.88,27.22-25.09A98.53,98.53,0,0,0,925.92,543c-1.31-12.45-3.94-28.69-17.92-32.83-11.51-3.42-23.24,3.67-31.65,10.88-5,4.3-9.07,9.51-13.3,14.56L848,553.57c-2.2,2.63-4.33,5.34-6.67,7.85-1.23,1.31-3.21,3.78-5.24,3.49s-4.2-3.31-5.52-4.68c-2.15-2.21-4.24-4.49-6.28-6.81a188,188,0,0,1-21.82-30.78,192.55,192.55,0,0,1-23.8-70.44,177.27,177.27,0,0,1-1.44-19.13c-.07-3.78-.54-10.46,3.18-12.86,3.94-2.54,10.3,1.24,13.67,3.22,5.58,3.27,10.92,7.05,16.2,10.78a368.11,368.11,0,0,1,60.15,53.37q6.87,7.56,13.32,15.5c3.87,4.74,10.83,1.47,12.54-3.31,9.62-26.91,3.36-56.27-8.95-81.2-12.88-26.09-33.22-47.57-51.49-69.89C819,328.11,806,305.32,791.51,283.13s-31.3-42.84-54.81-55.63c-25.94-14.12-55.94-19.42-84.62-25-31.58-6.16-63.46-11.26-95.45-14.76-19.78-2.16-46.65-.88-58.35,18.08a31.69,31.69,0,0,0-.57,31.7c5.33,9.85,15.21,17.14,25.15,21.85,12.54,5.93,26,8.13,39.72,9.25a187,187,0,0,0,47.36-2.32c7-1.22,13.71-3.57,18-9.6,3.6-5.12,4.05-11.65,2.51-17.58-1.61-6.23-5.29-11.85-9.44-16.68s-9.41-8.58-13.52-13.49c-3.4-4.07-6-8.42-4-13.64l-7.23,5.5C631,200.11,668.75,216,689,245.2c4.93,7.12,9.08,15.22,10.14,23.92a31.35,31.35,0,0,1-.78,11.93c-.39,1.42-1.59,5.95-3.59,6-2.2.09-4.77-5.66-5.51-7a96.59,96.59,0,0,1-6-13.16,103.57,103.57,0,0,1-6.29-28.65c-.4-5.83-1.87-16.65,4.8-19.73,5.94-2.73,14.23.21,19.77,2.6,17.78,7.7,34.74,18.47,50.43,29.77a289.17,289.17,0,0,1,43,37.55c1.87,2,4.36,4.52,3.31,7.49-1.43,4.09-5.78,7.62-8.88,10.44-6.51,5.91-14,10.58-21.7,14.83-9,4.95-18.24,9.27-27.32,14-8.48,4.38-21.83,9.72-21.55,21.2.15,6,3.84,10.61,7.61,14.85a122.38,122.38,0,0,0,11.11,11,131.64,131.64,0,0,0,27.47,18.43c4.72,2.37,9.11.17,11-4.48a403.17,403.17,0,0,1,43.72-79.38h-13c8.82,17.32,18.23,34.46,26.27,52.15,6.12,13.46,12,29.39,9.87,44.44-3.92,27.56-37.17,32.58-51.6,52.77a30.26,30.26,0,0,0,.49,36.18c8.82,11.32,24.26,16.38,38.2,14,15.65-2.71,28.07-14.95,36.28-27.85,9.44-14.85,13.68-32.1,20.42-48.18a109.42,109.42,0,0,1,5.33-11c1.14-2,2.86-6.33,5.56-6.57,2.17-.19,5.21,2,6.78,3.24a23.3,23.3,0,0,1,5.74,7.19c6.58,12,6.12,27.22,5.14,40.42-1.13,15.2-4.55,30.7-11.71,44.25a72.05,72.05,0,0,1-31.73,31.13c-28.15,14.19-61.79,13-92.2,18.29-8,1.4-16.13,3.89-21.59,10.34a27.11,27.11,0,0,0-6.21,18.72c.57,14.14,8.87,28,19.85,36.63,11.32,8.88,25.22,14.83,34.85,25.75,11,12.47,7.07,29.66.35,43.26-13,26.43-38.15,44.32-64.77,55.48-30.79,12.9-65.9,19.21-99.21,16.64-16.9-1.31-34.37-5.35-49.29-13.61-11.94-6.6-23.23-17.21-23-31.84.09-5.61,1.93-11.48,6.12-15.39,5.15-4.8,13-5.28,19.59-4.2,13.76,2.26,26.28,10.47,34.69,21.48a56.49,56.49,0,0,1,11.69,39.68c-1.41,14.45-8.72,28-18,38.86-21.29,24.81-53.65,42.17-85.75,47.6a97,97,0,0,1-49.75-4.67c-15.66-5.72-30-14.63-44.73-22.25a204.08,204.08,0,0,0-23.59-10.57c-7.39-2.69-16.42-6.08-24.25-3.29-17,6.07-9.17,29.31.54,38.25,10,9.19,24.57,13.31,37.95,11.94,16.45-1.67,30.67-11.06,43.56-20.75,13.56-10.2,26.86-20,42.37-27.15s32.34-11.86,49.1-15.46c17-3.64,34.16-6.1,51.35-8.42,2.93-.39,8-1.88,10.79-.35,2,1.1,2.07,3.92,2.08,5.92.08,8.11-2.66,16.63-4.77,24.39A233.69,233.69,0,0,1,609.56,874c-3,5.47.9,10.54,6.47,11.28,24.59,3.28,50.39-2.91,71.16-16.39a104.05,104.05,0,0,0,43.59-59.58,107,107,0,0,0,3.58-37.85,105.47,105.47,0,0,0-3.3-18.83c-1.79-6.49-4.9-12.75-5.94-19.42s2-12.79,4.85-18.65q4.39-9.17,9.56-17.93a230,230,0,0,1,23.69-33.19c8.24-9.57,17.07-19.58,28.24-25.78,4.66-2.59,10.37-4.9,15.82-4.1,5.61.82,8.9,5.5,13.67,8,12.85,6.77,23.43-3.56,27.67-15.1,2.19-6,2.87-12.48,3.72-18.73,1-7.36,1.72-14.75,2.09-22.17,2.87-58.16-13.84-115.82-40-167.31-12.9-25.38-28.17-49.5-44.74-72.64-16.34-22.84-33.55-45.57-52.33-66.47-16.67-18.55-37.91-37.4-63.53-41A59.44,59.44,0,0,0,618,244.48c-10.23,5.26-19,12.88-28.26,19.56-8.71,6.25-18.28,12.11-29.27,12.67s-21.34-3.48-30.8-8.81c-21.67-12.2-39.8-29.71-63.32-38.65A119.35,119.35,0,0,0,389,227.31a115.39,115.39,0,0,0-59.39,44.05c-14.3,20.32-21,44.07-21.43,68.74-.06,3.41-.05,8-4.27,7.62-4.88-.43-9.67-4.1-13.1-7.3-8.74-8.17-18.09-18.83-20-31.11-3.78-25,29.84-30.83,47.17-35.41l92.11-24.34,44.49-11.76-5.78-13.71A260.54,260.54,0,0,0,327.74,415.44c-1.25,11.13-2.1,22.36-5.62,33.07-2.86,8.71-8.37,17.26-18,19.05-11.93,2.22-23.55-7.25-28.89-17.12-7.84-14.5-6.68-32.4-6-48.3l-12.8,5.3c13.76,14.62,13.58,37.72,5.07,54.94-5,10-12,18.61-20.21,26.2s-17.69,13-25.61,20.51c-9,8.54-12.05,19.62-8.47,31.55,3.29,10.94,8.63,21.62,14.59,31.32a157.33,157.33,0,0,0,46.63,48.4c5.61,3.74,11.95,7.27,18.94,6.73a23.73,23.73,0,0,0,16.28-8.74c10-12.12,7.3-27.45,3.51-41.46l-9.23,9.23c22.71,8.33,36.46,30.24,45.72,51.37,10.49,23.94,15.67,49.81,26.49,73.65,11.41,25.14,29.69,46.07,56.2,55.52,24.12,8.6,56.32,7.31,75.28-11.9,10.33-10.46,14-25,7.9-38.63-5.6-12.58-19.06-21.68-33-17.65A7.58,7.58,0,0,0,473.16,711a372.06,372.06,0,0,0,83.3,65.27c29.73,17.05,65.93,30.82,98.77,13.69,13.63-7.11,25-18.78,32.53-32.09s12.92-30.5,7-45.36c-6.21-15.52-23.28-22.08-39.08-21.28a60,60,0,0,0-39.14,17.47c-24.84,25-18.91,67.42,9.57,86.94l-1.52-11.78c-6.8,5.91-18.14,4.24-26.36,3.77-11.61-.68-23.23-1.44-34.82-2.45-23-2-45.87-5-68.34-10.27-39.18-9.18-77.17-25.71-106.62-53.74C373.48,707,360.92,690,353.1,670.84l-11,8.47c20.76,12.82,30.54,40,25.17,63.43A53.3,53.3,0,0,1,360,760c-1,1.57-2.7,4.76-4.81,4.65-2.55-.13-5.94-5.21-7.39-6.84a361.81,361.81,0,0,1-33-43.66c-9.3-14.45-19.81-30.41-22-47.84-1.78-14.14,3.5-27.18,11.53-38.54,16.72-23.69,41.73-40.1,57-65.07C392,512.49,387.84,441.55,348.36,397.1c-5.49-6.19-12.41-11.84-20.59-13.9s-16.59-.43-23.84,3.62c-14.42,8.07-22.84,24.08-25,40a63.4,63.4,0,0,0,11.27,45.89c4.46,6.14,9.73,11.78,13.42,18.44a20.85,20.85,0,0,1,2.85,8.29,11.86,11.86,0,0,1-1.24,6.73,16.46,16.46,0,0,1-9.34,7.29,22.91,22.91,0,0,1-14.53.36c-10.86-3.39-15.07-17.05-14.39-28.13A41.54,41.54,0,0,1,272.18,468a12.29,12.29,0,0,1,3.17-4.08c.51-.37,1.07-.17,0-.46,2.22.59,3.74,6.83,4.35,8.59a95.21,95.21,0,0,1-3.92,72.51l14,3.79c-.67-15-2.3-35.07,9.47-46.58a24.52,24.52,0,0,1,15.08-7.06c6.81-.43,10,3.31,14.52,7.94,6.22,6.34,15,9,22.44,2.84,6.14-5.1,10.31-13.72,13.6-20.85a119,119,0,0,0,11-48.78,115.52,115.52,0,0,0-13.41-55.18c-2.56-4.83-10.42-5-13,0a23.39,23.39,0,0,0,3.65,27c2.38,2.57,6.17,2.62,9.09,1.18,16.27-8.05,25.55-33.6,9.63-46.76-14.59-12.07-39.64-5-39.51,15.95.12,20.24,19.15,35.39,36.78,41.08a83.75,83.75,0,0,0,53.76-1.4c18.8-7.06,35.84-22.39,34.25-44.15s-17-41.24-33.6-54.13A105.28,105.28,0,0,0,396.1,304.1c-4.56-1.74-10.7-4.71-15.39-2.32a28.46,28.46,0,0,0-9.63,8.66c-10.05,13.66-7.77,34.14,3,46.66,13.09,15.29,36.3,15.46,53.3,7.45,18.68-8.8,29.59-28.78,32.93-48.47,3.11-18.31,2.67-41.66-11.72-55.49-16.47-15.81-42.06-9.37-58,3.84-14.34,11.91-24.45,35.9-8.26,50.76,14.64,13.42,36.52,6.42,53.46,2.64,42.84-9.55,92.17-3.82,130,19.36,15.2,9.32,29.37,23.72,30.39,42.48.43,7.92-1.1,15.83-5.48,22.52-4.91,7.47-13.5,11.18-22.14,12.21-36,4.28-71.09-23.67-82.1-56.8a76.18,76.18,0,0,1-4-24.91c.08-9.65-14.92-9.66-15,0-.44,48.79,40.42,93.2,89.06,96.82,13.69,1,27.94-1.61,38.81-10.4,9.45-7.65,14.29-19.37,15.58-31.21C613.8,361.67,597,339.64,576,326c-23.89-15.61-53.13-23.67-81.3-26.46a195.81,195.81,0,0,0-43.89.63A204.82,204.82,0,0,0,429,304a158.18,158.18,0,0,1-16.8,3.54c-8.26,1.05-21.31,1-23.1-9.62-1.62-9.59,7-19.62,14.36-24.51,9.21-6.11,23.07-11,33-3.56C445,276.34,446.83,289,446.81,299c0,23.19-10.07,49.73-35.1,55.17-9.35,2-20.83.14-27.06-7.68a24.68,24.68,0,0,1-3.35-23.93,16,16,0,0,1,7-7.85l-5.78.76c19.67,5.25,37.6,17.25,49.32,34,5.91,8.44,11.65,19,10.31,29.71-1.1,8.71-7.26,15.42-14.5,19.84-14.92,9.11-34.55,11.13-51.32,6.64-8.13-2.18-15.76-6.05-21.55-12.26-4.33-4.64-11.12-15.74-5.33-20.7,3.48-3,12.06-2,14.61,3.19,3.88,7.81-2.49,16.68-9.35,20.08l9.09,1.17a7.87,7.87,0,0,1-1.31-8.88h-13c14.64,27.62,15.21,62.39,1.58,90.55a100.52,100.52,0,0,1-5.57,10,50.4,50.4,0,0,1-3.14,4.51c-.91,1.16-1.34.51-.46.88-2.49-1.05-4.39-4.3-6.24-6.17a28,28,0,0,0-9.84-6.46c-13.28-5.21-29.52.87-38.69,11.13-13.44,15-13.25,36.74-12.41,55.67.3,6.89,10.54,10.91,14,3.78a111.1,111.1,0,0,0,11.09-54.94,109.22,109.22,0,0,0-5.21-27.81c-2.63-7.94-6.22-18.26-15.49-20.36-18.59-4.21-26.31,23.12-27.16,36.66-.94,15,5.1,32,18.73,39.73,11.42,6.5,27.17,5.72,38-1.71,13.44-9.2,15.74-25,8.44-39.09-3.79-7.31-9.59-13.32-14.35-20a49.39,49.39,0,0,1-9.17-22.41c-1.92-14.9,3-33.11,16.32-41.55,6.61-4.18,13.57-4.53,20.17-.11,6.39,4.28,11.36,11.13,15.59,17.46a123.36,123.36,0,0,1,17.77,42c6.57,29.5,2.86,61.73-11.34,88.52-14.86,28-42.21,45.68-60.42,71.19-8.92,12.5-14.86,27.44-14.17,43,.89,20,11.2,38,21.54,54.57a386.48,386.48,0,0,0,35.7,48.3c5.92,6.85,12.8,15.31,22.93,13.93,8.83-1.2,14.39-9.59,18.15-16.93,13.53-26.33,8.77-59.53-9.83-82.17a65.72,65.72,0,0,0-16.36-14.1c-5.14-3.18-13.56,2.24-11,8.47,15.74,38.59,46.38,68.54,82.54,88.48,42.15,23.25,90.22,32.08,137.66,36.48,14.1,1.31,28.24,2.27,42.39,3,12.14.65,24.35,0,33.93-8.33,3.9-3.39,2.19-9.24-1.51-11.78-18.87-12.93-24.12-41.63-9.8-59.78a45.18,45.18,0,0,1,28.74-16.43c10.07-1.41,24.25.88,28.3,11.65,4.32,11.48-1.62,25.08-7.64,34.79a66.52,66.52,0,0,1-27.2,24.9c-27.18,13.22-58.07-.76-82-14.51a357.38,357.38,0,0,1-80.27-62.92L480.45,713c8-2.32,14.75,5.46,16.66,12.94,2.33,9.1-3.91,17.61-11.19,22.44-19.2,12.75-46.19,10-65.66-.67-21.07-11.55-33.26-32.73-41.53-54.54-8.5-22.39-14-45.81-24.17-67.56-11-23.49-27.7-44.74-52.7-53.9-5.52-2-10.62,4.06-9.22,9.22,2.38,8.8,6.52,21.86-1.63,29-3.16,2.78-6.29,2.61-9.91.71a88.21,88.21,0,0,1-12.53-8.46,142.09,142.09,0,0,1-39-46.74,126.44,126.44,0,0,1-5.67-12.29c-1.88-4.77-4.64-10.69-3-15.89,2.47-7.84,11.64-12.56,17.78-17.19,17.16-12.93,32.39-29,39.71-49.57,7.6-21.34,4.36-46.84-11.45-63.64-4.63-4.93-12.55-.94-12.8,5.31-.63,15.74-1.14,32.27,4.33,47.31,4.68,12.88,13.75,24.15,26.49,29.76s26.68,4.51,37.56-4.35c9.08-7.39,13.66-19,16.15-30.14,2.72-12.22,3.17-24.76,5.08-37.1a243.58,243.58,0,0,1,9.42-39.05,250.14,250.14,0,0,1,37.11-70.94A240.15,240.15,0,0,1,456.46,237c7.19-4.42,2.57-15.91-5.77-13.7l-91.33,24.13-46.05,12.17c-12,3.18-24.37,6-35.38,12-10.14,5.53-18.83,14.47-21.36,26.05-2.87,13.22,2,26.47,9.63,37.22,7.27,10.26,16.59,20.69,28.46,25.55,12.62,5.19,26.1-.18,28.11-14.54.84-6,.37-12.06,1-18.08a96.93,96.93,0,0,1,3.47-17.2,107,107,0,0,1,15-31.25,99.34,99.34,0,0,1,58.35-39.76c24.12-5.78,50.59-2.83,72.48,9,21.44,11.59,39.17,29.26,62,38.39a59.6,59.6,0,0,0,35,3.35c11.18-2.45,21-8.78,30.09-15.5s18-14.46,28.53-19c10.22-4.39,21.27-4.36,31.75-.95,24.08,7.83,42.2,29.25,57.71,48.17,18,21.94,35.32,44.45,51.11,68.05,31.75,47.47,57.11,99.66,66.69,156.36,4.74,28,5.39,57.12.57,85.16-.83,4.87-1.67,10.61-5,14.54a4.33,4.33,0,0,1-2,1.5c-2.2,0-4.26-2.34-5.91-3.63-11-8.57-24.19-7.85-36.35-2.17-11.85,5.53-21.34,15.09-30,24.62a252,252,0,0,0-25.52,33.12c-7.52,11.64-14.67,24.13-19.51,37.14a36.4,36.4,0,0,0-1.13,21.44c1.54,6.52,4.34,12.67,6,19.17a92.68,92.68,0,0,1-10.78,70.06c-12.36,20.33-33,34.47-56,40.09A92.47,92.47,0,0,1,616,870.29l6.48,11.29a251.31,251.31,0,0,0,21.64-54.11c3.79-14.13,12.08-40.29-6.77-47.57-8.32-3.21-18.32-.37-26.83.8-9.17,1.27-18.34,2.62-27.46,4.2-17.66,3.07-35.24,7-52.14,13.08a184.37,184.37,0,0,0-47.8,25.13c-13.46,9.95-26.76,22.19-43.23,26.84-10.88,3.06-24.66,1-32.94-7.14a17.88,17.88,0,0,1-4.2-6c-.62-1.45-2-5.28-1.06-7.06.24-.47-.78.54-.19.15a2.48,2.48,0,0,1,1.35-.14,38,38,0,0,1,5.07,1A120.08,120.08,0,0,1,420.49,835c16.14,6.42,30.88,15.91,46.43,23.54,16.51,8.1,33.71,13.91,52.24,14.4,36,1,72.41-15.26,99.94-37.73,25.2-20.57,44.6-52.07,37.11-85.62-6.69-30-36.25-58.21-68.43-55.94-17.44,1.23-29.8,13.48-31.9,30.69-2,16.29,6.21,31.37,18.72,41.37,29.08,23.24,71.33,26.53,106.94,22.31,33-3.92,66.36-13.36,94.43-31.59a132.36,132.36,0,0,0,34.72-32.13c9.88-13.38,18-30.56,17.77-47.48-.22-17.72-11-30.41-24.73-40.21-11.54-8.24-25.3-14.18-32.61-27-2.73-4.77-5-11-4.4-16.09.74-6.59,5.83-9.54,12.26-11,16.19-3.69,33.1-4.49,49.53-6.74S861,570.3,876,563.44a85.78,85.78,0,0,0,37-32.26c8.91-14.09,13.73-30.45,16-46.86,2.11-15.42,3-31.95-1.32-47.09-3.86-13.72-15.14-30.54-31.47-29.5-9.92.64-15.2,9.76-19.2,17.71-4.23,8.41-7.43,17.31-10.62,26.15-5.59,15.49-11.68,31.76-24.64,42.69-9.9,8.36-23.94,10.65-34.69,2.4-4.15-3.19-6.79-7.63-6.7-12.74.08-4.53,2.2-8.59,5.41-12,8.36-8.95,20.06-14.22,29.79-21.62,12.94-9.85,21.28-22.51,22.46-39.06,1.24-17.25-5.09-34.43-12.11-49.87-8-17.69-17.45-34.83-26.26-52.15-2.76-5.42-9.94-4.28-13,0a419.29,419.29,0,0,0-45.22,83l11-4.48A116.43,116.43,0,0,1,746,369.81a93.18,93.18,0,0,1-10.42-10.7c-.51-.64-1.9-2-1.89-2.83,0,.25-.38.88,0,.16.93-1.64,4-2.81,5.51-3.66,17.68-10,37-17.31,53.24-29.7,8-6.06,17.49-13.73,20.31-23.76,3.36-12-6.47-20.84-14.11-28.36a333,333,0,0,0-52-41.76,322.07,322.07,0,0,0-28-16.29c-8.75-4.51-17.61-8.8-27.5-10-9.66-1.16-19.66,1.78-25.14,10.33-5.67,8.85-4.72,20.74-3.54,30.71a120.2,120.2,0,0,0,8.77,33.16c3.83,9,9,21.53,19.45,24.41,11.18,3.08,19.49-6.74,22.14-16.5,2.84-10.44,1.48-21.68-2.46-31.64-8.59-21.68-27-38.86-46.94-50.3a130.45,130.45,0,0,0-67.15-17.31c-3.6.07-6,2.34-7.23,5.51-4.94,12.61,3.75,24.66,12.4,33.1,4,3.88,8.39,7.25,11.41,12,1.76,2.77,4.61,7.52,3.21,11-1.72,4.24-9.5,4.39-13.2,5a165.51,165.51,0,0,1-21.45,1.82c-13.44.31-27.55-.42-40.57-4-13.88-3.81-38.34-16.52-30.93-34.32,6.68-16,32.83-14.66,47.23-13.05,29.17,3.26,58.23,7.88,87,13.41,26.34,5.05,54.29,9.51,78.71,21.09,45,21.35,62.49,69.89,90.86,107.45,29.75,39.38,76.29,79.11,72,133.45a68.19,68.19,0,0,1-4,17.6l12.54-3.31a384.36,384.36,0,0,0-62.5-60.84c-5.9-4.56-11.91-9-18.06-13.2-5.75-3.95-11.54-8.1-18-10.89-6.91-3-14.71-4.39-21.74-.93-5.89,2.9-9.66,8.84-11,15.15-2.69,13.08-.15,28,2.07,40.95a200.14,200.14,0,0,0,11,39.46c10.18,25.93,25.3,50.42,45.16,70.09,5.38,5.33,12.36,9.3,20.12,6.9,7-2.17,11.58-8.37,16.09-13.74l16.09-19.19c4.49-5.34,8.78-10.93,14.24-15.34,3.69-3,8.51-6.19,13.34-6.55s6.74,4.17,7.85,8.6a84.34,84.34,0,0,1-1,43.36c-1.53,5.33-3.45,13.18-8.2,16.73-4.55,3.41-12.44.9-17.59.54a74.3,74.3,0,0,0-36.21,7.06c-22,10.21-37.19,32.48-33.91,57.09,2.9,21.9,20,43.71,43.62,43.82,22.21.11,43.25-21.29,42.31-43.62a33.63,33.63,0,0,0-4.84-16.12c-3-5-9.85-4.67-13,0A216.12,216.12,0,0,0,844.7,770.25l5.51-7.23-47.39,16.26-23.69,8.13c-6.12,2.1-12.18,4.38-18.53,5.66-7.25,1.46-19.88,2.53-21.56-6.59-.93-5,2.68-10.12,5.91-13.58,4.58-4.91,10.31-8.38,16.24-11.44a92.22,92.22,0,0,1,46.19-9.87l-7.5-7.5c-2.21,33.32-16.54,65.56-38.88,90.27a149.94,149.94,0,0,1-38.79,30.92,94.75,94.75,0,0,1-10.08,5c-1.17.48-3.52,1.61-4.92,1.21-.79-.23-1.05-1.11-1.43-2.66-1.72-7-1-14.52,1-21.4,4.72-16.17,17.73-29.53,34.22-33.5l-5.78-13.7a227.45,227.45,0,0,1-91,31.06c-8,.9-16,1.31-24,1.45-6.44.11-13,.42-19.28,2-6.45,1.64-12.45,4.88-16.5,10.25-5.1,6.76-5.45,15.08-4.19,23.16,2.69,17.23,11.41,33.37,23.48,45.84,3.64,3.76,9,2.26,11.78-1.52,11.18-15.33,22-34.67,11.4-53.32-11.34-19.92-35.38-12.44-52.92-6.74-31,10.08-75.94,31.21-99.39-3.93-8.77-13.15-11.29-29.46-5.8-44.38,5.39-14.63,18.54-26.57,33.11-31.71,8-2.8,17.08-4.4,25.37-2.24,6.83,1.78,11.71,6.36,14.87,12.54,6.91,13.51,4.19,31-3.06,43.71-8.79,15.42-24.66,21.21-41.77,19.42-18.42-1.92-34.4-11.89-48.9-22.72-15.78-11.8-30.73-25.51-48.77-33.86-15.87-7.35-34-10.92-51.32-7-16.38,3.67-31.49,15.18-33.34,32.7-.76,7.15,1.41,14.77,7.31,19.24,7.76,5.86,18.4,3.84,24.91-2.94,15.67-16.31-.17-39.27-14.07-50.36s-30.53-17.69-45-27.83-26.46-25.66-32-42.66c-1.12-3.45-2.69-8.33-.56-11.72,1.93-3,6.21-4.56,9.42-5.86a79.91,79.91,0,0,1,26.41-5.75c16.92-.71,34.75,3.92,47.4,15.64a56.54,56.54,0,0,1,18,42,44.56,44.56,0,0,1-5.43,20.66l10.26-2.7c-38.46-28.51-58.43-74.41-81.91-114.61-6.05-10.37-12.39-20.59-19.38-30.37-7.14-10-14.84-20.83-24.43-28.63-10.36-8.43-25.79-13.65-36.35-2.34-8.77,9.39-8.26,24.44-7.77,36.38A171,171,0,0,0,222,713.33c3.72,5.35,11.59,4.55,13.71-1.8a227.73,227.73,0,0,0,10.9-51.95c1.09-12.47,0-26.84-7-37.58a31.36,31.36,0,0,0-14.88-12.27c-8.21-3.23-17-2.14-25.6-2.44-11.54-.4-21.24-6.37-28.31-15.3-16.13-20.36-18.93-49.26-17-74.23,2.24-29.42,15.37-59.37,43.65-72a51.66,51.66,0,0,1,21.71-4.58c7,.11,15.78,1.57,20.22,7.67,4.88,6.7,5.14,17.07,5,25a80,80,0,0,1-5.6,27.79l11-4.49a55.61,55.61,0,0,1-29.17-40.25c-2.71-16.92,4-34.57,16.07-46.44,11.57-11.36,27.94-15,41.5-23.22,6.32-3.85,12.48-8.88,15.91-15.58,4.61-9.05,4.2-19,.13-28.21-9.06-20.44-31.15-35.16-51.61-42.22a7.55,7.55,0,0,0-8.47,3.45A97.62,97.62,0,0,0,223.59,338c-1.3,10.21-1.46,21.84,1.6,31.79,1.41,4.6,3.82,8.94,7.84,11.75,5.18,3.62,11.36,3.4,17.28,2.08,10.71-2.37,21.17-6.42,31.14-10.91a173.69,173.69,0,0,0,28.21-16c8.46-5.92,16.93-12.36,22.72-21.06a33.22,33.22,0,0,0,3.67-29.41c-3.36-9.65-9.69-17.59-14.83-26.29a49.39,49.39,0,0,1-3.61-42.23,36,36,0,0,1,11-15.56c7.34-5.79,16.79-7,25.86-6.52,23.48,1.17,45.59,11.27,68.5,15.63,20.08,3.83,42.08,3.89,60.45-6.19,9.92-5.45,19.13-14.42,21.92-25.73,2.35-9.51-.36-20.18-7.91-26.67-13.78-11.85-35.13-10.4-51.7-6.78-4,.87-6.27,5.48-5.24,9.23,3.76,13.72,15.71,21.76,28.16,27,15.17,6.37,31.4,10.77,47.38,14.56a418.32,418.32,0,0,0,51.44,8.76q12.67,1.36,25.41,1.93c8.29.36,16.87,1,25.13,0,7.18-.84,13.82-3.51,18.75-9,4-4.42,6.59-9.69,9-15.07,2.26-4.94,4.4-10.44,8.3-14.36,4.38-4.4,10.76-5.41,16.73-5.47,25-.25,50.73,9.53,71.89,22.14,44.82,26.69,77.75,72,97,119.8,24.81,61.65,30.14,129.05,36.51,194.53,1.62,16.66,3.29,33.31,5.32,49.91,2.13,17.32,5.12,34.58,6.18,52,1,16.48-.08,32.89-6,48.45-5.49,14.51-14.63,27.55-24,39.83-21,27.71-43.52,54.42-66.28,80.72C770.66,815,749.7,841.39,721,856.47c-28,14.75-60.52,18.65-91.54,22.33q-53,6.29-106.41,9.08c-30.82,1.59-61.91,1.07-89.25-15-21.55-12.63-38.7-31.34-55.52-49.49-17.58-19-35.3-38.27-57.1-52.53-24.33-15.91-54.78-21.34-77.5-39.82C231.86,721.46,223,709,214.76,696.31c-8.45-13.07-17.66-26.41-23.27-41s-6.21-29.75-3-45.12c3.23-15.71,8.94-30.75,13.16-46.19a149.73,149.73,0,0,0,5.56-47.26c-.81-15.83-3.85-31.49-7.54-46.88-7.25-30.2-17.54-60.36-17.4-91.76.07-14.49,2.58-29.44,10.13-42,7.77-12.94,20.67-21.07,33.4-28.49q44.64-26,90.43-50,46.24-24.44,93.42-47.06c31-14.86,62.16-30.12,94.13-42.78,15.27-6.05,30.82-9.81,47.31-7.44,16.78,2.41,32.73,8.87,48.74,14.16a748.58,748.58,0,0,0,99.57,25.41c17,3.11,34,5.52,51.14,7.6,15,1.83,30.7,3.94,43.85,11.86,12.53,7.53,21.27,19.79,29.09,31.84,8.94,13.79,17.42,27.9,25.56,42.18a926.35,926.35,0,0,1,45.24,90.48c12.84,29.61,24.89,60,31.93,91.59,6.62,29.69,8.29,61.24-2.33,90.23-5.48,14.94-15.13,27.75-22.06,42-7.37,15.12-11.42,31.38-15.27,47.66A454.64,454.64,0,0,1,852.77,749c-7.3,15.11-15.1,30-23,44.81-7,13.21-13.57,27.5-24.1,38.36-10.12,10.43-23.58,15.8-37.35,19.58-14.7,4-29.71,6.74-44.39,10.88-33.07,9.33-64.94,22.34-97.76,32.47-32,9.86-65.3,16.91-98.91,14.43-30-2.22-56.69-14.12-81.63-30.31C422.12,863.9,400.38,846,376.4,831.39a211.62,211.62,0,0,0-38.3-18.67c-14.75-5.29-30.2-8.31-45-13.38a96.19,96.19,0,0,1-37.4-23C245.3,766,236.82,754,228.42,742.06l-30.79-43.79c-4.75-6.76-9.76-13.41-14.09-20.46-3.81-6.2-7.1-12.95-7-20.4.16-12.08,8.63-22.52,15.47-31.78,8.31-11.24,16.34-22.69,19-36.72,3-15.84.4-31.84-2.72-47.45C205,525,201.78,508.93,202.71,492c1.82-33.09,14.19-64.57,16.54-97.62,1-14.63.26-29.71-3.83-43.86a85.67,85.67,0,0,0-8.48-19.84c-3.7-6.23-8.73-11.43-12.77-17.42-3.24-4.81-5.18-10-3.11-15.68s6.76-10.07,11.26-13.81c5.23-4.35,11.23-7.73,17-11.25q10.46-6.31,21-12.58c28.23-16.75,57-33,87.39-45.53a362.53,362.53,0,0,1,46.66-15.86c15.74-4.12,31.75-7.15,47.5-11.23,15.41-4,30.64-9.13,44.64-16.81,12.84-7,24.68-15.72,37.14-23.38,10.86-6.67,22.67-13.24,35.52-14.92,14.9-1.94,27.15,4.7,39.8,11.59,7,3.8,14.16,7.3,21.82,9.47a115.32,115.32,0,0,0,25,3.82c15.65.88,31.33-.44,47,.39,50.66,2.7,104.56,24.12,127.7,72.15,12.34,25.63,17.44,54.68,36.39,76.81s49,29.73,69.44,50.11c18.52,18.45,28,43.67,32.48,69,5.3,30,2.33,60.18.24,90.35a462.52,462.52,0,0,0-.4,53.44c.81,17.29,1.83,34.67.16,51.94-3.1,32.19-19,60.58-37.13,86.7a715.87,715.87,0,0,1-62,77.3c-11.22,12.19-22.79,24.15-34.92,35.44-2.36,2.2-4.85,4.47-7.86,5.75-3.6,1.53-7.67,1-11.48,1.08a40.53,40.53,0,0,0-18.75,4.4c-20.21,10.57-26.89,36.1-38.73,53.89-7.56,11.34-18.61,18.64-30.77,24.37a379,379,0,0,1-44.39,17.18c-15.78,5.11-32.16,8.87-48.85,7.88-14.24-.86-27.37-6.15-39.63-13.17-24.77-14.17-47-33.75-75.92-39-31-5.67-62,2.33-93.09.48A86.83,86.83,0,0,1,353,870c-13.83-8.79-26.09-20-38.65-30.52l-41-34.22c-12.75-10.62-26.15-20.84-37.6-32.9C224.92,761,218,747.65,213.08,732.89c-5.23-15.57-9.45-31.45-14.75-47-21.16-62.1-50.16-125.36-42.3-192.62a145.82,145.82,0,0,1,12.33-44.48c6.48-13.87,15-26.63,23.77-39.14S210,384.69,217.64,371.4A203.68,203.68,0,0,0,235,331.17c16-50.35,18.73-111.71,66.22-144.53C345.13,156.33,403,157.5,453.91,161c57.93,4,120.8,9.83,173.11-20.79,8.32-4.87.78-17.84-7.57-12.95Z" transform="translate(-138.28 -117.02)"/><path class="cls-2" d="M547.15,275.47c-.69,1.84-1.42,3.68-2.17,5.51l-.16.38c-.2.48-.41,1-.62,1.45-.39.9-.8,1.8-1.2,2.7q-2.37,5.21-5.08,10.25a181.3,181.3,0,0,1-12.15,19.61q-1.71,2.42-3.5,4.77l-.61.79-.13.17-.49.62c-.61.78-1.23,1.55-1.85,2.31q-3.68,4.52-7.63,8.8a184.61,184.61,0,0,1-16.67,15.95c-1.46,1.23-2.93,2.44-4.43,3.62l-1.08.86-.47.36c.65-.5.1-.08,0,0-.78.6-1.57,1.19-2.36,1.78q-4.68,3.45-9.58,6.61a177.76,177.76,0,0,1-20.15,11.22,31.64,31.64,0,0,1-5.36,2.19c-.51.15-1,.29-1.56.4-.1,0-1,.21-.52.12s-.27,0-.3,0a13.66,13.66,0,0,1-1.57,0c-.11,0-1-.1-.52,0s-.76-.19-.73-.18c-.36-.1-.7-.22-1.05-.35,1,.36-.31-.21-.53-.35l-.45-.29c-.12-.08-.71-.56-.27-.18s0-.05-.1-.11l-.65-.62c-.3-.31-.57-.64-.86-.95.57.61-.1-.15-.29-.43a22.08,22.08,0,0,1-1.4-2.45c-.11-.23-.21-.46-.31-.69,0,0,.26.68.08.2s-.31-.82-.45-1.24c-.31-.91-.57-1.83-.79-2.76s-.4-1.91-.56-2.88,0,.55,0-.35c-.05-.58-.11-1.16-.15-1.75a40.69,40.69,0,0,1,.06-5.63c0-.46.08-.91.14-1.36,0-.19,0-.39.07-.58-.12.92,0,.22,0,0,.18-1,.34-1.93.56-2.89a43.79,43.79,0,0,1,1.62-5.46c.18-.49.37-1,.56-1.47.32-.81-.19.4.16-.38.44-1,.89-1.92,1.38-2.86a49,49,0,0,1,3-4.93l.8-1.14.47-.64.13-.17c-.24.31.5-.62.64-.79q.49-.62,1-1.2a50.13,50.13,0,0,1,4.24-4.26c.73-.65,1.49-1.27,2.25-1.89,0,0,.57-.45.2-.17s.29-.21.38-.28c.45-.33.9-.66,1.36-1a65.43,65.43,0,0,1,10.78-6,2.86,2.86,0,0,1,.48-.2l1.57-.62c1-.38,2-.74,3-1.07q2.91-1,5.89-1.71t6-1.26l1.46-.24.84-.13c.05,0,.75-.11.24,0s.33,0,.46-.05l.63-.08,1.89-.2a110.85,110.85,0,0,1,23.46.36l1.38.17c.53.06-.15,0-.21,0l.79.11L519,313c1.9.31,3.79.67,5.67,1.05q5.77,1.19,11.46,2.77c7.62,2.11,15.1,4.66,22.5,7.41,15,5.6,29.72,12,44.75,17.6S633.89,352,649.89,354c8.41,1,17.15,1.5,25.51-.16s16.69-6.61,20.28-14.74a20.11,20.11,0,0,0,1.45-12.87,4.55,4.55,0,0,0-5.54-3.15,4.61,4.61,0,0,0-3.14,5.54c.06.25.11.5.16.75,0,.09.07.71,0,.15s0,.71,0,.91a14.85,14.85,0,0,1-.06,1.49c0,.1-.12.7,0,.15s-.09.39-.12.51a18.94,18.94,0,0,1-.78,2.53c.34-.9-.15.27-.26.48-.27.52-.55,1-.86,1.51s-.51.74-.77,1.12.07-.09.11-.14c-.17.19-.33.4-.5.59a20,20,0,0,1-2.22,2.19c-.14.13-.3.25-.45.37-.51.44.56-.35,0,0-.39.23-.74.51-1.13.75-.91.56-1.87,1-2.84,1.5-.65.32.57-.2-.12.05l-.6.23c-.55.2-1.09.38-1.65.55-1,.32-2.09.58-3.16.8l-1.5.28-.87.13c.09,0,.64-.07.11,0-1.17.11-2.34.23-3.51.29a94.28,94.28,0,0,1-12.35-.28c-2-.15-4-.38-6-.62-.18,0-.89-.11,0,0l-.6-.08-1.39-.21c-1.06-.16-2.12-.33-3.17-.51-4-.69-7.91-1.55-11.81-2.53-7.75-2-15.37-4.4-22.89-7.11-15.41-5.54-30.42-12.12-45.73-17.92-14.91-5.65-30.2-10.6-46-12.75-16.62-2.26-34-1.73-49.83,4.37a66.26,66.26,0,0,0-22.3,13.81,54,54,0,0,0-13.36,21,45.26,45.26,0,0,0-1.63,24.51c1.89,8.58,7.52,17.24,17.13,17.6,5,.19,9.78-2.07,14.21-4.18q5.25-2.5,10.33-5.35a179.55,179.55,0,0,0,19.83-12.9,189.36,189.36,0,0,0,34.32-33,186.23,186.23,0,0,0,25-40.48q2.51-5.56,4.66-11.29c.83-2.21-.92-5-3.14-5.54a4.63,4.63,0,0,0-5.54,3.15Z" transform="translate(-138.28 -117.02)"/><path class="cls-2" d="M538.75,253.45l57,35.73c17.7,11.1,35.76,21.79,53,33.52,13.42,9.09,27,19.85,34.38,34.61,3.76,7.49,4.89,15.43,5,23.72s-.4,17.26,2.54,25.26c11.11,30.22,47.21,13.88,70.19,16.41,5.16.57,10.2,2.47,13.58,6.55,5.43,6.55,5.43,16.49,5.25,24.54a99.61,99.61,0,0,1-15.59,50.94,91.6,91.6,0,0,1-7.89,10.7c-1.61,1.89-6,8.29-8.86,7-1.43-.65-2.5-2.53-3.36-3.77-1.53-2.19-3-4.4-4.57-6.61-2.82-4.11-5.61-8.24-8.32-12.43-10.68-16.54-20.2-34.22-23.84-53.77C704,428,705.77,408.2,716.38,393c8.74-12.49,24-21.24,39.4-20.84,16.22.42,28.49,12.07,36,25.52,8.79,15.72,13,34.46,14.51,52.27,1.68,19.68-.53,39.74-8.29,58-6.45,15.16-16.23,28.65-27.35,40.71-23.36,25.34-52.17,44.64-76.9,68.49-6.38,6.15-12.4,13.26-14.88,21.93-2.8,9.78-.18,19.8,4.21,28.67,4.47,9,10.64,17.31,16.58,25.41q9.23,12.6,19.36,24.52,9.76,11.44,20.34,22.16l2-7.52a461.49,461.49,0,0,1-128.21,13.77c-5.35-.18-10.74-.33-16.06-.84-3.57-.34-7.4-1.13-8.63-4.92s-.38-8.27.07-12.05a99.47,99.47,0,0,1,2.2-11.74A112.34,112.34,0,0,1,650,642.88c14.13-6.86,31.32-10.81,46.69-5.89s23.07,19.13,22.21,34.63c-.91,16.29-10.2,30.3-22.95,40-14.48,11-32,17-49.06,22.64-20.29,6.67-41.09,12.65-62.44,14.5-18.7,1.63-37.7,0-55.38-6.52-15.84-5.86-28.65-16.07-39.57-28.76-18.37-21.32-32.81-50.07-59.63-62.13-13-5.87-29.68-7.78-41.26,2.36a18.88,18.88,0,0,0-5.28,20.47c3.09,8.9,10.59,16.4,16.9,23.14a197,197,0,0,0,21.46,19.78c3.82,3,7.72,6,11.74,8.71s8,5.74,12.94,5.62c8.52-.22,11.73-9,12-16.27.3-8.2-1.37-16.87-2.77-24.92a226.52,226.52,0,0,0-75.94-132c-12.75-10.75-27.24-18.93-40.32-29.19-11.24-8.81-22.63-20.44-21.51-35.83,1.13-15.6,15.58-26.32,27.88-33.66,8.09-4.82,16.6-8.94,25-13.25l30.28-15.58c16-8.23,33.42-15.7,46.62-28.22a51.88,51.88,0,0,0,13.83-21.26c2.83-8.62,2.83-17.75,1.55-26.65-2.72-18.74-11.54-36.14-13.6-55-.53-4.82-.65-9.88,1.06-14.48,1.5-4,4.48-7.26,7.78-9.92,6.24-5,13.93-8.73,21.26-11.87a138.56,138.56,0,0,1,46.07-10.66c31.67-1.87,63.85,6.28,90.37,23.81,14.64,9.69,26,22.4,37.13,35.79,12,14.35,24.84,28.37,42.93,34.76a50.56,50.56,0,0,0,25.5,2.42c9-1.58,16.3-6.63,22.73-12.85s12.74-14,22.05-15.87c8.07-1.6,13.24,4.1,15.41,11.23,2.54,8.34,2.61,17.43,3.28,26.06.84,10.78,1.52,21.57,1.69,32.37.32,20.35-1.13,41-7.21,60.5-4.88,15.71-12.85,30.74-24,42.92s-24.74,20.13-40.65,24.55c-14.3,4-30.14,7.5-38.6,21a4.55,4.55,0,0,0,1.61,6.16,238.09,238.09,0,0,1,74.17,61.42c5.09,6.36,10.3,13,14.16,20.25s4.18,14.57-.94,21.21c-4.62,6-11.36,10.11-17.73,14-7.28,4.46-14.79,8.55-22.47,12.28-30.86,15-64.38,24-98.12,29.61-17.19,2.88-34.53,4.88-51.91,6.25-18.88,1.49-38.12,2.12-56.89-.91-15.82-2.56-31.25-7.68-44.82-16.32S450,672.92,442.65,658.92,429.47,630,419.27,617.74c-5.31-6.41-11.73-11.08-20.44-8.76-7.25,1.94-13.37,7.51-17.79,13.36-21.67,28.7-5.12,66.69,9.14,94.6a328.13,328.13,0,0,0,28.23,45.61c5.8,7.86,25.82,29.53,9,36.5-6.44,2.68-14.09,3.7-21,4.33a115.36,115.36,0,0,1-21.27,0,127.64,127.64,0,0,1-40.7-11.09,164.92,164.92,0,0,1-66.43-55.82C239.3,680.6,236.15,607.85,241,542.35c.58-7.87.86-16.49,4.79-23.55,3.74-6.73,10.55-10.72,17.11-14.31,16.79-9.19,33.72-18.15,50.58-27.22,16.31-8.77,33.14-17,49-26.56,12.65-7.66,24.73-18.95,23.55-35-.67-9.09-4.29-17.85-7.4-26.32-3.05-8.31-6.32-16.53-9.66-24.72-6.69-16.37-13.67-32.62-19.79-49.22s-11.28-33.28-14.35-50.56c-1.22-6.89-4.14-16.42,3.66-20.23a36.15,36.15,0,0,1,9.39-2.59c4.93-.89,9.87-1.69,14.82-2.46a840.81,840.81,0,0,1,229.65-4.21c18.81,2.23,37.54,5.9,56.48,6.93A126.8,126.8,0,0,0,676.63,241c7.78-1.3,17.33-6,25-2.27,7.2,3.53,12.94,11.21,18,17.21a257.81,257.81,0,0,1,15.86,21.22,444.66,444.66,0,0,1,63.15,141.51,437,437,0,0,1,9.67,50.85c2.2,17.28,3,34.7,4.84,52s4.83,34.38,11.66,50.39c2.9,6.79,6.44,14.48,13.42,17.94,6.56,3.27,13.72,1.47,19.11-3.13s8.81-11.27,11.09-17.84a164,164,0,0,0,6-23.07,193.2,193.2,0,0,0,2.89-47.29c-4-65.45-37-125.28-80.24-173.11-22.87-25.27-48.57-47.8-75.08-69.16s-53.77-42-80.91-62.67c-13.16-10-26.81-19.61-42.13-26s-31.46-8.81-47.8-5.95c-31.67,5.54-59.19,28.17-79.62,51.92a226.86,226.86,0,0,0-44.37,80.8,236,236,0,0,0-9.23,45.59c-1.7,16.65-.82,33.05,0,49.72.43,9.07.62,18.3-1,27.26a75.78,75.78,0,0,1-7.58,21.78c-7.1,13.54-17.27,25.1-27.58,36.26-19,20.52-52.92,52.36-29.85,81.87C360.78,568.17,375,574,388.3,578.7c16.2,5.72,33.53,8.31,48.66-1.65,12.44-8.19,20.88-21.38,26.75-34.81,6.92-15.83,11.71-33.31,10-50.72-1.52-15.13-8-29.47-19.59-39.53-10.74-9.28-26.66-15.29-40.68-10.24-7.82,2.81-12.41,9.35-15.65,16.67A112.93,112.93,0,0,0,391.1,478a121.83,121.83,0,0,0-2.59,40.73c2.86,27.21,14,53.47,32.58,73.69C442,615.1,473.57,630.45,504.83,626c27.43-4,52.24-26.7,53.23-55.31.16-4.66-6.07-5.86-8.38-2.28-12.33,19.16-14.58,44.39-6.1,65.52,8.15,20.32,26.47,36.78,48.93,38.49a40.12,40.12,0,0,0,29.31-9.83c7.75-6.72,12.66-16.27,15.61-26a102.63,102.63,0,0,0,4-32.33c-.33-12-3-24.86-11.81-33.67-7.78-7.79-19.66-11.84-30.14-7.28-9.59,4.18-14.89,14.31-15.8,24.35-1,11.39,4.77,22.22,12.12,30.49A79.6,79.6,0,0,0,625.58,639c10.8,4.26,23.07,5,34,.67,9.9-3.93,17.88-11,24.29-19.36,14.33-18.76,20.9-43.16,24.61-66.1A230.88,230.88,0,0,0,707.33,474c-2.42-12.63-5.61-25.62-11.06-37.33-4.92-10.57-13.5-19.83-25.5-21.65a23.31,23.31,0,0,0-15.9,3l6.15,6.16c6-13.26,2.75-28.23-6.4-39.22-9.89-11.88-25.9-15.69-40.7-13.26-33.78,5.55-51.61,40.55-55.65,71.45a117.08,117.08,0,0,0,7.1,58c1.45,3.68,7.75,4.83,8.68,0a154.11,154.11,0,0,0-12-95.59c-2.61-5.53-5.4-11.33-9.18-16.17-3.36-4.31-8.43-7.2-14-6.24-4.69.81-8.24,4.15-10.85,7.94-6.54,9.51-6.52,21.56-6.44,32.63.1,13.51,1.73,27.26,6.92,39.84,8.71,21.1,29.36,38.8,53.32,35.71,12.27-1.58,23.16-7.75,33.78-13.7,10.41-5.84,21.31-12,33.57-12.24l-4.34-3.3c2.82,6.86-10.14,11.37-14.62,13.2A161.38,161.38,0,0,1,605.81,491a164.3,164.3,0,0,1-51.89,3.56,149.12,149.12,0,0,1-49.17-12.73c-14.16-6.58-27.73-16.17-35.45-30.09s-9.21-33.37,1-46.58H464a81.44,81.44,0,0,1,27.18,47.44,79.88,79.88,0,0,1-29.74,75.86l5.46.7c-14.1-15.46-15.72-39.84-6.5-58.19,9.54-19,29.87-28.47,50.69-24.94a55.46,55.46,0,0,1,27.46,12.66c8.56,7.56,15.81,19.29,14.62,31.12-.7,7-5.25,12.55-10.06,17.36a167.81,167.81,0,0,1-15.19,13.38,181.21,181.21,0,0,1-123.72,37.42v9c18.17-1.05,34.72,6.55,49.88,15.82,16.19,9.9,31.3,21.37,47.87,30.69a325.71,325.71,0,0,0,54.4,24.35c18,6.17,38.79,12.64,57.58,5.77,15.29-5.59,26.87-19.28,24.84-36.21-1.81-15.07-12.76-28.81-26.5-35-18.27-8.21-39.27-5.06-57.78.6-16.26,5-36.48,12.06-40.84,30.74-1.85,8,.07,16.56,6.26,22.17,5.61,5.07,13.25,7.2,20.69,7.36,16.26.33,32.58-8.75,42.54-21.29a56.91,56.91,0,0,0,6.76-10.65,4.56,4.56,0,0,0-5.08-6.61L478.42,615l5.08,2.07c-11-21.91,3.67-48.68,24.28-58.48,27.55-13.1,59.78-1.69,82.85,15.14,13.89,10.13,25.87,22.68,37.47,35.28a4.54,4.54,0,0,0,7.07-.91c18.12-32.19,15.68-74.54-6.56-104.16-2-2.64-5.88-3.14-7.77,0-5.39,8.93-4.28,20.27,1.18,28.92,6,9.56,16.49,14.43,27.51,15.36C670,550,689.13,538.6,701,522.65a71.16,71.16,0,0,0,13.36-52.57c-1.48-9.74-5.35-19.43-12.16-26.69-7.09-7.56-18.06-12.64-28-7.61-16.62,8.36-8.53,34.55,7.07,38.87,10.33,2.86,21.21-2,28.31-9.47,8.36-8.81,11.42-20.64,11.4-32.55s-2.45-24.11-4.8-35.84a199.21,199.21,0,0,0-7.91-29.32c-6.65-18.25-17.36-36.07-35.1-45.34-22.16-11.59-49.76-7.2-72.4.84-5.4,1.92-10.5,4.69-13.69,9.63a20.21,20.21,0,0,0-2.47,14.81c2,11,10.44,19.92,18.84,26.65,19.14,15.35,41,26.43,62.42,38.23,20.65,11.4,41,23.64,56.66,41.65,13.84,15.95,24.67,36.51,24.23,58.11-.49,24-17.24,43.05-34.1,58.38-17.63,16-38.84,29.08-61.5,36.63-5.53,1.85-12.41,3.76-18.07,1.29-3.47-1.52-7.07-5.51-6.54-9.57.65-4.95,7.56-7.19,11.57-8.48A51.43,51.43,0,0,1,654,587.84a53.47,53.47,0,0,1,30,9.23c1,.69,2,1.41,2.93,2.19.24.19,1.4,1.58.94.65s-.05.91,0,1.18a38.61,38.61,0,0,1-.17,8,46,46,0,0,1-5.1,15.38c-10.86,20.49-32.71,35.63-53.94,43.81-21.63,8.34-44.64,8.13-65.63-2-19.61-9.46-35.7-24.85-50-41-7.22-8.18-14-16.7-20.7-25.31-1.81-2.34-5.75-1.34-7.06.91a152.19,152.19,0,0,1-68.11,61.52c-7.42,3.38-16.47,7.69-24.69,4.76-6.27-2.23-10.69-7.94-13.8-13.57-7.44-13.43-9.89-30.08-9.55-45.25a105.3,105.3,0,0,1,15.43-52.64c2.75-4.51-3.37-8.78-7.07-5.46A234.46,234.46,0,0,1,319,588.54a230.94,230.94,0,0,1-32.57,12.07c-11.37,3.27-23.27,6.18-35.1,7.12-6.45.51-13.51.31-19.13-3.28-4.54-2.89-8.36-8.28-7.24-13.88s-7.53-8.07-8.68-2.39c-2.58,12.84,7.12,24,19.07,27.35,13,3.6,27.69,0,40.49-2.9a242,242,0,0,0,108-56.06l-7.07-5.46C358.31,581.24,354,621.87,369,654.35c3.28,7.12,8,13.83,14.6,18.27,7.85,5.32,17.27,5.29,26,2.4,16.48-5.43,31.93-14.78,45.43-25.58a159.57,159.57,0,0,0,38-44.06l-7.07.92c25,32.25,55.87,69.76,98.85,76.13,23.86,3.53,47.3-3.67,67.6-16.09,18.7-11.43,37.32-28.17,43-50.18a46.63,46.63,0,0,0,1.41-15.56c-.28-3.18-.62-5.28-3.14-7.4a60.55,60.55,0,0,0-6.74-5,62.48,62.48,0,0,0-30.51-9.34c-10.15-.44-21.85,1.47-30.54,7.06-4.54,2.92-8,7.28-8.3,12.82-.28,5,2.07,9.79,5.46,13.28,8.91,9.18,22.5,6.64,33.26,2.73A188,188,0,0,0,687.67,600c20.12-11.89,38.54-27.6,52.66-46.29,7-9.22,12.4-19.71,14.38-31.19a73.44,73.44,0,0,0-1.49-30.94c-5.41-20.81-18.47-39.45-34-54-17.07-16-38-27.17-58.43-38.26-10.57-5.75-21.17-11.49-31.38-17.87-9.69-6.06-20-12.6-27.77-21.11-5.53-6.07-13-17.95-5-25.08,3.92-3.51,9.85-4.66,14.77-6a152.68,152.68,0,0,1,18.55-4.09c11.83-1.77,24.49-1.52,35.61,3.31a54,54,0,0,1,21,16.78c11.9,15.43,17.19,35.23,21,54,3.94,19.71,11.28,49.25-8.31,63.19-6.59,4.69-16.35,6.32-21.81-.85-3.37-4.43-5.43-12.94-.33-17,7.84-6.19,18.16,3.24,22.23,9.57,4.74,7.38,6.81,16.51,6.92,25.2a63.26,63.26,0,0,1-20.08,46.61A51,51,0,0,1,663,538.24c-10,2.32-22.39,1.57-30.12-6-6.15-6.06-9-16-4.31-23.7h-7.77c20.36,27.11,23.23,65.45,6.55,95.08l7.07-.91c-22.35-24.3-47.77-49.09-81.15-56.39-16-3.5-33-2.94-48.15,3.69a57.78,57.78,0,0,0-28.65,27.71c-6.7,13.9-7.81,30-.78,44,.94,1.87,3.2,2.43,5.08,2.07l106.37-20.31-5.09-6.61a49.16,49.16,0,0,1-32.64,26.49C538.4,625.89,520,622.9,522,607.67c2.15-16.4,22.1-22.17,35.41-26.19,16.06-4.85,35.19-8.4,51.08-1,11.24,5.27,21,16.92,21.5,29.73.53,14.79-12.5,24.32-25.91,26.65-8.85,1.54-18.07.07-26.68-2.09a253.26,253.26,0,0,1-25.79-8.2A313.75,313.75,0,0,1,503.43,604c-16.52-9.53-31.63-21.24-48.06-30.9-15.56-9.15-32.84-16.18-51.21-15.12-5.81.34-5.77,8.58,0,9a189.34,189.34,0,0,0,88.57-15.32,184.26,184.26,0,0,0,38.54-22.45,179.84,179.84,0,0,0,17.43-14.95C554,509,559,503.14,561.06,495.89c4.1-14-2.8-29.41-12.21-39.69A62.36,62.36,0,0,0,519,438.51c-23.6-6.26-49.08,1.31-62.93,22-15,22.42-13.91,54.85,4.46,75,1.2,1.31,3.95,1.85,5.46.7a90.14,90.14,0,0,0,32.93-50.27,88.63,88.63,0,0,0-28.56-87.16c-1.66-1.42-4.78-2-6.36,0-10.7,13.82-12.32,32.29-6.45,48.53,6.21,17.2,20.07,30.14,35.83,38.8,34,18.68,76.3,22.28,113.78,13.8a168.35,168.35,0,0,0,31.15-10.41c8-3.57,19.5-11.45,15.22-21.85-.76-1.84-2.2-3.35-4.34-3.31-20.34.35-36.24,13.91-54,21.8-8.59,3.81-18.07,5.89-27.34,3.45-9.58-2.52-17.86-8.92-23.81-16.73-6.92-9.09-10.52-20.22-12.19-31.42a127.15,127.15,0,0,1-1.22-18.29c0-5.33-.27-11,.76-16.29.88-4.48,5-18.13,12-14.25,1.95,1.08,3.19,3.2,4.31,5,1.59,2.63,3.06,5.32,4.46,8.05a138,138,0,0,1,7,15.92,146,146,0,0,1,6.31,77.14h8.68c-10.92-27.66-10.86-60.5,3-87.18,6.27-12,15.72-22.95,28.49-28.24,11.84-4.9,26.59-5.14,37.26,2.7,9.9,7.28,15.69,21.89,10.42,33.55-1.73,3.82,2,8.7,6.16,6.15,8.42-5.13,18.64-.06,24.13,7,6.57,8.46,9.4,19.79,12,30A219.28,219.28,0,0,1,702,532.16c-1.45,21.9-5.77,44.89-14.9,65C680,612.68,668.67,629.06,651,632.92c-10.26,2.24-20.79-.83-29.74-5.86s-17.36-11.84-23-20.32c-5-7.58-7.5-16.7-4-25.44,3.14-7.87,10.66-12.69,19.11-10.32,20.79,5.82,20.64,34.15,18.08,51.21-2.48,16.54-10,35.47-27.81,40.25-17.49,4.7-36.44-6.43-45.92-20.76-10.77-16.31-13-37.41-6.64-55.8a60,60,0,0,1,6.4-13l-8.39-2.27c-.47,13.72-7.91,25.9-18.33,34.5-11.48,9.48-26.24,13.36-41,12.52-29.35-1.66-56.15-20.38-72.27-44.26a121.31,121.31,0,0,1-20.42-75.06c.82-13,3.87-26.37,9.68-38.08,1.54-3.11,3.37-6.28,6.24-8.34,3.35-2.4,7.73-2.92,11.74-2.86a35.09,35.09,0,0,1,18.4,5.91c29,18.59,24.31,57.5,11.94,84.63-5.74,12.6-13.94,25.52-26.64,32-14.93,7.61-32.61,1-46.92-5.06-11.95-5-25.15-12.8-27.81-26.6-3.08-16,9.24-31.2,19.13-42.2,20.06-22.33,44.66-44.13,51.89-74.54,4.23-17.83,1.63-36.08,1.11-54.14a220,220,0,0,1,3.31-45,224.06,224.06,0,0,1,33.14-83.53c16.79-25.51,39.83-49.17,67.58-62.58,14.39-6.95,30.7-10.56,46.63-7.83s30.09,10.27,43.28,19.09c13.64,9.12,26.4,19.55,39.41,29.52C672.48,229,685.81,239.08,699,249.4c26.28,20.56,52.09,41.86,75.68,65.5,45.46,45.56,82.16,101.57,91.83,166.28A195.25,195.25,0,0,1,868,527.26a167,167,0,0,1-3.69,23.2c-1.61,6.93-3.3,14.35-6.51,20.74-2.34,4.65-6.89,12.1-13.1,11.34-6.61-.81-9.9-10-12.07-15.17-6.56-15.79-9.2-32.92-10.85-49.84-1.67-17.15-2.59-34.34-4.89-51.42a451.79,451.79,0,0,0-9.54-49.88,456.89,456.89,0,0,0-35.42-94.92,447.36,447.36,0,0,0-25.4-43.89C737,263.06,726.73,248.33,714,236.64c-6.36-5.85-13.57-9.15-22.32-8.06-4.31.54-8.44,1.82-12.67,2.76a92.2,92.2,0,0,1-13.84,1.94c-18.65,1.21-37.17-2.14-55.57-4.69A849.87,849.87,0,0,0,385,227.36q-14.26,1.83-28.45,4.12c-7.54,1.22-15.74,1.88-22.66,5.37-7.46,3.76-10.25,11.1-9.46,19.12A186.53,186.53,0,0,0,329,281.22c8.2,33.8,23.24,65.36,35.92,97.59,3.09,7.86,6.07,15.77,8.76,23.78s5.23,16.6,1.14,24.47c-3.13,6-8.57,10.46-14.16,14.11-6.86,4.47-14.25,8.13-21.45,12l-50.59,27.22L262.79,494.3c-6.72,3.62-13.69,7.19-19.18,12.61-12,11.83-11.45,30.37-12.35,46-1,17-1.32,34-.62,50.92,1.36,33.12,6.56,66.48,18.83,97.42,11.19,28.2,28,53.58,51.15,73.39,21.66,18.55,48.11,32.43,76.5,36.71a121.54,121.54,0,0,0,42.57-.9c6.81-1.4,14.49-3.1,19.18-8.67,4.94-5.86,4.83-13.74,2.23-20.61-2.77-7.3-7.44-13.29-12.12-19.43q-8.13-10.68-15.36-22A319.82,319.82,0,0,1,389,693.34c-6.48-15.18-11.86-32.35-8.14-48.94,1.56-7,4.54-13.81,9.4-19.15,4.11-4.52,11.73-10.93,17.83-6.25,5.95,4.56,10.2,12.2,13.78,18.63,3.77,6.78,7,13.84,10.45,20.77,7,14.07,15.55,26.82,28,36.61,26.84,21,61.49,26.4,94.75,25.51a519.33,519.33,0,0,0,102.81-13.36c32.73-7.62,64.82-19.27,93.6-36.82,12.12-7.39,27.65-17.75,26.67-34-.51-8.39-5-15.64-9.69-22.35s-9.62-13.1-14.88-19.28a245,245,0,0,0-71.28-57.13l1.61,6.15c8.39-13.34,27.37-14.54,41-19.15,16-5.43,29.91-15.76,40.56-28.8,24.84-30.4,31-69.74,30.09-107.95-.25-10.8-1-21.59-1.83-32.37-.7-8.88-.84-18.31-3.67-26.85-2.51-7.56-7.47-14.37-15.49-16.55-9.15-2.49-18.56,1.79-25.6,7.44-7.35,5.9-12.91,14.07-21.44,18.44-7.5,3.83-16.4,3.79-24.4,1.75-18.81-4.81-31.78-19.58-43.75-33.91-11.4-13.64-23-26.41-37.81-36.43A152.16,152.16,0,0,0,577,249.08c-31.52-8.69-66.16-7.77-96.72,4.17-14.91,5.82-34.9,14.47-39.25,31.54-2.46,9.68-.36,20.21,2,29.7s5.51,18.56,8.05,27.9c2.4,8.83,4.27,17.9,3.52,27.09a39.74,39.74,0,0,1-10.17,23.22c-12.09,13.48-30,20.88-45.79,29l-30.84,15.88c-8.67,4.46-17.48,8.71-25.88,13.66-13.52,7.95-27.72,18.81-32,34.71-9.41,35.18,31.42,54.41,54.15,71.31,28.18,21,50.67,49.37,65.61,81.07A214.48,214.48,0,0,1,446,687.75c1.68,8.41,3.2,17.17,3.37,25.77.05,2.41.07,6.6-2,8.34-2.64,2.23-8.22-3-10.34-4.5a189.21,189.21,0,0,1-23-18.85c-7-6.75-14.45-14.08-19.74-22.32-4-6.25-4.44-13.25,2.43-17.44,5.93-3.61,13.2-4.07,19.84-2.52,13.74,3.2,24.66,12.21,33.92,22.48,10.19,11.3,18.67,24,28.21,35.83,10.39,12.87,22.23,24.32,37.19,31.73,16.89,8.36,35.83,12,54.6,12.06,21.57.06,42.94-4.56,63.53-10.66,18.49-5.47,37.5-11.35,54.47-20.67,15.42-8.46,28.83-20.52,35.39-37.13,5.71-14.45,6-32.41-3-45.62-20.85-30.53-65.44-17.82-90.39-.33-27.73,19.43-46.74,50.25-50.9,83.91-1,8.29-1.58,18.3,6.47,23.39,3.68,2.33,8.17,2.85,12.41,3.16,5.5.4,11,.63,16.53.79a464.91,464.91,0,0,0,66.11-2.77A476.9,476.9,0,0,0,743.75,741a4.54,4.54,0,0,0,2-7.52A404,404,0,0,1,704,683.85c-6-8.49-12.79-17.38-15.89-27.46-3-9.8-.5-18.72,6-26.46,5.84-7,13-12.92,19.89-18.85s13.74-11.61,20.66-17.36c13.72-11.42,27.44-23,39.78-35.89,12-12.56,22.74-26.57,30.06-42.38a127.84,127.84,0,0,0,11.22-59.68c-.9-19.32-4.93-39.19-13.14-56.78-7.11-15.22-18.85-29.27-35.52-34.11-16.51-4.79-34.12.88-47.15,11.4C705.19,388.14,698,406.48,696.94,425c-1.15,20.42,5.06,40.37,14.27,58.38a266.34,266.34,0,0,0,16.27,27c3,4.45,6,8.89,9.1,13.27,2.5,3.54,5.4,7.07,9.91,7.86,4.77.83,8.74-1.93,11.94-5.16a103,103,0,0,0,9.39-11.14,109.05,109.05,0,0,0,20.32-52.68c1-9.22,1.23-19.32-1.31-28.32-2.08-7.35-6.78-13.89-13.73-17.29-5.83-2.85-12.37-3.59-18.79-3.47-13,.24-26.51,4.43-39.5,2.17-6-1.05-11.33-3.95-14.36-9.46-4.11-7.47-3.18-16.95-3.29-25.15-.12-9.16-1.46-17.82-5.25-26.21a72.85,72.85,0,0,0-14.45-20.38C664.4,321,648,311.36,632.28,301.49l-59.69-37.44-29.3-18.38c-4.92-3.08-9.44,4.7-4.54,7.78Z" transform="translate(-138.28 -117.02)"/><path class="cls-3" d="M590.63,264.06c-8,14.75-21.18,29.13-38.53,32-17.59,2.88-33.27-8.9-47.77-16.95-8-4.43-16.39-8.43-25.38-10.28a77.65,77.65,0,0,0-27.82-.45c-18.89,2.92-36.56,12.39-50.92,24.8-15,13-26.78,29.28-37.21,46-5.22,8.36-10.05,16.93-15.07,25.41-4.14,7-9,14.36-15.82,19.06-7,4.86-14.45,4.6-21.05-1C303.85,376.49,298,368.1,293,360.19c-10-15.57-17.55-33.7-16.56-52.52,1.83-34.74,34.8-53.52,65.69-58.73,19.28-3.25,39.2-1.09,58.42,1.5,22,3,44,6.93,66.22,6.61a182.08,182.08,0,0,0,62.18-11.9c10-3.83,19.39-8.7,28.85-13.71,9-4.79,18.19-8.71,28.64-8.06,10.29.63,20.25,4.79,29.75,8.49,7.8,3,15.51,6.31,23,10,15.08,7.3,29.77,16.07,41.55,28.12A75,75,0,0,1,702,314.74c2.21,19.56,0,39.55,4.6,58.85,2.11,8.8,5.7,18.82,12.49,25.13,7.37,6.85,17.81,7.58,27,4.2,16.25-6,27.21-21,32.28-37.08,10.4-32.95-.59-71.14-22.35-97-23.36-27.84-63.12-39.67-96.94-24.41-34.79,15.71-46.44,57.17-40.19,92.26,3.6,20.18,12.52,39.14,23,56.59a333.61,333.61,0,0,0,34.82,48c13.12,14.95,28.07,28.43,44.92,39.05C738.9,491.17,758,498.62,777,505.9c18.48,7.09,38.27,13.73,54.85,24.79,3.82,2.54,3.93,4.87,1.74,8.76a130.92,130.92,0,0,1-9.2,13.45,217.79,217.79,0,0,1-20.82,24c-5,5-12.92,12.47-20.23,7.1-5.55-4.08-8-12-9.66-18.33-4-15.37-6.16-31.77-4.35-47.63,1.63-14.21,7.68-29.39,20.59-36.92,3.06-1.79,7-3.16,9.59.1,2.36,3.05,3,7.47,3.72,11.13,1.94,9.43,3.71,18.91,5.1,28.45,5.19,35.5,5,75.86-19.05,105-21.06,25.46-53.64,36.69-85.35,41.57a308.57,308.57,0,0,1-48.5,3.14L657,682.23a489,489,0,0,1,119.47-11.31,479,479,0,0,1,60.5,5.52c4.29.67,8.63,1.28,12.87,2.22,1.83.4,6.38,1.13,7.31,3.22,1.09,2.43-2.5,5.33-4,6.79-3.09,3-6.35,5.86-9.67,8.62C818.63,718,788.31,732,756.7,738.56a200.59,200.59,0,0,1-47.58,4.1A186.35,186.35,0,0,1,685,740.34c-8.27-1.37-16.32-3.6-24.51-5.35-17.15-3.68-38-3.34-46.84,14.79-7.41,15.23-3,33.67,2.16,48.89l5.78-7.6c-41,3.48-84.63-2.14-122.27-19.32-8.11-3.7-16.29-8.35-21.85-15.51-5.13-6.61-7.34-14.85-7.45-23.13-.24-17.73,7-36,15.41-51.36,8-14.48,20.27-30.34,38.37-30.43,5.86,0,8.29-8.24,3-11.18-27.11-15.15-59.44-.31-76.17,23.05C431.1,690.44,429.9,725.12,424,756.88c-.78,4.22-1.65,8.42-2.68,12.58-.92,3.79-1.56,8.94-3.69,12.26-1.22,1.89-3.1-.16-4.59-1.65-3-3-5.23-6.65-7.66-10q-15-21-28.46-43a723.23,723.23,0,0,1-47.63-92.24c-1.87-4.36-3.73-8.73-5.45-13.15-.91-2.35-3.19-6.86-.52-8.81,2.28-1.68,6.41-1.19,9-.86,4.09.53,8.17,1.65,12.19,2.56a511.57,511.57,0,0,1,59.93,17.58c3,1.07,6.68-1.21,7.38-4.19A166.88,166.88,0,0,0,409,541.53c-4-13.26-9.57-27.8-17.9-39-4.09-5.5-10.53-9.39-17.36-6.2-3.36,1.56-5.59,4.28-7.8,7.15l-7.81,10.12-35.35,45.81,9.42-1.21a320.15,320.15,0,0,1-56.65-73.88c-7.53-13.54-15.57-28.23-17.46-43.84a45.9,45.9,0,0,1,10.4-35.14c17.93-21.45,46.53-27.19,72.94-21.36,31.29,6.91,57.65,26.06,83.68,43.73,13,8.82,26.19,17.47,40.33,24.4,7.12,3.49,14.8,7.2,22.92,5.22,6-1.46,10.68-6,13.68-11.27,3.13-5.48,4.71-11.68,6-17.81q2.78-13.29,5.51-26.59l10.87-52.44c1.71-8.24,3-16.7,5.19-24.83.88-3.27,1.65-2.76,4.89-1.84,4.14,1.19,8.24,2.56,12.34,3.9q24.21,7.95,47.63,18.07c25.21,11,56.37,25.91,60.87,56.43A36.18,36.18,0,0,1,653,420.17c-2.71,6.52-6.71,12.42-9.78,18.76-2.9,6-5.34,12.5-5,19.26.39,7.64,3.95,14.11,9,19.73,9.39,10.5,21.59,19.35,34.07,25.78,12.26,6.32,25.92,10.74,39.83,10.62a57.17,57.17,0,0,0,36.66-13.61c9.34-7.92,15.49-18.9,19.49-30.33,9.12-26.05,7.95-55.13,8.26-82.31.39-34.4-.35-68.9-5.62-103q-1.93-12.51-4.78-24.85c-.88-3.78-2.52-7.8-2.88-11.65-.24-2.51,1.33-2.73,3.66-3,6.67-.88,14.35.85,20.94,1.85a175.47,175.47,0,0,1,22.76,4.94c26.68,7.81,52.74,25.83,59.57,54.3,1.72,7.17,1.34,14.27,1,21.58-.36,8.35.49,16.28,3.6,24.08,2.89,7.24,6.85,13.94,10.39,20.86a207.55,207.55,0,0,1,9.42,21.32c11.27,29.92,16.51,61.71,20.15,93.35,1.86,16.12,4.5,32.7,4.31,48.95-.14,12.5-4.18,28.31-17.3,33.25-6.66,2.51-14,.89-19.17,6.93-4.06,4.78-4.63,11.55-2.95,17.43,3.91,13.71,19.49,17.1,25.36,29.2,4.79,9.86,1.86,21.9-3.41,30.92-6.69,11.49-17.94,18.4-30.28,22.64C853,686.55,823.13,685,797,698.33c-11.51,5.87-21.53,14.77-27.48,26.35-5.43,10.56-7.78,22.22-9.46,33.87C757.2,778.64,757,806.15,737.4,818c-11.9,7.18-26.84,6-40,3.68-16.23-2.93-32.28-7.26-48.34-11-7.8-1.82-15.9-4.46-24-4.72-8.3-.27-14.77,3.43-20.26,9.38-4.26,4.63-8.41,8.82-13.91,12a54.4,54.4,0,0,1-16.35,6c-26.35,5.33-52.36-5.84-73.4-20.87-24.83-17.74-45.43-41-71.85-56.62-12.8-7.56-27-13.61-41.7-15.94A80.71,80.71,0,0,0,366.1,739c-7.76.86-14.72,3.09-22,5.81-3.25,1.22-6.75,2.57-10.28,2.33s-6.42-1.91-9.22-3.8c-6-4-11.37-9.19-16.61-14.13a240.67,240.67,0,0,1-30.2-34.36A226.51,226.51,0,0,1,255,656.1c-3.24-7.18-5.45-14.88-4.45-22.81.95-7.44,4-14.55,6.44-21.58,5.1-14.7,6.14-29.54,1.72-44.58-4.34-14.79-12.58-28-22.07-40-18.26-23.1-42.94-41.26-56.49-67.93C159.38,418.35,180,364,220.25,343.88c12.82-6.41,27.24-7.88,41.16-10.42,15.1-2.77,28.94-7.67,41.1-17.24,23.12-18.19,34.8-46.3,45.42-72.8,10.88-27.18,22.7-56.51,48.68-72.68,10.91-6.79,23.92-10.66,36.79-8.36S457.61,172,467.08,181c9.8,9.26,18,20,25.73,31q14,19.72,27.32,39.9a901.51,901.51,0,0,1,49.1,83.24,595.71,595.71,0,0,1,36.13,85.39l4.19-7.38c-40.77,8.29-85.24,17.6-116.11,47.72-27.57,26.91-41.66,69.26-20.86,104.38,11,18.62,29.18,32.31,48.59,41.28L520,597.1c-2.05,2-5.81-.45-7-2.48-3.14-5.2.07-12.87,2-17.93a199.74,199.74,0,0,1,16.62-33.26,205.44,205.44,0,0,1,22.28-29.79c8.17-9.06,17.27-18.6,27.56-25.28,4.68-3,10-5.18,15.48-2.8,4.93,2.16,8.8,6.64,11.83,10.94a102.69,102.69,0,0,1,16,35.52,97.91,97.91,0,0,1,2.61,19.21c.15,4.12.62,9.76-4.91,9.45-4.85-.28-9.49-3.29-13.54-5.7a158,158,0,0,1-13.33-9c-17.07-12.66-32.68-28-52.63-36.13-19-7.75-38.73-4.8-56.08,5.49-16.18,9.6-29.31,23.39-45.07,33.59-6.78,4.39-14.21,8.22-22.31,9.36-11.2,1.59-21.5-2.87-30.82-8.68-12.22-7.61-23.93-16.14-35.83-24.26l-18.47-12.6c-5.73-3.91-11.37-8.33-17.7-11.22-6-2.76-12.72-4.11-19.08-1.64-5.72,2.22-9.86,6.89-12.91,12.08C277.8,523.48,273.34,537,270.43,550a166.42,166.42,0,0,0-3.19,20.72c-.3,3.24,3,6,6,6,3.5,0,5.7-2.75,6-6a142.34,142.34,0,0,1,10.68-42.4c2.29-5.36,4.85-12.49,9.71-16.11,5.29-3.93,11.94-.14,16.69,2.84,13.29,8.33,26,17.69,39,26.53,12.27,8.37,24.42,18.22,38.08,24.22,10.54,4.63,21.76,6,33,3.26,9.26-2.28,17.78-7.13,25.52-12.59,16.22-11.43,30.33-26.47,48.57-34.82,44.85-20.55,76.24,35,113.07,49.13,5.51,2.11,12.17,2.9,17.56,0,5.93-3.22,8-9.68,8.21-16,.46-13.75-2.78-28.22-7.82-40.94-4.83-12.16-11.58-25.42-21.76-34-4.93-4.15-10.73-7.05-17.27-7.31-7-.26-13.72,3-19.27,7C551.6,495,533.5,516.81,519.87,539.51a201.24,201.24,0,0,0-17.47,36.54c-4.27,12.22-3.74,28.25,10.74,32.93a15,15,0,0,0,15.3-3.4c2.55-2.49,2.32-7.78-1.22-9.42-15.52-7.17-30.51-17.28-40.59-31.34-9.94-13.87-14.42-30.68-11.35-47.61C482,480,513.43,454.8,547,441.93c21.2-8.11,43.53-12.71,65.71-17.22,3.07-.62,5.15-4.46,4.19-7.38-20.8-63.05-53.15-121.5-89.82-176.61-8.89-13.36-18-26.62-27.38-39.6-8.32-11.47-17.21-22.76-28-32.05-10.37-8.94-22.58-16.23-36.26-18.44-14.2-2.3-28.34.63-40.94,7.43-28,15.1-42.62,43.9-54.18,72.17-11.1,27.16-21.27,56.67-44.57,76.07-23.62,19.65-56.58,14.11-82.9,27.88-21.45,11.22-37.38,31.14-46.06,53.49s-9.62,48.12-.37,70.39c11.79,28.39,36.12,48.05,55.9,70.62,10.06,11.49,19.19,24.62,24,39.25a61.31,61.31,0,0,1,3.26,21.52c-.31,7.72-2.77,15-5.34,22.19-2.73,7.68-5.4,15.37-5.93,23.58-.56,8.5,1.85,16.72,5.16,24.45,6.07,14.2,14.25,27.68,23.19,40.24a257.08,257.08,0,0,0,30.51,35.62,215.8,215.8,0,0,0,17.16,15.11c6.19,4.85,13.23,9,21.38,8.53,7.91-.42,14.85-4.52,22.37-6.54a63.24,63.24,0,0,1,21.27-1.81c15,1.12,29.36,6.94,42.25,14.33,27.14,15.56,48.18,39.49,73.51,57.58,22.85,16.32,50.08,26.87,78.52,22.79a63,63,0,0,0,34.5-16.2c5-4.77,8.6-11.48,16.32-11.39,8.29.09,17,3.27,25,5.14,16,3.76,32.11,8.25,48.4,10.79,14.61,2.28,30.06,2.7,43.52-4.35,22.94-12,26.42-38.85,29.45-61.89,1.5-11.39,3-23.24,7.61-33.87,5.23-12.09,14.91-20.48,26.65-26.06,26.92-12.79,58.26-10.09,85.61-21.76,12.64-5.4,23.57-13.7,30.45-25.78,6.14-10.77,9.22-24.2,5.65-36.33a35.34,35.34,0,0,0-9.94-16c-4.93-4.55-12.41-8.06-15.68-14.11-2-3.74-2.76-9.16,2.32-10.22,3.48-.72,7-.69,10.39-1.89a32.24,32.24,0,0,0,8.79-4.7C935.27,567.45,939.86,552,940,536.8c.2-16.69-2.53-33.74-4.46-50.31-3.79-32.46-9-65.12-20.67-95.81a234,234,0,0,0-10.08-22.95c-3.53-7-7.81-13.66-10.41-21-2.82-8-2.3-15.77-2-24.08a68.37,68.37,0,0,0-2.62-22.45c-8.77-29.2-34.64-48.79-62.63-58a177.55,177.55,0,0,0-47.44-8.63c-6.37-.25-14,1.1-17.64,7-4.37,7.12-.11,16.28,1.58,23.63,7.86,34.15,9.75,69.31,9.89,104.25.07,17-.11,34-.66,51.06-.4,12.66-1.36,25.37-4.33,37.72-2.81,11.69-7.46,23.33-16.05,32a45,45,0,0,1-33.65,13.09c-13.85-.39-27.19-5.91-38.86-13.06a118.16,118.16,0,0,1-16.91-12.53c-5.18-4.62-11.78-10.12-12.81-17.42-.87-6.13,2.07-12.14,4.84-17.39,3.35-6.36,7.12-12.48,9.69-19.22,5.33-14,2.77-29.55-4-42.57-14.67-28.36-47.78-41.15-75.68-52.4q-12.34-5-24.91-9.37c-8-2.8-16.11-5.87-24.34-7.86s-15,1.57-17.6,9.75c-2.54,8-3.59,16.8-5.3,25l-11,53.18c-1.89,9.11-3.76,18.22-5.67,27.33-1.17,5.63-2.48,12-6.14,16.57-4.43,5.59-10.72,3.15-16.24.55a230.26,230.26,0,0,1-21.27-11.59c-14-8.55-27.38-18.17-41.07-27.26C385,386.37,355,370.1,322.21,369.68c-27.11-.35-55.41,12.78-69.08,37-16.49,29.17-1,61,14,87.16a331.68,331.68,0,0,0,56.59,72.86c3.05,3,7.08,1.82,9.42-1.21l27.09-35.11L374,512.49c.77-1,3.36-5.28,4.62-5.4,1.46-.13,3.2,3,3.94,4.18,13.12,21.26,20.32,46.47,21.49,71.35a152.6,152.6,0,0,1-3.81,42.07l7.38-4.19A512,512,0,0,0,352,603.91c-12.16-2.88-36.29-10.53-41.3,7.16-2.43,8.6,3.43,18.28,6.66,25.93q5.35,12.68,11.18,25.16,11.65,24.93,25.18,48.93T382.52,758q7.47,11.16,15.34,22c4.58,6.33,10.05,14.36,18.77,14.6,9.75.26,12.9-9.43,15-17.11a248.38,248.38,0,0,0,5.62-27.3c2.81-17.72,4.81-35.66,10.19-52.85,5.13-16.41,13.8-33.2,28.63-42.81,13.11-8.5,30.44-12,44.63-4l3-11.18c-19,.09-33.48,12.9-43.57,27.87-10.75,16-18.77,35.63-21.4,54.7-1.39,10-1.13,20.49,2.63,30,3.93,9.93,10.9,17.68,19.7,23.6s18.67,9.68,28.47,13.18a261.1,261.1,0,0,0,33.49,9.47,268.89,268.89,0,0,0,78.47,4.94c3.64-.3,7.13-3.61,5.79-7.59-4.12-12.18-9.49-29.18-2.5-41.3,8.61-14.93,29.32-8.44,42.5-5.24a212.76,212.76,0,0,0,189.12-47c6-5.32,13.7-11.67,12.85-20.57-.81-8.45-8.8-12.64-16.25-14.28-19.75-4.36-40.47-6.22-60.61-7.45a501.23,501.23,0,0,0-138.61,11c-6.69,1.49-5.07,11.75,1.6,11.79,34.75.18,70.77-3.6,102.61-18.4,14.92-6.94,28.79-16.76,39.39-29.42A108,108,0,0,0,820.63,584c3.52-19.78,2.77-39.93.18-59.77-1.31-10.12-3-20.18-5-30.18-1.67-8.48-3.08-18.4-10.62-23.83-15.8-11.36-34.84,9.59-41.06,22.67-7.28,15.31-8.35,32.82-6.67,49.47a178.62,178.62,0,0,0,4.44,25.56c2,8,5.11,16.24,10.76,22.46a21.85,21.85,0,0,0,22.7,6.52c9.75-3.07,17.09-11.57,23.77-18.88a239.07,239.07,0,0,0,20.4-25.67c6-8.68,12-19.41,3-28.43-3.1-3.11-7.19-5.21-11-7.31-5-2.77-10.17-5.31-15.39-7.68-9.74-4.44-19.7-8.35-29.69-12.19-19.3-7.42-38.81-14.64-56.55-25.44-17.26-10.51-32.26-24.25-45.48-39.46a311.61,311.61,0,0,1-35.49-50.41c-10-17.54-18.2-36.95-19.57-57.28-1.21-17.87,2.65-36.33,13.15-51.07,10.26-14.39,27.11-22.46,44.57-23.35,37.42-1.9,67,25.84,78.15,59.89,5.27,16.1,6.92,33.56,2.48,50.06-3.82,14.21-14.21,31.11-30.27,33.19-10.2,1.32-14.77-8.2-17.52-16.44-3.17-9.53-4-19.53-4.41-29.51-.77-20.23-.13-40.71-8.44-59.64-14.3-32.56-48.25-50.72-79.51-63.67-19.36-8-40.27-16.74-61.17-9.21-10.14,3.65-19.24,9.53-28.92,14.17A168.62,168.62,0,0,1,506.9,239.6c-21.22,5.51-42.85,6.41-64.61,4.32-23-2.21-45.8-7-68.94-8.23-33.44-1.84-72.22,5.92-94.27,33.44A68,68,0,0,0,265,320.8c2.6,20,12.06,38.74,24.09,54.76,5.61,7.47,11.72,15.74,20.1,20.28a27.17,27.17,0,0,0,26.34-.23c16.77-9.08,25.08-29.37,34.47-44.89,19.57-32.34,46.7-67.43,87.46-71.17A62.07,62.07,0,0,1,484.85,283c8.74,3.22,16.69,8.36,24.74,13,16.31,9.3,34.42,16.49,53.11,9.67,16.86-6.15,29.85-20,38.29-35.49,3.69-6.79-6.67-12.85-10.36-6.06Z" transform="translate(-138.28 -117.02)"/><path class="cls-1" d="M633.17,384.23a32.61,32.61,0,0,1,3.22,2.45c1.28,1.07,2.5,2.19,3.68,3.36s2.17,2.24,3.19,3.43c.27.31.53.63.8.95.07.08.86,1.08.5.61s.3.41.29.38c.36.51.73,1,1.08,1.52a53.47,53.47,0,0,1,4.85,8.6c-.33-.73.36.89.44,1.12.25.67.49,1.34.71,2a43.44,43.44,0,0,1,1.32,5c.08.4.16.8.22,1.2,0,.14.22,1.38.12.71s0,.39,0,.41c0,.41.08.81.11,1.22a41,41,0,0,1,0,5.2c0,.66-.1,1.33-.18,2,.13-1.1-.16.84-.23,1.22a40,40,0,0,1-1.19,4.42c-.25.72-.51,1.44-.81,2.14.4-.94-.47,1-.57,1.18a38.32,38.32,0,0,1-2.29,4c-.42.64-.86,1.26-1.31,1.87.63-.85-.72.86-.86,1a35.9,35.9,0,0,1-3.18,3.23c-.28.26-.56.5-.85.75-.1.08-1.25,1-.72.58s-.4.28-.52.36c-.38.27-.77.53-1.16.78-.63.4-1.27.78-1.93,1.13-.32.18-.65.35-1,.52-.08,0-1.72.78-.6.31a27,27,0,0,1-4.49,1.43c-.3.07-2.63.43-1.44.31-.93.1-1.87.15-2.82.17l6,6a24.41,24.41,0,0,1,6.75-15.74c.71-.77,1.45-1.5,2.22-2.2.46-.42.94-.82,1.42-1.22.94-.79-.17.05.76-.58,8.38-5.7,17.5-8.27,27.68-9.93l1.46-.23c1.93-.29-1.17.12.78-.1,1-.1,2-.21,3-.3,2.3-.18,4.61-.26,6.93-.21a32.72,32.72,0,0,1,11.68,1.93c.45.15.89.32,1.34.48,1.68.62-.94-.54.65.29.84.44,1.68.85,2.49,1.34.48.29.94.62,1.42.92,1,.6.38.25.15.08a23.35,23.35,0,0,1,3,2.75c2.68,2.94,4.35,6.84,5.49,11.15a54.46,54.46,0,0,1,1.27,6.45c-.15-1.1.1.92.1.91.06.52.11,1,.15,1.55.12,1.34.2,2.69.24,4,.07,2.07,0,4.15,0,6.22-.06,1.14-.14,2.27-.24,3.41-.05.52-.1,1-.16,1.55s-.09.82-.14,1.23c.08-.57.06-.48,0,.25a85.58,85.58,0,0,1-3.16,13.31q-1,3-2.15,5.84c.41-1-.4.89-.38.86-.21.47-.43.94-.65,1.41-.58,1.22-1.18,2.43-1.81,3.62a70,70,0,0,1-16.23,20.7,9.64,9.64,0,0,1-1.89,1.48c-1,.63-1.45,1-2.11,1,1.25,0-1.07-.32.15,0,1,.25-.69-.62.18.15a6.54,6.54,0,0,1-.77-.81c.67.84-.52-1-.62-1.21-2.55-4.77-4.66-9.84-6.87-14.77A670.11,670.11,0,0,1,649,431.25l-11,4.62A343.82,343.82,0,0,0,744.9,562.33c5.55,4,11.28,7.76,17,11.58a68.06,68.06,0,0,1,8,6A31,31,0,0,1,776,587a36.68,36.68,0,0,1,4.94,17.75,66.13,66.13,0,0,1-.44,10.53c0,.08-.17,1.15-.05.38,0,.34-.11.68-.16,1-.15.9-.33,1.8-.55,2.68a12.46,12.46,0,0,1-1.61,4.22c-1.28,2.14-3.69,3.95-6.15,5.46-3,1.86-6.19,3.54-9.38,5.09a114.8,114.8,0,0,1-18.92,7.12,119.13,119.13,0,0,1-40.91,4.35c-3.21-.19-7-.58-9.4-.94q-5.31-.79-10.53-2-5.05-1.21-10-2.87-2.21-.74-4.38-1.56l-2.25-.88-1.13-.46c.6.24,0,0-.24-.11a124.89,124.89,0,0,1-16.85-8.9A107.55,107.55,0,0,1,633.4,617,128.32,128.32,0,0,1,620,603.45c-1-1.15-1.93-2.33-2.88-3.51-.75-.94-.34-.43-.18-.22l-.73-1q-.72-1-1.44-2-2.84-3.93-5.36-8.07t-4.72-8.46c-.64-1.26-1.26-2.54-1.85-3.82-.34-.73-.67-1.47-1-2.21l-.48-1.11c.32.74-.1-.26-.21-.53-2.54-6.24-5.7-13.29-12.79-15.32-8.25-2.36-15.43,4.46-21.38,9.14a194.14,194.14,0,0,0-15.56,13.66,203.36,203.36,0,0,0-26.93,32.55c-7.54,11.31-13.38,23.31-18.85,35.71a77.46,77.46,0,0,1-4.25,8.44c-.35.58-.71,1.16-1.08,1.72-.13.2-1.35,1.88-.75,1.1a25.27,25.27,0,0,1-3.07,3.3c-.28.25-.57.5-.86.73.22-.17.82-.53-.14.07-.56.36-1.11.73-1.69,1a16.08,16.08,0,0,1-4.6,1.64,50.34,50.34,0,0,1-10,.75,171,171,0,0,1-20.12-.66l-1.26-.15c-.12,0-1.17-.16-.29,0-.73-.11-1.46-.22-2.18-.35-1.75-.31-3.48-.67-5.19-1.12-1.4-.37-2.78-.79-4.13-1.27-.77-.27-1.55-.55-2.3-.87.26.11.82.39-.24-.13l-1.38-.67a29.65,29.65,0,0,1-7.16-4.88,32.57,32.57,0,0,1-6-7.26c-3.79-6-5.78-11.41-8.09-18A461.23,461.23,0,0,1,407,584.9c-.46-1.92-1-3.85-1.32-5.8,0,.14.06.62,0-.09a8.55,8.55,0,0,1,0-1.34c.09-.92.22.54.12-.36s-.37.84.07-.07c.15-.31.37-1-.21.23.1-.2.45-.38.57-.54s-.87.86-.41.38c.17-.18,1-.4.16-.12s.61-.07.83-.14c-1.22.37-.79.06-.33.08h1.1c1.45,0-.77-.26.7.07.55.13,1.1.25,1.64.41s1.26.41,1.87.65c-.22-.09-1-.52-.05,0,.37.19.75.37,1.11.57s1,.56,1.5.88c.33.21,1.74,1.31.74.47q1.81,1.53,3.54,3.17a129.41,129.41,0,0,1,12.91,14.38l.48.61c-.37-.47.41.53.47.62l1.31,1.72c1,1.33,2,2.66,2.93,4,1.95,2.68,3.86,5.37,5.77,8.07,7.62,10.72,15.34,21.6,25,30.6a99.44,99.44,0,0,0,8,6.63c3.38,2.54,7,4.66,11.37,4.83,8,.3,13.2-6.64,16.48-13a239,239,0,0,0,17.38-43.59,231.36,231.36,0,0,0,8.4-45.79c.32-4.15-.37-8.54-3.51-11.55-3-2.86-7-3.64-11-3.88-8.1-.48-16.25-.49-24.36-.63-16-.26-32.39-.49-48.06-3A115.27,115.27,0,0,1,420.72,528a51.8,51.8,0,0,1-8.55-4.06,39.43,39.43,0,0,1-13.49-12.77,61,61,0,0,1-4.83-9.06c.24.55-.41-1-.51-1.26-.31-.81-.61-1.62-.9-2.44q-.87-2.46-1.61-5c-.95-3.25-1.75-6.54-2.45-9.86a170.2,170.2,0,0,1-3.14-46,160.59,160.59,0,0,1,3-22.47q1.17-5.67,2.69-11.26c.52-1.88,1.06-3.75,1.65-5.61.21-.69.44-1.38.69-2.06,0-.11.49-1.3.26-.74s.39-.85.46-1c1.41-2.82,2.34-3.8,5.19-4.45a16.29,16.29,0,0,1,3.65-.36c2.17-.08,4.34-.1,6.51-.13q12.57-.15,25.13.34t25.08,1.65c7.92.72,16,2.26,24,1.39a38.83,38.83,0,0,0,20.12-8.51c5.13-4,9.35-9.05,13.46-14.08s8.3-10.06,12.91-14.7q3.63-3.65,7.52-7c2.27-2,5.22-4.39,7-5.74a150.51,150.51,0,0,1,17-11.09q4.49-2.52,9.13-4.74c3.18-1.51,5.48-2.51,8.3-3.62a150.18,150.18,0,0,1,19.3-6.12c3.33-.81,6.7-1.51,10.08-2.08a66.54,66.54,0,0,1,9.1-1.11,23.67,23.67,0,0,1,9.18.79c.41.13.83.26,1.22.42-.27-.11-.71-.39.34.18a19.16,19.16,0,0,1,2.22,1.33c-.53-.38.75.7.94.88a20.75,20.75,0,0,1,1.88,2.09c-.46-.61.59.91.71,1.1.47.71.9,1.44,1.32,2.18.84,1.49,1.59,3,2.33,4.55q2.21,4.6,4.28,9.28c10.93,24.41,20,49.89,34.14,72.7A143.65,143.65,0,0,0,700.7,440c2.72,2.47,7.57,2.36,9.43-1.22,7.72-14.88,13.29-31.89,11.37-48.85-1.61-14.26-8.27-27.84-19.77-36.68-12-9.21-27.82-10.68-41.82-5.39-14.62,5.54-26.38,16.26-34.91,29.21a89.32,89.32,0,0,0-14.43,44c-1,17.71,3.43,35.3,8.85,52,1.31,4,2.88,8,4.07,12.14a9.87,9.87,0,0,1,.3,1.19c-.08-.48.16-.59,0,.2a3.82,3.82,0,0,1,.79-1.6c.3-.43.93.12-.07-.05-.08,0-1.32.12-.05,0-.86.06-1.72.05-2.58,0-1.72,0-3.44-.15-5.15-.3l-2.42-.26c.27,0,1,.15-.21,0l-1.49-.23a80,80,0,0,1-10-2.36q-2.32-.71-4.6-1.55c-2-.73-2.8-1.08-4.19-1.71a85.11,85.11,0,0,1-8.86-4.68q-2.21-1.35-4.32-2.82c-1.57-1.09-2.44-1.73-3.41-2.52a80.8,80.8,0,0,1-7.62-6.95,71.73,71.73,0,0,1-6.09-7.13,76.45,76.45,0,0,1-5.61-8.93,72.34,72.34,0,0,1-7.07-19.9,77.22,77.22,0,0,1-1.35-20.73c.09-1.48.31-3.74.43-4.7.15-1.19.57-3.63.92-5.3a80.06,80.06,0,0,1,2.86-10.32,62.58,62.58,0,0,1,4.1-9.27l-8.21,2.15a26.52,26.52,0,0,1,5.85,4.09,48.16,48.16,0,0,1,5.49,5.93c-.43-.55.46.63.58.79.37.51.74,1,1.1,1.55q1.26,1.83,2.43,3.72c1.4,2.25,2.71,4.55,4,6.87,6.42,11.64,12.53,23.46,18.43,35.37s11.61,24,17,36.21c4.48,10,8.59,20.3,14.1,29.84,6.07,10.49,14.09,20.18,25,25.9a6,6,0,1,0,6.06-10.36,43.6,43.6,0,0,1-6.47-4.1c.69.54-.42-.37-.61-.53-.44-.37-.88-.76-1.31-1.15-1-.91-2-1.87-2.92-2.86s-1.59-1.73-2.34-2.63c-.38-.45-.75-.91-1.12-1.37l0,0c-.3-.39-.59-.79-.88-1.19-1.47-2-2.84-4.11-4.13-6.25-5.65-9.4-9.78-19.62-14.23-29.63Q599.37,431.15,580.23,396c-6.09-11.17-13.16-22.61-24.65-28.91-2.75-1.51-6.66-.78-8.21,2.15-14.31,27.06-13.47,61.6,3.14,87.5,15.46,24.1,43.25,39.88,72,40.27,4.45.06,9.1-1,11.68-5,2.68-4.12,1.39-8.73-.08-13-2.8-8.16-5.51-16.37-7.64-24.73a117.35,117.35,0,0,1-3.92-24.85,88.13,88.13,0,0,1,.41-12.58c.05-.44.1-.88.16-1.31,0,.28-.14.88,0-.38.14-.87.28-1.74.44-2.61q.54-2.94,1.28-5.83a75.54,75.54,0,0,1,21.33-36.42,49.27,49.27,0,0,1,7.89-6.15q2.15-1.38,4.41-2.58c.76-.39,1.51-.77,2.28-1.13l1.16-.53a3.11,3.11,0,0,1,.6-.25,45.83,45.83,0,0,1,10.22-2.75c-.94.13.09,0,.24,0l1.22-.1c.82-.05,1.64-.08,2.46-.08s1.64,0,2.46.08c.51,0,1,.08,1.54.13s-.49-.11.55.08a30.73,30.73,0,0,1,8.59,2.78,35.56,35.56,0,0,1,3.89,2.35l.93.66c-.77-.56,0,0,.13.11.74.61,1.46,1.23,2.15,1.88a41.42,41.42,0,0,1,3.18,3.31c.22.26,1.44,1.8.87,1,.58.77,1.13,1.56,1.66,2.37a44.89,44.89,0,0,1,2.37,4c.36.69.71,1.38,1,2.09l.48,1.06c-.41-.92.21.56.28.73a45.77,45.77,0,0,1,3,20.21,75.24,75.24,0,0,1-5.22,22.64,102.39,102.39,0,0,1-4.8,10.47l9.42-1.21c-10.16-9.26-17.5-18.93-24.48-30.62S672,376.82,666.56,364.34,656,339,650.22,326.51c-2.9-6.3-5.79-13.21-11.1-17.9-6.12-5.39-14.07-7-22-6.46-14,.88-28,4.53-41,9.61A157.21,157.21,0,0,0,539.27,332a167.44,167.44,0,0,0-29.86,29,106.71,106.71,0,0,1-13.32,14.3c-.9.76-.4.33-.18.16-.32.24-.64.48-1,.7-.64.46-1.29.9-2,1.31s-1.35.8-2,1.17l-1.05.53c-.31.16-.78.36-.18.11a25.19,25.19,0,0,1-9.9,2c-8.34.17-16.75-1.36-25.05-2q-12.74-1-25.5-1.4c-8.48-.25-17-.29-25.46-.07-4.14.11-8.24.53-12,2.34a18.37,18.37,0,0,0-8,8.17c-3.54,6.81-5.2,14.87-6.79,22.32A190.92,190.92,0,0,0,373.42,435a183.24,183.24,0,0,0,2.73,48.47c2.7,14.26,7.23,28.56,16.71,39.83,9.66,11.47,24.28,17.15,38.6,20.19,16.5,3.5,33.42,4.36,50.24,4.73,8.32.18,16.65.24,25,.49,1.95,0,3.89.12,5.84.2.91,0,1.82.1,2.73.13.18,0,1.17.14.17,0,.49.07,1,.21,1.43.31.91.2-.65-.41.16,0l.25.13c.53.33.63.39.28.19,0,0-.46-.38-.41-.4s-.16-.63,0,.21c.31,1.22.06.44.05.19,0,.41,0,.82,0,1.23,0,1-.12,2-.21,2.93a230.34,230.34,0,0,1-16.85,66.72c-2.76,6.49-5.77,13.66-9.77,19.67-.55.82.48-.56-.14.2-.24.3-.5.6-.77.88s-1.54,1.34-.69.74c-.31.22-.62.39-.93.59-1.25.78-.08.05-.06,0-.19.28-.84.2,0,.11-.2,0-1.52-.1-1.11,0-1.83-.39-5.11-3.13-6.78-4.51a106.56,106.56,0,0,1-13.69-13.84c-1-1.17-1.95-2.36-2.9-3.56-.11-.13-1.47-1.88-1-1.21-.56-.73-1.12-1.47-1.67-2.21-2-2.64-3.91-5.31-5.83-8-3.84-5.38-7.62-10.8-11.61-16.07A162.06,162.06,0,0,0,430,577.66c-4.61-4.7-9.4-9-15.68-11.24-5.67-2-12.86-2-17.23,2.72-6.09,6.58-2.28,16.36-.4,23.89a417.29,417.29,0,0,0,14.45,46.91c5.2,13.69,12.68,26.78,26.57,33.1,13.1,6,27.7,6.26,41.84,6.09,7.75-.09,16-.69,22.48-5.39,5.58-4,9.42-9.7,12.38-15.84s5.28-12.21,8.26-18.18A193.74,193.74,0,0,1,533,621.44a184.52,184.52,0,0,1,25.92-32,192.9,192.9,0,0,1,15.72-14,75,75,0,0,1,7.88-5.78,10.28,10.28,0,0,1,1.33-.72c.11,0,1.41-.3.83-.24s1.23.12.24,0,.4,0,.44.16l.23.07-.53-.2c.25.18.57.33.83.51-1.06-.71.12.19.3.38s.47.51.69.78c-.07-.09-.52-.71-.15-.14s.78,1.23,1.13,1.87.6,1.15.87,1.74c.16.33.31.67.46,1-.51-1.13.19.46.23.56,1.34,3.29,2.74,6.54,4.31,9.73a123.57,123.57,0,0,0,9.93,16.63,133.62,133.62,0,0,0,62.69,48.32c27.3,10,58.34,10.12,85.9,1a132.7,132.7,0,0,0,20.52-8.79c6.6-3.53,13.56-7.71,16.72-14.83,3.08-6.93,3.69-15.26,3.38-22.77A51.53,51.53,0,0,0,787.45,583c-7-13.36-21.47-20.34-33.29-28.69a318,318,0,0,1-32-25.85,339.6,339.6,0,0,1-29.12-30.26,319.6,319.6,0,0,1-24.57-33,335.07,335.07,0,0,1-20.11-35.37c-3-6.09-13-1.83-11,4.63a697.86,697.86,0,0,0,27,70.9c2.43,5.48,4.81,11,7.53,16.36,3,5.91,8.71,9.73,15.49,7.74,5.42-1.59,9.82-6.14,13.59-10.15a86.91,86.91,0,0,0,22.39-73.74c-1.89-10.88-7.18-21.22-17-26.87-8.93-5.14-19.8-6-29.87-5.07-12.37,1.19-25.49,4.1-36.06,10.92s-18.7,18.24-18.8,31.27a6.08,6.08,0,0,0,6,6c15.07-.29,28.39-10.63,34.36-24.19,6.42-14.6,4.09-31-4.21-44.4a66.29,66.29,0,0,0-18.59-19.34c-2.66-1.86-6.67-.49-8.21,2.15-1.75,3-.51,6.35,2.15,8.21Z" transform="translate(-138.28 -117.02)"/></svg>