<svg id="Capa_1" data-name="Capa 1" xmlns="http://www.w3.org/2000/svg" viewBox="0 0 427.99 430.54"><defs><style>.cls-1{fill:#895c37;}</style></defs><path class="cls-1" d="M485,277.53a271,271,0,0,0-72.61,111.88q-3.6,10.66-6.3,21.6c-1.78,7.24-4.27,15.52-1.36,22.8,4.56,11.38,19,13.93,29.83,13.29,15.49-.92,30.58-5.6,44.6-12.1,14.38-6.66,27.75-15.32,40.51-24.69a366.15,366.15,0,0,0,92.86-99.62c4.17-6.6,8.38-13.32,11.87-20.31,2.78-5.56,4-12.07.11-17.4-7.08-9.61-21.86-9.24-32.4-8.36-33.05,2.74-65,12.79-95.3,25.84s-59.48,28.74-87.93,45.35a908.58,908.58,0,0,0-80.86,53,764.83,764.83,0,0,0-73.79,61.62q-8.62,8.2-16.95,16.69a1.51,1.51,0,0,0,1.82,2.35q43.47-22.8,85.42-48.35T407.06,368q40.68-27.57,80.26-56.73,39.51-29,78.22-59,38.93-30.07,77.41-60.72l9.51-7.55-2.51-.66c1.94,9-.2,18.09-3.18,26.62-2.87,8.22-6.29,16.27-9.65,24.3Q627,258.31,615.44,281.7A852.5,852.5,0,0,1,564,371.57Q549.76,393.22,534.24,414c-9.51,12.72-19.19,25.77-31.59,35.86a75.28,75.28,0,0,1-9.75,6.76c-3.47,2-7.33,4.15-11.29,4.94-8.67,1.74-10.17-8.28-10.71-14.56q-2.46-28.51-3.6-57.14-2.28-57,.72-114.06.38-7.15.83-14.29l-2.79.75a418.12,418.12,0,0,1,48,106.08q4,13.79,7.13,27.84c.84,3.87,3.34,10.47-.53,13.45-2.69,2.08-6.84.84-9.63-.35-3.72-1.58-6.76-4.17-9.85-6.7q-5.46-4.47-10.75-9.14-10.72-9.45-20.71-19.69a382.83,382.83,0,0,1-41-49.82l-.54,2c27.37-20.22,66.28-6.2,86.14,17.88,24.75,30,28.41,70.92,33.35,108,3,22.77,6.83,45.64,16.19,66.79a1.51,1.51,0,0,0,2.74-.36,667.13,667.13,0,0,0,9.86-102.68,665.39,665.39,0,0,0-6.15-103c-1.75-12.68-2.84-28.71-13.65-37.4-11.4-9.16-27.22-5.29-38.54,1.81-6.37,4-12.17,8.91-17.88,13.78s-11.38,10-16.81,15.3a353.93,353.93,0,0,0-56.22,70.72c-7.84,13-16.66,27.11-18.34,42.48-1.53,14,5.18,26.27,16.31,34.42,11.69,8.57,26.82,12.2,41.16,11.76,30-.91,55.56-21.35,74.1-43.44,17.65-21,30.06-46.13,37.66-72.44a239.23,239.23,0,0,0,7.93-40.72c1.54-14.4,2.64-29.7-1-43.86a49.47,49.47,0,0,0-24.65-31.14c-13-7.13-28-9-42.66-7.71-16.11,1.47-31.88,6.27-47,11.74a307.7,307.7,0,0,0-79.91,43.08c-11.93,8.94-23.55,18.64-33.65,29.64-9.58,10.44-18,22.68-21.47,36.59-3.11,12.31-2.47,25.91,3.24,37.38,6.54,13.12,19.43,19.79,32.38,25.25a190.63,190.63,0,0,0,44.32,12.8c29.32,4.63,60.46,2,87.22-11.55,23.3-11.76,42.76-31.85,53.23-55.79A94.6,94.6,0,0,0,564.2,318c.09-15.42-4.32-30.44-10.07-44.62-5.09-12.57-11.58-24.84-20.89-34.82a59.73,59.73,0,0,0-35.82-18.92c-30.39-4.08-57.83,12.92-78.27,33.81-21.64,22.13-39.55,48.45-53.65,75.94-7.11,13.86-14.09,28.45-17.92,43.6-3.63,14.29-3.49,29.84,5.46,42.21,7.73,10.7,19.81,17.56,32.27,21.31A92.86,92.86,0,0,0,426.64,439c27.88-4.43,52.39-20.82,67.93-44.26A113.85,113.85,0,0,0,510.7,356.7c2.87-12.84,3.79-26.36,1.22-39.33-2.39-12-8.14-23.74-18.45-30.84-11.64-8-27.47-9.7-41.18-7.92-28.07,3.65-52.88,21.9-70.82,43a207.55,207.55,0,0,0-41.53,78.59A182.47,182.47,0,0,0,332.89,444c-.38,14.21,1.68,28.94,8.84,41.44,13.22,23.1,41.23,32.61,66.63,32.09,28.86-.6,56.62-12.32,79.37-29.68,23.74-18.12,42-42.37,56.12-68.5a376.89,376.89,0,0,0,19-41.42c6.12-15.53,11.44-31.45,14.88-47.81,3.38-16.06,5-32.6,3.49-49-1.31-14.61-4.92-29.6-14.15-41.35-8.22-10.45-21.67-17.81-35.22-16.12-13,1.63-22.94,10.89-30,21.31C494.36,256,489.1,268.9,485.75,281.8s-4.7,26.44-2.62,39.64c2,12.91,7.77,25.15,17.13,34.36,9.79,9.63,22.79,15.61,36.19,18.13,12.93,2.44,27.77,2.52,39.52-4.16s16.71-19.71,17.26-32.77a74,74,0,0,0-1.61-19.29c-1.24-5.47-3.39-11.16-7.38-15.23-10.61-10.8-25.58-.41-34.53,7.37-10.73,9.31-18.86,21.26-26,33.43-7.67,13.1-16,27-18.85,42.11-2.33,12.33-.18,25.81,8.38,35.41,8.76,9.83,22.2,11.19,33.86,6,12.29-5.43,21.4-16.39,27.13-28.3a75.38,75.38,0,0,0,7-41,1.53,1.53,0,0,0-2.26-1.29c-22.74,11.55-38.86,32-51,53.94a374.53,374.53,0,0,0-16.78,35.07c-2.44,5.71-5.77,12.37-3.92,18.72s8.35,9,14.27,10c14.34,2.3,28.26-4.87,39.81-12.6a158.1,158.1,0,0,0,52.58-59.23c5.66-11.1,10.51-23,11.41-35.55.82-11.49-2.38-23.43-12.35-30.17-5.38-3.64-11.87-5.18-18.24-5.91a153.72,153.72,0,0,0-22.61-.5c-32.72,1.07-64.87,8.41-96.22,17.37a729.53,729.53,0,0,0-84.09,29.22c-27.25,11.53-53.66,25.2-78.26,41.69q-9.22,6.18-18.07,12.89a139.85,139.85,0,0,0-16.4,13.93c-9.25,9.6-16.31,23.38-12.23,36.95,3.12,10.39,12.61,16.86,23,18.55,11.33,1.85,22.36-1.39,31.41-8.31,10.48-8,17.71-19.4,23.87-30.87a427.1,427.1,0,0,0,19.36-41.35,439.35,439.35,0,0,0,25.78-89.49c2.82-16.11,4.7-32.51,3.83-48.88-.74-13.88-3.13-29.27-13.71-39.29a28.2,28.2,0,0,0-16.17-7.86c-7.2-.76-14.31,2-20.83,4.72A141.72,141.72,0,0,0,310.07,259c-21.16,16.67-37.75,38.67-49.82,62.64-13.86,27.52-22.1,57.48-27.86,87.64-4.26,22.35-9.86,55.58,16.72,66.5,12.78,5.25,26.92,2.48,38.95-3.42,11.73-5.76,22.45-14,32-22.92,18.14-16.88,32.32-37.78,42.33-60.39a224.77,224.77,0,0,0,18.22-72.59,231.78,231.78,0,0,0,.08-36.51c-.11-1.38-2-2.16-2.8-.75a211.94,211.94,0,0,0-24.16,81.43,209,209,0,0,0,.63,42.66c1.41,11.89,3.41,24.26,9.54,34.75,5.66,9.7,15.4,16.46,27,14.87,13.21-1.8,23.61-12.26,32-21.8a320.63,320.63,0,0,0,62.66-108.06c2.3-6.72,4.49-13.52,6.17-20.42,1.59-6.56,2.62-13.4,1.66-20.14a29.7,29.7,0,0,0-3-9.39,1.53,1.53,0,0,0-2.05-.53c-18.8,8.21-32.18,25.57-44.17,41.54a349.09,349.09,0,0,0-33.85,55.08c-9.17,18.62-17.93,38.51-19.79,59.4-.89,10,.08,20.28,3.92,29.62A55.14,55.14,0,0,0,411,480.05c31,25.06,76.1,19.84,108.8,1.28,35.34-20,58.87-55.51,75.36-91.68a367.1,367.1,0,0,0,32.23-128.18c2.37-36.2,3-84.46-33.91-104.23-15.42-8.26-33.88-10.08-50.9-6.63-18.78,3.8-35.71,14.21-49.9,26.8-15.1,13.41-27.93,29.62-38.59,46.73A206.54,206.54,0,0,0,429.58,280c-10,37.68-7.18,78.7,11.05,113.49a124.11,124.11,0,0,0,36.59,42.93,118.68,118.68,0,0,0,50.44,21.15c18.12,2.94,37.11,1.5,54.2-5.43,9.07-3.67,17.63-8.94,24.15-16.34,6.37-7.22,10.58-16,13.25-25.24a129.42,129.42,0,0,0,4.46-29.68A195.87,195.87,0,0,0,622.56,348a199.21,199.21,0,0,0-18-62.37c-7.66-16-18.56-31.59-33.85-41.08a51.56,51.56,0,0,0-25-7.92c-10.06-.42-19.94,2.41-28.92,6.77-9.19,4.47-17.51,10.54-25.29,17.11a215,215,0,0,0-21.75,21.15,218.85,218.85,0,0,0-33.58,50c-7.69,15.81-13.88,34.23-10.28,52A36.77,36.77,0,0,0,438.39,405a39.22,39.22,0,0,0,22.58,8.3c41.13,2.32,61.8-43.12,69.11-76.76a176.93,176.93,0,0,0,2-63.53,170,170,0,0,0-7.59-31c-3.08-8.84-6.68-17.85-12.36-25.38-5.24-7-12.37-12.3-21.25-13.18-10.53-1.05-20.66,4.21-29.29,9.64A304.39,304.39,0,0,0,414,250.34,315,315,0,0,0,374.49,296c-12,16.83-23.05,35-29.92,54.55-6.43,18.32-8.53,38.53-1.51,57,6.24,16.43,19.05,30.43,36.62,34.46,20.71,4.75,42.05-3.57,60.65-12a291.06,291.06,0,0,0,129-115.3c21-35.63,34.27-77.78,28.86-119.43-2.5-19.28-8.69-38.79-24.64-51.1-13.62-10.52-31.51-14.77-48.51-13.59-39.31,2.74-71.25,33.66-93.39,63.76-24.25,33-39.13,75.17-27.73,115.92a87.75,87.75,0,0,0,30.7,46.2c14.42,11.1,33.11,17.87,51.45,15.79a36.13,36.13,0,0,0,24.37-13c6-7.3,9.77-16.24,12.13-25.36,5.52-21.34,3.54-43.87-.27-65.32-3.55-19.92-9.6-40.41-23-56.06-12.06-14.06-30.45-24-49.35-21.61-18.38,2.32-33.15,15.14-44.07,29.31-12.72,16.52-22.14,35.93-28.79,55.62-6.85,20.31-11.71,42.77-7.23,64.12,3.7,17.68,15.13,34,32.21,41A39.6,39.6,0,0,0,427,382.51c8.09-2.12,15.29-6.78,21.25-12.56,13.63-13.19,21.29-31.44,26.34-49.4a180.47,180.47,0,0,0,6.06-33.25,134.36,134.36,0,0,0-.24-29.8c-2.18-15.76-9.24-32.92-25.53-38.39-18.71-6.29-38.23,5.89-51.35,18.24a115.59,115.59,0,0,0-30.71,48.79c-2.61,8.17-4.52,17.1-2.55,25.62,2.06,8.88,8.77,14.16,17.52,15.83,9.92,1.88,20.43,1.89,30.45,1.05a137.36,137.36,0,0,0,30.18-6,134.58,134.58,0,0,0,28-12.62c8.34-5,16.9-10.87,21.94-19.39,9.25-15.62,4.44-36.2-6.74-49.48C479,226.09,459.31,218.88,440.56,215a182,182,0,0,0-66-1.53c-21,3.36-42.75,10.06-60.14,22.64C297.54,248.29,285,266.42,275,284.51a211.54,211.54,0,0,0-21.76,58.74c-2,9.53-3.66,19.39-3.71,29.15,0,8.37,1.26,17.35,6.19,24.36,5.16,7.33,13.55,11,22.38,11.2,10,.21,19.4-4,27.63-9.37a227.36,227.36,0,0,0,23.64-18.42A278,278,0,0,0,350.5,360a211.08,211.08,0,0,0,32.63-44.89,166,166,0,0,0,10.74-24.89A84.36,84.36,0,0,0,397.54,277c.57-3.63.22-7.28-2.87-9.63a1.5,1.5,0,0,0-1.82.23,305.39,305.39,0,0,0-39,60.45c-10.33,21.18-18.63,43.78-23.47,66.87-1.94,9.27-2.63,21.73,6.61,27.41a1.51,1.51,0,0,0,2-.54,183.15,183.15,0,0,0,8.69-151c-.5-1.28-.94-3.2-1.76-4.3s-2.08-1-3.18-1.08a18.83,18.83,0,0,0-8.25,1c-5.49,1.93-10.11,5.82-13.9,10.15-8,9.16-13.69,20.8-18.21,32A156.65,156.65,0,0,0,292.13,382a151.17,151.17,0,0,0,8.05,36.13c3.81,10.63,8.62,23.76,18.95,29.72,10.54,6.09,23.76,2.07,32.25-5.66,9.54-8.68,14.88-21.54,19.09-33.46A157.13,157.13,0,0,0,379,367.65a154.92,154.92,0,0,0,.1-21c-.36-5.56-.76-11.33-2.95-16.51-2-4.63-5.61-8.49-10.8-9.15-5.65-.73-10.79,2.67-14.54,6.58-4.41,4.6-7.41,10.37-10.12,16.09a122,122,0,0,0-11.55,58.7c.7,12.93,3.25,26.24,9.6,37.66,6.13,11,16,18.92,27.33,24.2a119.2,119.2,0,0,0,38.66,10.65,58,58,0,0,0,20.65-1.62l-1.46-.39c4.16,4.26,1.4,11.74,1.88,17a11.42,11.42,0,0,0,3.05,7.22c2.29,2.3,5.52,3.26,8.59,4A331.28,331.28,0,0,0,489,509.24c16.14,1.3,33.9,2.87,49.16-3.71,13.28-5.73,23.21-16.94,31.52-28.43,18.07-25,33.24-53.79,37.64-84.62,3.8-26.64-1.43-54.6-17.5-76.57a77,77,0,0,0-28.67-24.34c-6.76-3.23-14.28-5.7-21.87-5.27a31,31,0,0,0-16.87,6.36A42.35,42.35,0,0,0,506.22,325c-.31,14.52,6.21,28.31,14.9,39.61,4.4,5.72,9.36,11.45,15.41,15.48,5.45,3.63,12.61,5.86,18.64,2.2,5.7-3.46,7.87-10.4,9.68-16.42a171.34,171.34,0,0,0,5.47-25,173.55,173.55,0,0,0,1.74-25.16c0-6.83.37-14.68-2.94-20.9-2.7-5.09-8.31-7.2-12.9-2.94-4.9,4.54-7.71,12-9.31,18.3-3.56,14.12-2.3,29.63-.32,43.91s7.5,29.28,21.43,35.65a23.54,23.54,0,0,0,18.65.7c6.11-2.43,11-7.13,14.86-12.31,9.29-12.29,15.14-27.84,18.22-42.83A122.58,122.58,0,0,0,622.23,312h-3c2,19.77,8.49,38.69,11.1,58.35a121.66,121.66,0,0,1-3.73,49.52,125.71,125.71,0,0,1-22.19,43.34,119.23,119.23,0,0,1-17.11,17.54,17.19,17.19,0,0,1-5.65,3.57c-2.88.89-4.91-.58-6.69-2.71-3-3.64-5.76-7.59-8.46-11.48A270.21,270.21,0,0,1,539,420.21c-3.15-7.52-7.43-18.5,2.25-23.12,8.33-4,17.06,1.17,23.49,6.37,12.38,10,25.23,26.46,21.17,43.47-3.67,15.36-19.89,24.65-34.11,28.48-26.94,7.25-58-2.25-75.94-23.7a64.77,64.77,0,0,1-5.89-8.35l-.9,2.2c24.37-3.92,50.23,3.84,68.67,20.18a78.26,78.26,0,0,1,6.4,6.35c2.14,2.37,4.69,5,5.49,8.18,1.5,6-4.84,9.84-9.55,11.62-6.7,2.53-14.27,3.47-21.34,4.27a214,214,0,0,1-22.64,1.24,400.57,400.57,0,0,1-42.56-1.83c-13.37-1.33-26.73-3.7-39.4-8.28a100,100,0,0,1-17.93-8.5C390.62,475.37,385,471.36,381,466c-3.53-4.77-5.52-10.58-4-16.47,1.37-5.21,5.39-9.93,11.11-10,6.74-.09,12.13,5.51,14.42,11.39,2.55,6.53,2.58,13.84,2.66,20.74a201.67,201.67,0,0,1-4.72,45.82q-1.23,5.54-2.75,11h2.89L370,420.91l-8.6-30.16c-.38-1.34-2.62-1.52-2.89,0a91.64,91.64,0,0,0-.91,25.88,77.57,77.57,0,0,0,2.05,11.63c.84,3.12,2.17,6.31,4.7,8.43,5.14,4.31,13.67,2.67,19.37.4a43.34,43.34,0,0,0,16-11.52c10.55-11.72,15-27,20.77-41.29a117.56,117.56,0,0,1,5.24-11.34c1.5-2.78,3.34-5.91,6.7-3.68,2.19,1.45,3.86,3.58,6.17,4.89,2.78,1.57,5.68,1.27,8.45-.2,3.85-2,7.41-4.8,11-7.21s7.25-4.87,10.87-7.31q11.2-7.57,22.31-15.25,22-15.26,43.77-31t43.08-31.94c1.68-1.27,3.33-2.63,5.07-3.82,2.29-1.56,4.12-1.47,6.42,0,3.84,2.48,7.54,5.22,11.29,7.83q11.29,7.85,22.59,15.68c6.76,4.7,13.72,9.57,18.51,16.4,4.38,6.25,6.82,13.55,8.38,21A183.72,183.72,0,0,1,653.43,361c.57,7,.7,14.22-1.55,20.91a23.23,23.23,0,0,1-5.18,8.63l2.56,1.06c-.06-22.93-1.09-45.86-3.21-68.69-1.75-18.8-5.14-38.17-19.17-51.95-6.79-6.67-15-11.67-23.34-16.18-9.44-5.12-19.14-9.76-29-14s-19.77-7.84-29.91-11S523.78,223.65,513,223a68.2,68.2,0,0,0-30.17,5.34c-9.34,3.8-18.17,9-27.76,12.19-10.41,3.45-5.47-14.3-3.92-18.85A60.25,60.25,0,0,1,464,200.51a70.58,70.58,0,0,1,44.94-22.27c19.21-1.82,38.56,3.56,55.14,13.14,16.91,9.77,30.83,24,42,39.93a217.3,217.3,0,0,1,15,25c4,7.77,7,16.6,12.45,23.5a21,21,0,0,0,9,6.76c1.37.51,2.16-1.15,1.7-2.21a342.46,342.46,0,0,0-37.81-65.69c-.92-1.26-3.36-.58-2.74,1.15,7,19.8,17.91,37.86,27.73,56.35,9.54,18,18.51,37,20.33,57.52,1.06,11.88-.62,23.64-3.39,35.18-2.93,12.2-6.55,24.27-10.2,36.28q-10.71,35.22-23.9,69.62-13.27,34.56-29,68.1c-1.24,2.66-2.46,5.33-3.78,7.95-1.2,2.37-2.62,4.88-5,6.16-5.28,2.79-12-.93-16.82-3.09q-14.65-6.55-29-13.86c-38.2-19.58-74.49-43.74-104.43-74.72A269.52,269.52,0,0,1,360,350.22q-2.26-8.18-4-16.49a1.52,1.52,0,0,0-2.51-.66c-10.72,9.85-17.84,22.67-23.34,36-2.8,6.8-5.21,13.76-7.54,20.74s-5.33,15.09-1.78,22.23c3.06,6.15,9.91,9.33,15.73,12.26,6.94,3.49,14.06,6.64,21.28,9.49a284.2,284.2,0,0,0,45.23,13.47c31.22,6.61,63.33,8.5,95.17,7.14q11.89-.5,23.77-1.6c6.74-.62,14.27-1.89,20.76.72,7.44,3,9.7,11.1,9.13,18.48-.54,6.88-3.65,13.42-7.94,18.76-9.81,12.21-24.8,17.61-39.7,20.62-17,3.44-34.32,5.41-51.45,8l-13.38,2a1.5,1.5,0,0,0-.9,2.2,41.58,41.58,0,0,0,29.13,15.71c12.13,1.18,23.39-3.11,32.27-11.32,9.67-8.95,16.31-20.9,27-28.76,10.51-7.71,23.33-11.08,35.76-14.29,13.83-3.58,28.15-7.13,39.75-15.9l-2.2-1.69a101.34,101.34,0,0,1-39.34,63.15,1.5,1.5,0,0,0,1.51,2.6c18.29-8.1,37.47-17,51.22-31.95a60.69,60.69,0,0,0,14.51-26.76c2.9-12,2.41-24.45,2.18-36.68-.12-6.43-.73-13.43.52-19.77.47-2.35,1.67-6.1,4.54-6.39,1.53-.15,5.33,1.86,3.8,3.77-1.19,1.49.92,3.63,2.13,2.12,2.66-3.34.08-7.28-3.51-8.51-4.66-1.6-8.18,2.41-9.43,6.5-1.76,5.77-1.19,12.48-1.11,18.43.08,6.78.34,13.55.19,20.33-.28,12.8-2.41,25.43-9.4,36.38-5.93,9.3-14.46,16.64-23.63,22.63-10.54,6.9-22,12.22-33.52,17.3l1.51,2.6a104.41,104.41,0,0,0,40.72-65c.2-1.12-1-2.56-2.21-1.69-20.12,15.22-47.15,14.22-68.91,26-11.31,6.14-18.73,16-26.92,25.63-8,9.36-17.3,17.21-30.05,18.26s-26.08-4-33.95-14.28l-.89,2.2c17.9-2.66,35.81-5.23,53.7-8,15.17-2.35,31.16-5.54,43.62-15.1,10.32-7.91,18.53-20.41,17.34-33.9-.6-6.73-3.74-13.18-10.13-16.09-6.17-2.8-13.23-2.24-19.79-1.61-31.89,3.05-64.13,3.32-95.93-.85s-63.27-12.89-92-27.46c-6.54-3.33-14.31-7.19-14.87-15.47-.28-4.14,1-8.26,2.29-12.14q1.72-5.27,3.55-10.48c4.93-14.08,10.68-28.34,20.14-40a72.9,72.9,0,0,1,7.42-7.89l-2.51-.67a270.92,270.92,0,0,0,61.07,122.19C443,489.65,479,515.55,517.29,536.39q14.73,8,29.94,15.12c4.83,2.28,9.69,4.52,14.6,6.64,4.62,2,10.14,4,15.08,1.84s7-7.49,9.14-12q3.93-8.33,7.73-16.71,7.83-17.31,15-34.9Q623.18,461.18,635,425q5.82-17.89,11-36c3.41-11.95,6.87-24,8.37-36.35,5.36-44.49-24.4-80.91-41.87-119.08-2.18-4.78-4.19-9.64-5.95-14.59l-2.74,1.15a342.54,342.54,0,0,1,37.81,65.7l1.69-2.21c-8.51-3.21-12-13.05-15.59-20.6a241.35,241.35,0,0,0-14.33-26.17c-10.35-16.25-23.14-31.22-38.93-42.41-15.52-11-34-18.32-53.09-19.43a75,75,0,0,0-49.75,14.61c-13.05,9.84-23.08,24.15-25.63,40.51-.54,3.47-.82,7.31.94,10.5,2,3.58,5.75,3.87,9.3,2.63,9.68-3.37,18.61-8.54,28.11-12.34a66.31,66.31,0,0,1,31.87-4.7c11.13,1.13,22,4.46,32.54,8a310.12,310.12,0,0,1,59.48,26.57c8.48,5,16.73,11,22.48,19.09s8.64,17.58,10.38,27.2c1.93,10.64,2.61,21.53,3.36,32.3q1.23,17.44,1.65,34.92.21,8.63.23,17.26a1.51,1.51,0,0,0,2.56,1.06c9.79-10.31,8.39-25.73,6.88-38.74-1.72-14.78-4-30.45-14.26-42-5.38-6.06-12.24-10.58-18.85-15.17l-23-16L594,276.87a26.54,26.54,0,0,0-5.22-3.23c-3.76-1.46-6.75.86-9.62,3q-10.76,8.18-21.6,16.24-43.38,32.22-88.14,62.54c-7.42,5-14.81,10.16-22.37,15-1.68,1.07-3.62,2.24-5.68,1.69a9.47,9.47,0,0,1-3.51-2.18c-1.84-1.56-3.64-3.55-6-4.29a6,6,0,0,0-6.51,2.17c-2.46,2.95-4,6.94-5.57,10.42-3.35,7.51-6,15.32-9.12,22.93-5.51,13.38-13.86,27.61-28.05,33.14a27.64,27.64,0,0,1-10,2c-4.64,0-7.75-2.15-9.39-6.45a51.05,51.05,0,0,1-2.5-11.61,88.57,88.57,0,0,1,.61-26.67H358.5l30.68,107.6,8.6,30.15a1.51,1.51,0,0,0,2.89,0,206.55,206.55,0,0,0,7.52-49.91c.21-7.74.34-15.77-1.09-23.4-1.26-6.71-4.37-13.11-10.3-16.84-5.1-3.21-11.67-3.59-16.59.16-4.34,3.31-6.61,8.88-6.71,14.25-.26,13.86,13.49,23.6,24.26,29.59,26.16,14.56,57.33,16.42,86.61,17.15,16.7.41,33.58,0,49.94-3.67,5.82-1.29,12.27-3.24,16.16-8.09,4.12-5.14,2.15-10.91-1.62-15.59-16.76-20.81-44.28-32.53-70.84-31.3a85.12,85.12,0,0,0-9.69,1,1.51,1.51,0,0,0-.9,2.2c15.48,26,47.51,39.4,77.06,35.11,15.23-2.21,31.89-9.65,40.41-23,10.11-15.87,2.3-34.45-9.1-47.19-5.95-6.64-13.67-13.71-22.42-16.24-7-2-16.21-.19-19.78,6.88-2.11,4.17-1.57,9-.24,13.29a123.24,123.24,0,0,0,5.67,14,271.68,271.68,0,0,0,31.37,52.91c2.44,3.22,5.1,7.19,9.64,7.06s8-3.53,11.14-6.24a124.85,124.85,0,0,0,31.32-42,127.86,127.86,0,0,0,11.88-50.78c.43-20.67-5.65-40.39-9.65-60.46-1.07-5.36-2-10.75-2.49-16.19-.19-1.89-3-2-3,0a118.65,118.65,0,0,1-8.85,43.68,97.92,97.92,0,0,1-10.1,19c-3.66,5.25-8.38,10.3-14.41,12.78-12.83,5.28-25.62-4.1-31.17-15.36-3.27-6.66-4.69-14.1-5.53-21.42a187.64,187.64,0,0,1-1.36-20.78,74.42,74.42,0,0,1,2.34-20.32,44.7,44.7,0,0,1,3.69-9.27c1.47-2.71,3.54-6.79,6.72-7.74,5.84-1.74,7.8,8,8.08,11.86a169.81,169.81,0,0,1-3.23,47c-1.5,7.09-3.1,14.66-6.17,21.26-1.3,2.8-3.1,5.55-5.84,7.12a11.71,11.71,0,0,1-9.64.55c-6.64-2.2-11.81-7.68-16.31-12.8-9-10.24-16.43-22.8-18-36.57a40.22,40.22,0,0,1,11.24-32.93,29.88,29.88,0,0,1,14.9-8.29c7.24-1.51,14.74.39,21.42,3.22a72.73,72.73,0,0,1,27.84,21.4c15.46,19.09,22.1,44.36,20.42,68.64-2,29.14-14.58,56.52-30.22,80.76-7.3,11.33-15.21,22.77-25.74,31.35a51.1,51.1,0,0,1-18.25,9.72c-7.5,2.14-15.37,2.48-23.13,2.35a320.66,320.66,0,0,1-48.2-4.63,235.65,235.65,0,0,1-23.08-4.79c-3-.83-6.12-2.17-7.3-5.32-.93-2.46-.71-5.23-.54-7.8.31-4.86.89-10.16-2.81-13.94a1.52,1.52,0,0,0-1.46-.38c-10.78,3-22,1.84-32.78-.68a119.66,119.66,0,0,1-27-9.4c-8.32-4.26-15.83-10-21.09-17.86-5.44-8.07-8.45-17.52-10.12-27a118.21,118.21,0,0,1,5.09-59,115.73,115.73,0,0,1,5.89-13.86,53.61,53.61,0,0,1,7.65-12.09c3-3.28,7-6.59,11.63-6.56,4.33,0,7.49,3,9.24,6.75s2.3,7.82,2.67,11.82a154,154,0,0,1-12.27,75.76c-3.82,8.67-8.54,17.45-16.1,23.42-7,5.52-17.26,8.31-25.62,4.23s-12.56-13.37-16-21.44a148.48,148.48,0,0,1-11.4-53.64,154.56,154.56,0,0,1,8.22-54.12,145.45,145.45,0,0,1,11.46-25.3c4.47-7.77,9.74-15.82,17.68-20.43a17.43,17.43,0,0,1,12.53-2.3l-1-1.05a180.84,180.84,0,0,1,6.45,120.22,174.38,174.38,0,0,1-13.23,32.46l2.05-.54c-8.09-5-6.83-16.64-5.11-24.57a282.87,282.87,0,0,1,9.3-32.55A301.67,301.67,0,0,1,395,269.7l-1.82.24c3.46,2.62.92,9.08,0,12.37-1.21,4.3-2.62,8.55-4.2,12.73A165.66,165.66,0,0,1,377,320a218.45,218.45,0,0,1-34.24,43.72c-6.48,6.5-13.29,12.67-20.36,18.53-7.38,6.12-15,12.35-23.4,17s-18,7.28-27.46,4.88c-8.78-2.23-14.74-8.93-17.21-17.48-2.39-8.26-1.95-17.11-.94-25.55a205.1,205.1,0,0,1,5.92-29.86,208.89,208.89,0,0,1,24.12-55C294.1,259,307.07,243,324.91,232.93c18.18-10.29,39.46-15.76,60.13-17.88a176.53,176.53,0,0,1,62.85,4.71c17.59,4.65,36.09,13.17,45.81,29.38a44.69,44.69,0,0,1,6.52,25c-.48,9.35-4.79,17.42-11.68,23.65-7.29,6.58-16.24,11.62-25.09,15.77a133,133,0,0,1-57.86,12.52,111.72,111.72,0,0,1-15-1.06c-4.52-.66-9.2-1.87-12.61-5.1-6.06-5.75-6.2-15.21-4.89-22.89,1.53-8.93,4.94-17.72,9-25.8,8.28-16.59,20.9-32.14,36.67-42.14,7.83-5,17-8.76,26.37-8.61a29,29,0,0,1,21.75,10.38c11,12.95,11.95,32,11.3,48.19-.85,21.05-5.33,42.58-14,61.86-6.68,14.91-17.13,30.25-32.67,36.88-16.26,6.94-33.74.81-45.32-11.74-13.67-14.82-16.55-35.6-14.37-55,2.33-20.67,9.4-41.18,18.57-59.78,8.25-16.74,18.55-33.53,33.23-45.42a55.22,55.22,0,0,1,23.55-11.58,45.91,45.91,0,0,1,26.44,2.86c18,7.38,30.4,23.47,37.42,41.15A154.06,154.06,0,0,1,519,266.78a223.71,223.71,0,0,1,3.86,31.27c.89,19.46-1.31,41.8-13.53,57.81A33.64,33.64,0,0,1,485,369.33,65.1,65.1,0,0,1,458.56,366a80.07,80.07,0,0,1-40.49-31.63c-10.84-16.39-15.4-36.28-15-55.78.84-40,22.64-76.26,49.48-104.6,12.94-13.66,27.84-25.9,45.2-33.47,16-7,33.93-9.23,51-4.91,16.8,4.25,31.06,14.68,38.57,30.5,4.33,9.1,6.56,19.2,7.87,29.14a148.52,148.52,0,0,1,.83,29.66c-2.77,39.9-20.19,77.78-43.46,109.8a288.59,288.59,0,0,1-80.91,75.11c-16.06,10-33.24,18.8-51.13,25-18.44,6.36-39.75,9.1-56.41-3.19-13.53-10-21.11-27-22.34-43.47-1.54-20.52,5.88-40.65,15.32-58.5,18-33.95,43.1-64.32,72.35-89.13q11.12-9.42,23.07-17.75c8.24-5.72,16.86-11.91,26.55-14.89,9.48-2.92,19-1.31,26.26,5.57,6.35,6,10.35,14.11,13.56,22.1A172.33,172.33,0,0,1,521.78,355c-6,17.32-15,35.07-30.24,46.06-13.12,9.48-31.86,12.89-46.53,4.78-15.79-8.72-19-27.49-16.12-43.89,3.15-18.1,12.15-35,21.92-50.39a215.7,215.7,0,0,1,37-43.83c14.25-12.94,31.45-26,51.27-27.94,39.34-3.79,62,39.37,72.26,70.82A196.57,196.57,0,0,1,621,372.46c-.1,18.88-2.15,39.52-12.81,55.67-10.54,15.95-29.39,23.94-47.71,26.79-17.38,2.71-35.35.51-51.87-5.34A115.68,115.68,0,0,1,464,421a130.44,130.44,0,0,1-28.49-46.72c-12.85-36.1-10.66-75.48,2.64-111.11a216.18,216.18,0,0,1,28.21-51.76c11.11-15.22,24-29.58,39.39-40.62,14.73-10.59,31.9-18,50.2-18.74,16.82-.65,34.43,4.09,47.11,15.54,13.8,12.45,19.32,30.95,21.17,48.9,2.07,20,1,40.55-1.15,60.49a360.85,360.85,0,0,1-35.28,121.28c-16.9,34-40.88,66.51-75.62,83.78-16.92,8.41-35.93,13.06-54.87,11.94-18-1.06-36.31-7.53-49.14-20.52a50.8,50.8,0,0,1-13.36-24.07c-2.3-9.73-1.82-19.95.05-29.7,3.82-20,12.8-39.07,22.21-57a348,348,0,0,1,31.57-49.43c11.29-14.77,23.81-30.45,41.27-38.07l-2.05-.54c6.29,12.33,1.39,27.08-2.45,39.4a315.47,315.47,0,0,1-14.46,37.71,318,318,0,0,1-42.19,67.89c-8.12,10-16.78,20.86-28.34,27-5.7,3-12.23,4.5-18.58,2.8a24.09,24.09,0,0,1-12.4-8.55c-7-8.73-9.51-20.26-11.17-31a205.62,205.62,0,0,1-2.07-41.11,208.48,208.48,0,0,1,19.65-78.8c1.47-3.11,3-6.18,4.65-9.21l-2.79-.76a229.16,229.16,0,0,1-5.76,71.66,204.86,204.86,0,0,1-28.11,65.13c-13.31,20-30.88,37.9-51.72,50.05-11.65,6.79-25.44,11.28-38.83,7.28-12.21-3.64-19.26-14-21.06-26.2-1.85-12.58.75-25.46,3.1-37.79a428.18,428.18,0,0,1,10.24-42.69c8-26.75,19.49-52.69,36.36-75.09,15.09-20,34.46-37.19,57.26-47.9,6.06-2.85,12.63-5.79,19.31-6.74a23.44,23.44,0,0,1,18.39,5.59c11.15,9.32,13.54,24.75,14.27,38.45.84,15.83-.88,31.68-3.58,47.27a436,436,0,0,1-9.73,43,438,438,0,0,1-32.41,82.57c-10.47,20.32-25.85,45.66-52.21,43.5-10.22-.83-20.34-6.47-23.43-16.76-4.18-13.89,4.32-27.39,14-36.58,10.18-9.63,22.08-17.74,33.75-25.43s23.85-14.85,36.27-21.4a566.8,566.8,0,0,1,77.67-33.3c27.87-9.74,56.39-18.29,85.3-24.4a331.62,331.62,0,0,1,46.4-6.69c7.59-.51,15.21-.71,22.81-.51,6.55.17,13.23.69,19.42,3a25,25,0,0,1,13.45,11.22,32.81,32.81,0,0,1,3.6,16.14c-.09,12.16-4.54,23.84-9.78,34.64a155.23,155.23,0,0,1-49.26,58.38c-10.94,7.79-24,15.7-37.91,15.09-6.25-.28-14.91-2.5-15.69-9.93-.67-6.4,3.26-13.12,5.73-18.81,9.71-22.32,20.77-44.88,37.53-62.84a99,99,0,0,1,27.44-21l-2.26-1.3a72.54,72.54,0,0,1-7.4,41c-6,11.83-15.75,22.87-28.78,27-6.13,1.92-12.85,2-18.73-.81a27.13,27.13,0,0,1-12-11.88c-6.58-12.17-4.88-26.18-.1-38.65a165.31,165.31,0,0,1,10-20.5c3.31-6,6.72-12,10.44-17.7,7.37-11.37,16.16-22.18,27.57-29.72,5.57-3.67,12.89-7.73,19.5-4.23,4.89,2.58,7.54,8.06,9.08,13.12a64.55,64.55,0,0,1,2.44,18.24,50.18,50.18,0,0,1-3.1,19c-10.61,26.74-48.85,22.61-69.65,12.05a57.67,57.67,0,0,1-26.68-27.31c-5.25-11.51-6.47-24.5-5.34-37a119.09,119.09,0,0,1,10.24-37.78c5.07-11.3,11.84-23,22.27-30.17a31.44,31.44,0,0,1,17.4-5.78,35,35,0,0,1,18.89,5.77c12.15,7.74,18.7,21.17,21.77,34.85,6.85,30.46.38,62.74-9.4,91.8-9.38,27.88-21.63,55.33-37.93,79.88-15.66,23.57-35.71,44.35-60.45,58.4-23.17,13.18-51,20.72-77.66,16.11-12.19-2.1-24.25-6.7-33.87-14.63-10.38-8.55-16.69-20.42-19.3-33.51-2.76-13.83-1.74-28.24.5-42.07a205.37,205.37,0,0,1,11.17-41.1c10.07-26.11,25.55-51.14,46-70.39,19.3-18.16,45.17-32.68,72.48-30.29,13.59,1.19,26.69,6.51,34.25,18.34,6.56,10.29,8.71,22.95,8.51,35a109.72,109.72,0,0,1-29.05,72.14,96.79,96.79,0,0,1-72.19,30.55c-25-.55-56.34-12.65-60.47-40.63-2.24-15.18,3.52-30.54,9.36-44.28a331.81,331.81,0,0,1,45.81-76.85c8.89-11.13,18.42-21.89,29.38-31s23.54-16.57,37.46-20.1,29-3.3,42.1,2.78c12,5.56,21.19,15.42,28.1,26.48A148.38,148.38,0,0,1,557.5,292.3c3.66,13.19,4.79,26.81,2.36,40.33A99.09,99.09,0,0,1,546.49,367,113.69,113.69,0,0,1,488.26,414c-27.52,9.81-57.73,9.68-85.94,2.91a177.34,177.34,0,0,1-41.09-15.05c-6.23-3.28-12.12-7.38-16.32-13.13a42.42,42.42,0,0,1-7.13-16.56c-5.73-28,12.8-52.36,32.24-70.2a304.06,304.06,0,0,1,111.73-64.73c15-4.8,30.54-8.81,46.37-8.51,13.58.25,27.38,4.06,38.16,12.57,11.36,9,16.6,22.06,17.76,36.22,1.11,13.61-.22,27.63-2.25,41.1A232.63,232.63,0,0,1,572.68,357c-8.23,24.83-21,48.38-38.63,67.8a142.53,142.53,0,0,1-31.25,26.34c-13.11,7.95-27.89,12.18-43.28,11.2-13.45-.86-27.4-5.52-37.26-15a34,34,0,0,1-9.64-15.84c-1.95-7.62-.72-15.57,1.76-22.91s6.08-14,9.81-20.63q5.21-9.29,11-18.24a350.11,350.11,0,0,1,55.11-66q7.91-7.4,16.26-14.3c5.6-4.63,11.35-9.23,17.87-12.52,12.2-6.16,28.21-6,35.76,7,3.19,5.49,4.55,11.86,5.58,18.06,1.31,7.86,2.33,15.77,3.26,23.68a662.15,662.15,0,0,1,4.29,97.74,662.87,662.87,0,0,1-9.56,94.08l2.74-.36c-17-38.4-15-81.47-25-121.66C537,377.14,530,359.15,518.4,344.16a79.66,79.66,0,0,0-40.61-28c-17.16-5-36.41-3.67-51.1,7.19a1.54,1.54,0,0,0-.54,2.06,387.51,387.51,0,0,0,38.12,46.94q10.37,10.89,21.56,20.95,5.67,5.08,11.53,9.95c3.23,2.68,6.44,5.59,10.15,7.6,5.4,2.91,14.39,5.1,17.46-2.13,1.78-4.17,0-9.2-.87-13.38q-1.71-7.75-3.7-15.44a419.1,419.1,0,0,0-19.54-57.61,421.17,421.17,0,0,0-32.21-61.58,1.52,1.52,0,0,0-2.8.76q-3.78,59.25-1.9,118.67.94,29.67,3.32,59.27c.55,6.84.16,15.62,4.55,21.4,5,6.6,13.24,3.22,19.3.14,14.43-7.3,25.58-19.58,35.47-32.09,10.88-13.76,21.17-28,31.07-42.51a850,850,0,0,0,54.89-92.26q12.15-23.73,22.81-48.2,5.32-12.22,10.28-24.61c3.32-8.34,6.7-16.78,7.77-25.75a39.28,39.28,0,0,0-.57-13,1.51,1.51,0,0,0-2.5-.66q-38.37,30.47-77,60.58Q534.47,272.63,495,302t-80,57.07Q374.58,386.66,333,412.39t-84.7,48.79q-5.36,2.86-10.73,5.68l1.82,2.36a734.21,734.21,0,0,1,69.46-62.09,857.84,857.84,0,0,1,76.69-53.73q40-25,82.26-46.12c28.83-14.38,58.79-27.07,90.29-34.29,7.95-1.82,16-3.3,24.09-4.33,7-.89,14.33-1.87,21.44-1.42,5.39.34,11.26,1.51,15.7,4.77,5.79,4.26,5.47,10.88,2.48,16.85-6.56,13.15-15,25.66-23.49,37.59a364.46,364.46,0,0,1-28,34.47,351.56,351.56,0,0,1-68.25,57.91c-12.94,8.3-26.69,15.56-41.39,20.2A111.85,111.85,0,0,1,438,443.82c-6.16.61-12.43.55-18.41-1.28-5.54-1.7-10.77-5.2-12.5-11-2.19-7.34.87-15.94,2.73-23.08a263.65,263.65,0,0,1,14.54-41.4,268.36,268.36,0,0,1,47.8-72.49q7.17-7.76,14.95-14.91c1.42-1.31-.71-3.43-2.12-2.12Z" transform="translate(-228.78 -130.35)"/></svg>