<svg xmlns="http://www.w3.org/2000/svg" viewBox="0 0 406.17 304.76"><defs><style>.cls-1{fill:#faf9cd;}</style></defs><g id="Capa_2" data-name="Capa 2"><g id="objects"><path class="cls-1" d="M385.19,0V7.33a4.63,4.63,0,1,1-4.38,0V0h-12V7.33a4.63,4.63,0,1,1-4.38,0V0h-12V7.33a4.62,4.62,0,1,1-4.38,0V0H335.91V7.33a4.56,4.56,0,1,1-4.25,0V0H319.53V7.33a4.57,4.57,0,1,1-4.25,0V0H303.15V7.33a4.57,4.57,0,1,1-4.25,0V0H286.77V7.33a4.57,4.57,0,1,1-4.25,0V0H270.38V7.33a4.56,4.56,0,1,1-4.25,0V0H254V7.33a4.56,4.56,0,1,1-4.25,0V0H237.62V7.33a4.57,4.57,0,1,1-4.25,0V0H221.24V7.33a4.63,4.63,0,1,1-4.38,0V0h-12V7.33a4.63,4.63,0,1,1-4.38,0V0h-12V7.33a4.62,4.62,0,1,1-4.38,0V0H172.8V7.33a4.63,4.63,0,1,1-4.38,0V0h-12V7.33a4.63,4.63,0,1,1-4.38,0V0H140V7.33a4.62,4.62,0,1,1-4.38,0V0h-12V7.33a4.62,4.62,0,1,1-4.38,0V0h-12V7.33a4.63,4.63,0,1,1-4.38,0V0h-12V7.33a4.63,4.63,0,1,1-4.38,0V0h-12V7.33a4.63,4.63,0,1,1-4.38,0V0h-12V7.33a4.63,4.63,0,1,1-4.39,0V0h-12V7.33a4.62,4.62,0,1,1-4.38,0V0h-12V7.33a4.63,4.63,0,1,1-4.38,0V0H0V304.76H406.17V0Z"/></g></g></svg>