<svg xmlns="http://www.w3.org/2000/svg" viewBox="0 0 800 800"><defs><style>.cls-1{fill:#fffdf3;}</style></defs><g id="objects"><path class="cls-1" d="M413.2,41.09v7.32a4.57,4.57,0,0,1,2.73,4.08,5.21,5.21,0,0,1-10.36,0,4.57,4.57,0,0,1,2.73-4.08V41.09H394.86v7.32a4.58,4.58,0,0,1,2.72,4.08,5.21,5.21,0,0,1-10.36,0A4.59,4.59,0,0,1,390,48.41V41.09H376.51v7.32a4.57,4.57,0,0,1,2.73,4.08,5.21,5.21,0,0,1-10.36,0,4.58,4.58,0,0,1,2.72-4.08V41.09H358.16v7.32a4.57,4.57,0,0,1,2.73,4.08,5.21,5.21,0,0,1-10.36,0,4.57,4.57,0,0,1,2.73-4.08V41.09H339.82v7.32a4.59,4.59,0,0,1,2.73,4.08,5.22,5.22,0,0,1-10.37,0,4.59,4.59,0,0,1,2.73-4.08V41.09H321.47v7.32a4.57,4.57,0,0,1,2.73,4.08,5.21,5.21,0,0,1-10.36,0,4.57,4.57,0,0,1,2.73-4.08V41.09H303.13v7.32a4.58,4.58,0,0,1,2.72,4.08,5.21,5.21,0,0,1-10.36,0,4.59,4.59,0,0,1,2.73-4.08V41.09H284.78v7.32a4.59,4.59,0,0,1,2.73,4.08,5.22,5.22,0,0,1-10.37,0,4.59,4.59,0,0,1,2.73-4.08V41.09H266.43v7.32a4.57,4.57,0,0,1,2.73,4.08,5.21,5.21,0,0,1-10.36,0,4.57,4.57,0,0,1,2.73-4.08V41.09H248.09v7.32a4.58,4.58,0,0,1,2.72,4.08,5.21,5.21,0,0,1-10.36,0,4.59,4.59,0,0,1,2.73-4.08V41.09H231.41v7.32a4.57,4.57,0,0,1,2.73,4.08,5.21,5.21,0,0,1-10.36,0,4.57,4.57,0,0,1,2.73-4.08V41.09H213.07v7.32a4.59,4.59,0,0,1,2.73,4.08,5.22,5.22,0,0,1-10.37,0,4.59,4.59,0,0,1,2.73-4.08V41.09H194.72v7.32a4.57,4.57,0,0,1,2.73,4.08,5.21,5.21,0,0,1-10.36,0,4.58,4.58,0,0,1,2.72-4.08V41.09H176.37v7.32a4.57,4.57,0,0,1,2.73,4.08,5.21,5.21,0,0,1-10.36,0,4.57,4.57,0,0,1,2.73-4.08V41.09H158v7.32a4.59,4.59,0,0,1,2.73,4.08,5.22,5.22,0,0,1-10.37,0,4.59,4.59,0,0,1,2.73-4.08V41.09H139.68v7.32a4.57,4.57,0,0,1,2.73,4.08,5.21,5.21,0,0,1-10.36,0,4.57,4.57,0,0,1,2.73-4.08V41.09H121.34v7.32a4.58,4.58,0,0,1,2.72,4.08,5.21,5.21,0,0,1-10.36,0,4.59,4.59,0,0,1,2.73-4.08V41.09H103v7.32a4.59,4.59,0,0,1,2.73,4.08,5.22,5.22,0,0,1-10.37,0,4.59,4.59,0,0,1,2.73-4.08V41.09H84.64v7.32a4.57,4.57,0,0,1,2.73,4.08,5.21,5.21,0,0,1-10.36,0,4.57,4.57,0,0,1,2.73-4.08V41.09H66.3v7.32A4.58,4.58,0,0,1,69,52.49a5.21,5.21,0,0,1-10.36,0,4.59,4.59,0,0,1,2.73-4.08V41.09H37.89V345.85H436.7V41.09Z"/></g></svg>